<?xml version="1.0" encoding="UTF-8"?>
<svg id="Layer_2" data-name="Layer 2" xmlns="http://www.w3.org/2000/svg" viewBox="0 0 225 225">
  <defs>
    <style>
      .cls-1 {
        fill: #fff;
      }

      .cls-2 {
        fill: #e00000;
      }
    </style>
  </defs>
  <g id="Layer_1-2" data-name="Layer 1">
    <polyline class="cls-1" points="225 0 0 0 0 225 225 225"/>
    <g id="red">
      <rect class="cls-2" x="134.46" y="98.3" width="4.88" height="24.4"/>
      <polygon class="cls-2" points="95.42 98.3 95.42 110.5 90.54 98.3 85.65 98.3 85.65 122.7 90.54 122.7 90.54 110.5 95.42 122.7 100.3 122.7 100.3 98.3 95.42 98.3"/>
      <path class="cls-2" d="M173.5,88.54v43.92H51.49v-43.92h122.01M173.63,83.66H51.37c-2.62.01-4.73,2.13-4.74,4.74v44.18c.01,2.62,2.13,4.73,4.74,4.74h122.25c2.62-.01,4.73-2.13,4.74-4.74v-44.17c-.01-2.62-2.13-4.73-4.74-4.74h0Z"/>
      <path class="cls-2" d="M76,98.3h-5.08c-2.63,0-4.76,2.12-4.78,4.74v14.89c.02,2.63,2.15,4.74,4.78,4.74h5.08c2.62,0,4.76-2.12,4.78-4.74v-14.88c-.01-2.63-2.15-4.75-4.78-4.75ZM75.89,117.82h-4.86v-14.64h4.88l-.02,14.64Z"/>
      <path class="cls-2" d="M124.8,98.3h-5.08c-2.63,0-4.76,2.12-4.78,4.74v19.66h4.89v-9.76h4.88v9.76h4.88v-19.66c-.02-2.63-2.16-4.75-4.79-4.74ZM124.7,108.06h-4.86v-4.88h4.88l-.02,4.88Z"/>
      <path class="cls-2" d="M154.13,112.94c2.6-.03,4.7-2.14,4.72-4.74v-5.14c-.02-2.62-2.15-4.74-4.78-4.74h-5.09c-2.63,0-4.76,2.12-4.78,4.74v19.66h4.88v-9.76h0l4.74,9.77,5.03-.02-4.72-9.76ZM153.98,108.06h-4.88v-4.88h4.88v4.88Z"/>
    </g>
  </g>
</svg>