<?xml version="1.0" encoding="UTF-8"?>
<svg id="Layer_2" data-name="Layer 2" xmlns="http://www.w3.org/2000/svg" viewBox="0 0 225 225">
  <defs>
    <style>
      .cls-1 {
        fill: #001d3e;
      }

      .cls-2 {
        fill: #fff;
      }
    </style>
  </defs>
  <g id="Layer_1-2" data-name="Layer 1">
    <polyline class="cls-2" points="225 0 0 0 0 225 225 225"/>
    <g>
      <path class="cls-1" d="M44.15,106.92h2.47v5.15h-2.45v-5.15h-.02ZM48.35,105.29h-5.92c-.96,0-1.72.77-1.72,1.72v10.95c0,.96.77,1.72,1.72,1.72h5.92c.96,0,1.72-.77,1.72-1.72v-2.42h-3.45v2.52h-2.45v-4.4h5.92v-6.64c-.02-.96-.79-1.72-1.75-1.72M55.27,106.92h2.45v5.15h-2.45v-5.15ZM59.44,105.29h-5.92c-.96,0-1.72.77-1.72,1.72v10.95c0,.96.77,1.72,1.72,1.72h5.92c.96,0,1.72-.77,1.72-1.72v-2.42h-3.47v2.52h-2.45v-4.4h5.92v-6.64c0-.96-.77-1.72-1.72-1.72M32.71,101.87h2.89v10.21h-2.89v-10.21ZM37.49,100.26h-8.62v19.46h3.82v-6.01h4.8c1.05,0,1.91-.86,1.91-1.91v-9.63c0-1.07-.84-1.91-1.91-1.91M70.63,112.07h-.72l2.45-6.78h-3.47l-2.45,6.78v-11.82h-3.47v19.46h3.47v-6.01h2.45v6.01h3.47v-5.92c0-.96-.77-1.72-1.72-1.72M138.69,106.92h2.45v5.15h-2.45v-5.15ZM142.86,105.29h-5.92c-.96,0-1.72.77-1.72,1.72v10.95c0,.96.77,1.72,1.72,1.72h5.92c.96,0,1.72-.77,1.72-1.72v-2.42h-3.47v2.52h-2.42v-4.4h5.92v-6.64c0-.96-.79-1.72-1.75-1.72M105.24,106.92h2.45v11.16h-2.45v-11.16ZM109.41,105.29h-5.92c-.96,0-1.72.77-1.72,1.72v10.95c0,.96.77,1.72,1.72,1.72h5.92c.96,0,1.72-.77,1.72-1.72v-10.95c0-.96-.77-1.72-1.72-1.72M96.52,100.26h3.45v19.46h-3.45v-19.46ZM116.4,106.92h2.45v11.16h-2.45v-11.16ZM120.6,105.29h-7.64v19.46h3.47v-5.06h4.17c.96,0,1.72-.77,1.72-1.72v-10.95c0-.96-.77-1.72-1.72-1.72M127.52,106.92h2.45v11.16h-2.45v-11.16ZM131.69,105.29h-7.64v19.46h3.47v-5.06h4.17c.96,0,1.72-.77,1.72-1.72v-10.95c0-.96-.77-1.72-1.72-1.72M161.11,106.92h2.45v11.16h-2.45v-11.16ZM165.28,105.29h-4.17v-5.03h-3.47v19.46h7.64c.96,0,1.72-.77,1.72-1.72v-10.95c.02-.98-.77-1.75-1.72-1.75M154.04,105.29h-7.64v14.43h3.47v-12.8h2.45v12.8h3.47v-12.7c-.02-.96-.79-1.72-1.75-1.72M178.19,105.29h-3.45v12.8h-2.45v-12.8h-3.45v12.7c0,.96.77,1.72,1.72,1.72h7.64v-14.43h-.02ZM185.9,105.29h-4.17c-.96,0-1.72.77-1.72,1.72v12.68h3.47v-12.77h2.45v-1.63h-.02ZM192.69,118.09h-2.45v-11.16h2.45v11.16ZM196.14,105.29h-7.64c-.96,0-1.72.77-1.72,1.72v10.95c0,.96.77,1.72,1.72,1.72h4.17v3.43h-2.45v-1.84h-3.45v1.72c0,.96.77,1.72,1.72,1.72h5.92c.96,0,1.72-.77,1.72-1.72v-17.71h0ZM90.88,106.92h3.82v-4.75c0-1.05-.86-1.91-1.91-1.91h-6.71c-1.05,0-1.91.86-1.91,1.91v15.64c0,1.05.86,1.91,1.91,1.91h6.71c1.05,0,1.91-.86,1.91-1.91v-5.73h-3.82v6.01h-2.89v-16.22h2.89v5.06Z"/>
      <path class="cls-1" d="M84.19,117.81v-4.34l-7.25-9.39c-.56-.72-.42-1.77.3-2.33.72-.56,1.77-.42,2.33.3l2.75,3.57v-4.59c-1.63-1.07-3.82-1.07-5.45.21-2.05,1.58-2.42,4.54-.84,6.6,0,0,.21.26.54.7-.68.44-1.33.93-1.91,1.4-2.47,1.91-3.08,5.24-1.17,7.71,1.91,2.47,5.27,2.7,7.74.79.58-.47,1.24-.96,1.82-1.51,1.24,1.61,1.56,2.03,1.56,2.03-.28-.3-.42-.72-.42-1.14h0ZM76.2,115.52c-1.56-2.03-1.24-4.92.7-6.55,1.33,1.72,3.87,5.03,5.78,7.53-2.05,1.47-4.92,1.05-6.48-.98Z"/>
    </g>
  </g>
</svg>