<?xml version="1.0" encoding="UTF-8"?>
<svg id="Layer_2" xmlns="http://www.w3.org/2000/svg" version="1.1" viewBox="0 0 354 292.5">
  <!-- Generator: Adobe Illustrator 29.8.1, SVG Export Plug-In . SVG Version: 2.1.1 Build 2)  -->
  <defs>
    <style>
      .st0 {
        fill: #f5b6b4;
      }

      .st1 {
        fill: #fff;
      }
    </style>
  </defs>
  <g id="Layer_1-2">
    <g>
      <path class="st1" d="M250.1,86.2c-4.5-16.8-11.3-31.7-15.3-46.1-3.9-14.3-11.2-25-25-25s-25,11.2-25,25v37.5h-15.6v-37.5c0-13.8-11.2-25-25-25h0c-13.8,0-21.1,10.7-25,25-4,14.5-10.7,29.3-15.3,46.1C52,105.6,15,155.6,15,214.3v.4c0,34.7,28.1,62.8,62.8,62.8h198.4c34.7,0,62.8-28.1,62.8-62.8v-.4c0-58.7-37-108.7-88.9-128.2h0Z"/>
      <path class="st0" d="M221.8,61.4v20.8c0,6.6-5.4,12-12,12h0c-6.6,0-12-5.4-12-12v-20.8c0-6.6,5.4-12,12-12h0c6.6,0,12,5.4,12,12Z"/>
      <path class="st0" d="M156.2,61.4v20.8c0,6.6-5.4,12-12,12h0c-6.6,0-12-5.4-12-12v-20.8c0-6.6,5.4-12,12-12h0c6.6,0,12,5.4,12,12Z"/>
      <path d="M218.3,174.6c1.4,0,2.8-.5,3.9-1.6,1.3-1.3,2.8-2.5,4.3-3.5,2.6-1.6,3.3-5.1,1.6-7.6-1.6-2.6-5.1-3.3-7.6-1.6-2.2,1.4-4.3,3.1-6.1,5-2.1,2.1-2.1,5.6,0,7.8s2.5,1.6,3.9,1.6h0Z"/>
      <path d="M148.9,232.9c2.1-2.2,5.6-2.3,7.8-.2,1.6,1.5,3,2.9,8.2,2.9s3.1-1.2,4.8-3.3c-2.1-.8-3.6-2.8-3.6-5.2,0-4.5,3.7-6.7,10.9-6.7s10.9,2.3,10.9,6.7-1.6,4.5-3.7,5.2c1.6,2.1,3,3.3,4.8,3.3,5.2,0,6.7-1.4,8.2-2.9,2.2-2.1,5.7-2,7.8.2,2.1,2.2,2,5.7-.2,7.8-3.2,3.1-7.4,5.9-15.8,5.9s-9.4-3-12-5.8c-2.6,2.9-6.4,5.8-12,5.8-8.5,0-12.6-2.8-15.8-5.9-2.2-2.1-2.3-5.6-.2-7.8h0Z"/>
      <path d="M225,203.4c3.6-4.4,8.3-8.4,18.1-8.4s14.5,4,18.1,8.4c1.9,2.3,1.6,5.8-.7,7.7-1,.9-2.3,1.3-3.5,1.3s-3.1-.7-4.2-2c-2.2-2.7-4.1-4.4-9.6-4.4s-7.4,1.8-9.6,4.4c-1.9,2.3-5.4,2.7-7.7.7-2.3-1.9-2.7-5.4-.7-7.7h0Z"/>
      <path d="M135.7,174.6c1.4,0,2.8-.5,3.9-1.6,2.1-2.1,2.1-5.6,0-7.8s-3.9-3.5-6.1-5c-2.6-1.6-6-.9-7.6,1.6-1.7,2.6-.9,6,1.6,7.6,1.5,1,3,2.2,4.3,3.5,1.1,1.1,2.5,1.6,3.9,1.6h0Z"/>
      <path d="M92.8,203.4c3.6-4.4,8.3-8.4,18.1-8.4s14.5,4,18.1,8.4c1.9,2.3,1.6,5.8-.7,7.7-2.3,1.9-5.8,1.6-7.7-.7-2.2-2.7-4.1-4.4-9.7-4.4s-7.4,1.8-9.7,4.4c-1.1,1.3-2.7,2-4.2,2s-2.5-.4-3.5-1.3c-2.3-1.9-2.7-5.4-.7-7.7h0Z"/>
      <path class="st0" d="M78.9,218.2h26.2c8.4,0,15.2,6.8,15.2,15.2h0c0,8.4-6.8,15.2-15.2,15.2h-26.2c-8.4,0-15.2-6.8-15.2-15.2h0c0-8.4,6.8-15.2,15.2-15.2Z"/>
      <path class="st0" d="M248.9,218.2h26.2c8.4,0,15.2,6.8,15.2,15.2h0c0,8.4-6.8,15.2-15.2,15.2h-26.2c-8.4,0-15.2-6.8-15.2-15.2h0c0-8.4,6.8-15.2,15.2-15.2Z"/>
      <path class="st0" d="M209.8,15c13.8,0,21.1,10.7,25,25,4,14.5,10.7,29.3,15.3,46.1,51.9,19.4,88.9,69.5,88.9,128.2v.4c0,34.7-28.1,62.8-62.8,62.8H77.8c-34.7,0-62.8-28.1-62.8-62.8v-.4c0-58.7,37-108.7,88.9-128.2,4.5-16.8,11.3-31.7,15.3-46.1,3.9-14.3,11.2-25,25-25s25,11.2,25,25v37.5h15.6v-37.5c0-13.8,11.2-25,25-25M209.8,0C196.3,0,184.2,6.8,177,17.1,169.8,6.8,157.8,0,144.2,0s-20.2,4.2-27.3,12.1c-5.4,5.9-9.3,13.8-12.1,23.9-1.7,6.3-4.1,12.9-6.6,19.9-2.2,6.1-4.5,12.4-6.5,19.1-25.6,11.1-47.6,28.9-63.8,51.9C9.6,152.5,0,182.8,0,214.3v.4c0,42.9,34.9,77.8,77.8,77.8h198.5c42.9,0,77.8-34.9,77.8-77.8v-.4c0-31.5-9.6-61.8-27.7-87.5-16.2-23-38.2-40.8-63.8-51.9-2.1-6.7-4.3-13-6.5-19.1-2.5-7-4.9-13.6-6.6-19.9-2.8-10.2-6.8-18-12.1-23.9C230,4.2,220.6,0,209.8,0h0Z"/>
    </g>
  </g>
</svg>