<?xml version="1.0" encoding="UTF-8"?>
<svg id="Layer_2" data-name="Layer 2" xmlns="http://www.w3.org/2000/svg" viewBox="0 0 354 292.53">
  <defs>
    <style>
      .cls-1 {
        stroke-miterlimit: 10;
      }

      .cls-1, .cls-2 {
        fill: #f5b6b4;
      }

      .cls-1, .cls-3 {
        stroke: #000;
        stroke-width: 11px;
      }

      .cls-3 {
        fill: none;
        stroke-linecap: round;
        stroke-linejoin: round;
      }

      .cls-4 {
        fill: #fff;
      }
    </style>
  </defs>
  <g id="Layer_1-2" data-name="Layer 1">
    <g>
      <path class="cls-4" d="M250.11,86.16c-4.54-16.81-11.27-31.65-15.26-46.13-3.95-14.3-11.21-25.03-25.03-25.03s-25.03,11.21-25.03,25.03v37.5h-15.57v-37.5c0-13.82-11.21-25.03-25.03-25.03h0c-13.82,0-21.08,10.73-25.03,25.03-4,14.48-10.72,29.32-15.26,46.13C51.97,105.57,15,155.63,15,214.32v.44c0,34.67,28.1,62.77,62.77,62.77h198.45c34.67,0,62.77-28.1,62.77-62.77v-.44c0-58.69-36.97-108.74-88.89-128.16Z"/>
      <rect class="cls-2" x="187.4" y="59.7" width="44.83" height="24.08" rx="12.04" ry="12.04" transform="translate(281.55 -138.08) rotate(90)"/>
      <rect class="cls-2" x="121.77" y="59.7" width="44.83" height="24.08" rx="12.04" ry="12.04" transform="translate(215.92 -72.44) rotate(90)"/>
      <path d="M213.29,178.55c1.41,0,2.82-.54,3.89-1.61,1.32-1.32,2.78-2.5,4.33-3.5,2.55-1.65,3.28-5.05,1.64-7.6-1.65-2.55-5.05-3.29-7.6-1.64-2.21,1.42-4.27,3.09-6.14,4.96-2.15,2.15-2.15,5.63,0,7.78,1.07,1.07,2.48,1.61,3.89,1.61Z"/>
      <path d="M140.71,178.55c1.41,0,2.82-.54,3.89-1.61,2.15-2.15,2.15-5.63,0-7.78-1.87-1.87-3.94-3.54-6.14-4.96-2.55-1.65-5.96-.92-7.6,1.64-1.65,2.55-.91,5.96,1.64,7.6,1.55,1,3.01,2.18,4.33,3.5,1.07,1.07,2.48,1.61,3.89,1.61Z"/>
      <rect class="cls-2" x="63.69" y="218.23" width="56.57" height="30.38" rx="15.19" ry="15.19"/>
      <rect class="cls-2" x="233.74" y="218.23" width="56.57" height="30.38" rx="15.19" ry="15.19"/>
      <path class="cls-2" d="M209.82,15c13.82,0,21.08,10.73,25.03,25.03,4,14.48,10.72,29.32,15.26,46.13,51.92,19.41,88.89,69.46,88.89,128.16v.44c0,34.67-28.1,62.77-62.77,62.77H77.77c-34.67,0-62.77-28.1-62.77-62.77v-.44c0-58.69,36.97-108.74,88.89-128.16,4.54-16.81,11.27-31.65,15.26-46.13,3.95-14.3,11.21-25.03,25.03-25.03s25.03,11.21,25.03,25.03v37.5h15.57v-37.5c0-13.82,11.21-25.03,25.03-25.03M209.82,0c-13.56,0-25.57,6.78-32.82,17.13C169.76,6.78,157.75,0,144.18,0c-10.75,0-20.2,4.18-27.35,12.1-5.36,5.94-9.33,13.77-12.14,23.94-1.74,6.3-4.12,12.89-6.63,19.87-2.21,6.12-4.48,12.4-6.54,19.07-25.61,11.07-47.56,28.89-63.8,51.88C9.59,152.54,0,182.78,0,214.32v.44c0,42.88,34.89,77.77,77.77,77.77h198.45c42.88,0,77.77-34.89,77.77-77.77v-.44c0-31.54-9.59-61.78-27.72-87.46-16.24-22.99-38.19-40.81-63.8-51.88-2.06-6.67-4.33-12.95-6.54-19.07-2.52-6.98-4.9-13.57-6.63-19.86-2.81-10.17-6.78-18.01-12.14-23.94-7.15-7.91-16.61-12.1-27.35-12.1h0Z"/>
      <path class="cls-1" d="M188.27,231.29c6.22,6.22,6.22,16.32,0,22.54h0c-6.22,6.22-16.32,6.22-22.54,0h0c-6.22-6.22-6.22-16.32,0-22.54"/>
      <path d="M205.07,223.37c-2.09-2.2-5.58-2.29-7.78-.19-1.55,1.47-3.01,2.86-8.25,2.86-1.83,0-3.15-1.24-4.81-3.33,2.12-.76,3.65-2.79,3.65-5.17,0-4.47-3.68-6.73-10.94-6.73s-10.94,2.27-10.94,6.73c0,2.42,1.57,4.47,3.74,5.21-1.65,2.07-2.96,3.29-4.78,3.29-5.25,0-6.71-1.39-8.25-2.86-2.2-2.09-5.68-2.01-7.78.19-2.09,2.2-2.01,5.68.19,7.78,3.22,3.06,7.36,5.89,15.83,5.89,5.69,0,9.45-2.97,12.04-5.84,2.59,2.88,6.36,5.84,12.04,5.84,8.48,0,12.62-2.83,15.83-5.89,2.2-2.09,2.29-5.58.19-7.78Z"/>
      <polyline class="cls-3" points="105.18 197.25 123.82 210.89 105.18 224.53"/>
      <polyline class="cls-3" points="248.82 197.25 230.18 210.89 248.82 224.53"/>
    </g>
  </g>
</svg>