<?xml version="1.0" encoding="UTF-8"?>
<svg id="Layer_2" data-name="Layer 2" xmlns="http://www.w3.org/2000/svg" viewBox="0 0 225 225">
  <defs>
    <style>
      .cls-1 {
        fill: none;
      }

      .cls-2 {
        fill-rule: evenodd;
      }

      .cls-3 {
        fill: #fff;
      }
    </style>
  </defs>
  <g id="Layer_1-2" data-name="Layer 1">
    <polyline class="cls-3" points="225 0 0 0 0 225 225 225"/>
    <g id="Logo-gorbe">
      <rect id="Container" class="cls-1" x="26.02" y="97.33" width="172.97" height="30.35"/>
      <g id="Medium-Primary-Text-Dark">
        <polygon id="Path" points="63.42 101.78 63.42 110.28 64.78 110.28 64.78 103.79 68.89 110.28 70.13 110.28 70.13 101.78 68.77 101.78 68.77 107.77 64.99 101.78 63.42 101.78"/>
        <path id="Shape" d="M75.07,101.53l-1.07,1.76h1.21l1.12-1.76h-1.26ZM74.61,109.36c-1.04,0-1.6-.61-1.69-1.8h4.43v-.53c0-1.82-1.04-3-2.78-3-1.83,0-2.97,1.34-2.97,3.19,0,2,1.02,3.2,3.01,3.2,1.23,0,2.31-.57,2.61-1.87l-1.19-.25c-.16.58-.52,1.06-1.42,1.06ZM74.56,105.09c.83,0,1.35.45,1.43,1.55h-3.05c.15-1.03.69-1.55,1.61-1.55Z"/>
        <path id="Shape-2" data-name="Shape" d="M81.88,104.03c-.9,0-1.53.4-1.95,1.02v-.87h-1.29v8.35h1.34v-3.02c.42.57,1.06.92,1.91.92,1.7,0,2.73-1.37,2.73-3.24s-1.04-3.16-2.73-3.16ZM81.64,105.16c1.04,0,1.6.87,1.6,2.08s-.56,2.06-1.6,2.06-1.69-.9-1.69-2.06c0-1.23.62-2.08,1.69-2.08Z"/>
        <path id="Path-2" data-name="Path" d="M85.9,104.17v6.11h1.34v-2.61c0-1.49.62-2.26,1.59-2.26h.55v-1.24h-.51c-.74,0-1.3.36-1.68,1.02v-1.02h-1.29Z"/>
        <path id="Shape-3" data-name="Shape" d="M95.95,110.28v-1.1h-.27c-.34,0-.44-.16-.44-.46v-2.49c0-1.13-.68-2.2-2.43-2.2s-2.51,1.03-2.65,1.92l1.26.15c.08-.41.33-1.02,1.32-1.02s1.18.69,1.18.96c0,.18-.06.38-.36.42l-1.71.29c-1.08.18-1.84.78-1.84,1.88,0,.92.69,1.8,2.12,1.8.85,0,1.49-.34,1.89-.95.15.66.8.8,1.24.8h.68ZM91.32,108.52c0-.41.24-.78.9-.89l1.74-.29v.3c0,1.06-.7,1.74-1.59,1.74-.72,0-1.04-.36-1.04-.86Z"/>
        <path id="Shape-4" data-name="Shape" d="M96.94,101.78v1.51h1.34v-1.51h-1.34ZM98.28,104.17h-1.34v6.13c0,.66-.08,1.12-.76,1.12h-.66v1.1h.72c1.52,0,2.04-.86,2.04-2.15v-6.2Z"/>
        <polygon id="Path-3" data-name="Path" points="104.48 109.18 101.14 109.18 104.35 105.18 104.35 104.17 99.66 104.17 99.66 105.28 102.73 105.28 99.48 109.31 99.48 110.28 104.48 110.28 104.48 109.18"/>
        <path id="Shape-5" data-name="Shape" d="M105.68,101.78v1.51h1.34v-1.51h-1.34ZM105.68,104.17v6.11h1.34v-6.11h-1.34Z"/>
        <polygon id="Path-4" data-name="Path" points="111.49 101.78 111.49 110.28 112.79 110.28 112.79 103.82 115.33 110.32 116.22 110.32 118.79 103.77 118.79 110.28 120.13 110.28 120.13 101.78 118.32 101.78 115.83 108.23 113.32 101.78 111.49 101.78"/>
        <path id="Shape-6" data-name="Shape" d="M125.07,101.53l-1.07,1.76h1.21l1.12-1.76h-1.26ZM127.18,110.28v-6.11h-1.34v3.41c0,1.1-.49,1.7-1.4,1.7-.76,0-1.21-.49-1.21-1.38v-3.73h-1.34v3.94c0,1.26.69,2.31,2.21,2.31.84,0,1.42-.34,1.78-.86v.72h1.29Z"/>
        <polygon id="Path-5" data-name="Path" points="133.38 109.18 130.05 109.18 133.25 105.18 133.25 104.17 128.56 104.17 128.56 105.28 131.64 105.28 128.38 109.31 128.38 110.28 133.38 110.28 133.38 109.18"/>
        <path id="Shape-7" data-name="Shape" d="M137.23,109.36c-1.04,0-1.6-.61-1.69-1.8h4.43v-.53c0-1.82-1.04-3-2.78-3-1.83,0-2.97,1.34-2.97,3.19,0,2,1.02,3.2,3.01,3.2,1.23,0,2.31-.57,2.61-1.87l-1.19-.25c-.16.58-.52,1.06-1.42,1.06ZM137.18,105.09c.83,0,1.35.45,1.43,1.55h-3.05c.15-1.03.69-1.55,1.61-1.55Z"/>
        <path id="Path-6" data-name="Path" d="M146.48,110.28v-6.11h-1.34v3.41c0,1.1-.49,1.7-1.4,1.7-.76,0-1.21-.49-1.21-1.38v-3.73h-1.34v3.94c0,1.26.69,2.31,2.21,2.31.84,0,1.42-.34,1.78-.86v.72h1.29Z"/>
        <path id="Path-7" data-name="Path" d="M153.35,110.28v-3.41c0-1.1.47-1.71,1.36-1.71.75,0,1.19.5,1.19,1.4v3.73h1.34v-3.94c0-1.26-.72-2.31-2.25-2.31-.95,0-1.58.42-1.93,1.06-.32-.63-.95-1.06-1.89-1.06-.83,0-1.38.34-1.75.85v-.7h-1.29v6.11h1.34v-3.41c0-1.1.47-1.71,1.36-1.71.75,0,1.19.5,1.19,1.4v3.73h1.34Z"/>
        <polygon id="Path-8" data-name="Path" points="63.42 114.68 63.42 123.18 64.72 123.18 64.72 116.72 67.27 123.21 68.15 123.21 70.73 116.67 70.73 123.18 72.06 123.18 72.06 114.68 70.25 114.68 67.76 121.13 65.25 114.68 63.42 114.68"/>
        <path id="Path-9" data-name="Path" d="M79.11,123.18v-6.11h-1.34v3.41c0,1.1-.49,1.7-1.4,1.7-.76,0-1.21-.49-1.21-1.38v-3.73h-1.34v3.94c0,1.26.69,2.31,2.21,2.31.84,0,1.42-.34,1.78-.86v.72h1.29Z"/>
        <path id="Path-10" data-name="Path" d="M85.5,121.33c0-1.02-.7-1.55-1.87-1.76l-1.01-.18c-.52-.1-.83-.28-.83-.73,0-.29.21-.73,1.08-.73s1.17.46,1.3,1.03l1.21-.16c-.13-.86-.69-1.88-2.49-1.88-1.65,0-2.39.96-2.39,1.83,0,1.19,1,1.61,1.82,1.76l.91.16c.59.1.93.33.93.74,0,.44-.24.89-1.15.89-.85,0-1.29-.38-1.38-1.14l-1.34.16c.07,1,.81,2,2.72,2,1.72,0,2.48-.93,2.48-1.99Z"/>
        <path id="Shape-8" data-name="Shape" d="M89.41,122.25c-1.04,0-1.6-.61-1.69-1.8h4.43v-.53c0-1.82-1.04-3-2.78-3-1.83,0-2.97,1.34-2.97,3.19,0,2,1.02,3.2,3.01,3.2,1.23,0,2.31-.57,2.61-1.87l-1.19-.25c-.16.58-.52,1.06-1.42,1.06ZM89.36,117.98c.83,0,1.35.45,1.43,1.55h-3.05c.15-1.03.69-1.55,1.61-1.55Z"/>
        <path id="Path-11" data-name="Path" d="M98.66,123.18v-6.11h-1.34v3.41c0,1.1-.49,1.7-1.4,1.7-.76,0-1.21-.49-1.21-1.38v-3.73h-1.34v3.94c0,1.26.69,2.31,2.21,2.31.84,0,1.42-.34,1.78-.86v.72h1.29Z"/>
        <path id="Path-12" data-name="Path" d="M105.53,123.18v-3.41c0-1.1.47-1.71,1.36-1.71.75,0,1.19.5,1.19,1.4v3.73h1.34v-3.94c0-1.26-.72-2.31-2.25-2.31-.95,0-1.58.42-1.93,1.06-.32-.63-.95-1.06-1.89-1.06-.83,0-1.38.34-1.75.85v-.7h-1.29v6.11h1.34v-3.41c0-1.1.47-1.71,1.36-1.71.75,0,1.19.5,1.19,1.4v3.73h1.34Z"/>
        <path id="Shape-9" data-name="Shape" d="M116.28,116.93c-1.89,0-3.03,1.36-3.03,3.2s1.1,3.19,3.03,3.19,3.05-1.36,3.05-3.19-1.12-3.2-3.05-3.2ZM116.28,118.02c1.15,0,1.69.91,1.69,2.11s-.53,2.09-1.69,2.09-1.68-.9-1.68-2.09.55-2.11,1.68-2.11Z"/>
        <path id="Path-13" data-name="Path" d="M121.05,123.18h1.34v-5.03h1.46v-1.08h-1.46v-.33c0-.49.13-.96.8-.96h.86v-1.1h-.96c-1.51,0-2.04.92-2.04,1.97v.42h-1.03v1.08h1.03v5.03Z"/>
        <polygon id="Path-14" data-name="Path" points="127.64 114.68 127.64 123.18 133.49 123.18 133.49 121.96 129.06 121.96 129.06 119.45 132.89 119.45 132.89 118.27 129.06 118.27 129.06 115.89 133.37 115.89 133.37 114.68 127.64 114.68"/>
        <path id="Path-15" data-name="Path" d="M134.26,118.15h1.02v3.34c0,1.03.5,1.69,1.75,1.69h1.15v-1.12h-.9c-.53,0-.67-.27-.67-.76v-3.14h1.42v-1.08h-1.42v-1.92h-1.34v1.92h-1.02v1.08Z"/>
        <path id="Path-16" data-name="Path" d="M144.67,123.18v-3.94c0-1.26-.72-2.31-2.28-2.31-.84,0-1.42.32-1.8.81v-3.06h-1.34v8.5h1.34v-3.41c0-1.1.51-1.71,1.46-1.71.81,0,1.29.5,1.29,1.4v3.73h1.34Z"/>
        <path id="Path-17" data-name="Path" d="M151.66,123.18v-3.94c0-1.26-.72-2.31-2.28-2.31-.87,0-1.47.35-1.84.87v-.73h-1.29v6.11h1.34v-3.41c0-1.1.51-1.71,1.46-1.71.81,0,1.29.5,1.29,1.4v3.73h1.34Z"/>
        <path id="Shape-10" data-name="Shape" d="M155.9,116.93c-1.89,0-3.03,1.36-3.03,3.2s1.1,3.19,3.03,3.19,3.05-1.36,3.05-3.19-1.12-3.2-3.05-3.2ZM155.9,118.02c1.15,0,1.69.91,1.69,2.11s-.53,2.09-1.69,2.09-1.68-.9-1.68-2.09.55-2.11,1.68-2.11Z"/>
        <path id="Shape-11" data-name="Shape" d="M162.53,122.8c.81,0,1.42-.34,1.81-.86v.89c0,.66-.18,1.65-1.49,1.65-1.21,0-1.43-.69-1.52-1.1l-1.34.15c.1,1,.85,2.05,2.83,2.05,2.09,0,2.85-1.32,2.85-2.72v-5.78h-1.29v.7c-.4-.53-1.02-.85-1.86-.85-1.65,0-2.63,1.25-2.63,2.95s1,2.93,2.63,2.93ZM162.82,121.68c-1.06,0-1.55-.76-1.55-1.82s.5-1.82,1.55-1.82c.95,0,1.54.79,1.54,1.82s-.58,1.82-1.54,1.82Z"/>
        <path id="Path-18" data-name="Path" d="M167.3,117.07v6.11h1.34v-2.61c0-1.49.62-2.26,1.59-2.26h.55v-1.24h-.51c-.74,0-1.3.36-1.68,1.02v-1.02h-1.29Z"/>
        <path id="Shape-12" data-name="Shape" d="M177.35,123.18v-1.1h-.27c-.34,0-.44-.16-.44-.46v-2.49c0-1.13-.68-2.2-2.43-2.2s-2.51,1.03-2.65,1.92l1.26.15c.08-.41.33-1.02,1.32-1.02s1.18.69,1.18.96c0,.18-.06.38-.36.42l-1.71.29c-1.08.18-1.84.78-1.84,1.88,0,.92.69,1.8,2.12,1.8.85,0,1.49-.34,1.89-.95.15.66.8.8,1.24.8h.68ZM172.72,121.42c0-.41.24-.78.9-.89l1.74-.29v.3c0,1.06-.7,1.74-1.59,1.74-.72,0-1.04-.36-1.04-.86Z"/>
        <path id="Shape-13" data-name="Shape" d="M181.58,116.93c-.9,0-1.53.4-1.95,1.02v-.87h-1.29v8.35h1.34v-3.02c.42.57,1.06.92,1.91.92,1.7,0,2.73-1.37,2.73-3.24s-1.04-3.16-2.73-3.16ZM181.34,118.05c1.04,0,1.6.87,1.6,2.08s-.56,2.06-1.6,2.06-1.69-.9-1.69-2.06c0-1.23.62-2.08,1.69-2.08Z"/>
        <path id="Path-19" data-name="Path" d="M191.02,123.18v-3.94c0-1.26-.72-2.31-2.28-2.31-.84,0-1.42.32-1.8.81v-3.06h-1.34v8.5h1.34v-3.41c0-1.1.51-1.71,1.46-1.71.81,0,1.29.5,1.29,1.4v3.73h1.34Z"/>
        <path id="Path-20" data-name="Path" d="M191.94,117.07l2.35,6.14-.17.44c-.17.42-.4.67-1,.67h-.68v1.1h.67c1.29,0,1.82-.52,2.27-1.71l2.51-6.64h-1.32l-1.63,4.43-1.59-4.43h-1.42Z"/>
      </g>
      <path id="Logo" class="cls-2" d="M35.88,117.07c.82.82,1.87,1.42,3.03,1.7v7.3c-1.05-.12-2.07-.35-3.03-.69v-8.31ZM44.98,117.07v8.31c-.97.34-1.98.58-3.03.69v-7.3c1.17-.28,2.21-.88,3.03-1.7ZM32.84,120.09v3.77c-1.49-1-2.77-2.28-3.77-3.77h3.77ZM48.02,120.09h3.77c-1,1.49-2.28,2.77-3.77,3.77v-3.77ZM41.95,114.02v4.75c-.49.12-.99.18-1.52.18s-1.03-.06-1.52-.18v-4.75s3.03,0,3.03,0ZM54,114.02c-.12,1.05-.35,2.07-.69,3.03h-8.31c.82-.82,1.42-1.87,1.7-3.03h7.3ZM34.16,114.02c.28,1.17.88,2.21,1.7,3.03h-8.31c-.34-.97-.58-1.98-.69-3.03h7.3ZM41.95,110.98h4.75c.12.49.18.99.18,1.52s-.06,1.03-.18,1.52h-4.75v-3.03ZM38.91,110.98v3.03h-4.75c-.12-.49-.18-.99-.18-1.52s.06-1.03.18-1.52h4.75ZM35.86,107.95c-.82.82-1.42,1.87-1.7,3.03h-7.3c.12-1.05.35-2.07.69-3.03h8.31ZM45,107.95h8.31c.34.97.58,1.98.69,3.04h-7.3c-.28-1.17-.88-2.21-1.7-3.04ZM40.43,106.05c.52,0,1.03.06,1.52.18v4.75h-3.03v-4.75c.49-.12.99-.18,1.52-.18ZM38.91,98.93v7.3c-1.17.28-2.21.88-3.04,1.7v-8.31c.97-.34,1.98-.58,3.04-.69ZM41.95,98.93c1.05.12,2.07.35,3.03.69v8.31c-.82-.82-1.87-1.42-3.03-1.7v-7.3ZM48.02,101.14c1.49,1,2.77,2.28,3.77,3.77h-3.77s0-3.77,0-3.77ZM32.84,101.14v3.77s-3.77,0-3.77,0c1-1.49,2.28-2.77,3.77-3.77Z"/>
    </g>
  </g>
</svg>