<?xml version="1.0" encoding="UTF-8"?>
<svg id="Layer_2" data-name="Layer 2" xmlns="http://www.w3.org/2000/svg" xmlns:xlink="http://www.w3.org/1999/xlink" viewBox="0 0 360.42 230">
  <defs>
    <style>
      .cls-1 {
        fill: url(#linear-gradient);
      }

      .cls-2 {
        fill: #fff;
      }

      .cls-3 {
        fill: none;
        stroke: #cd0000;
        stroke-linecap: round;
        stroke-linejoin: round;
        stroke-width: 10px;
      }

      .cls-4 {
        fill: #ffb2b1;
      }
    </style>
    <linearGradient id="linear-gradient" x1="180.21" y1="215" x2="180.21" y2="15" gradientUnits="userSpaceOnUse">
      <stop offset="0" stop-color="#fff" stop-opacity="0"/>
      <stop offset="1" stop-color="#82acf9"/>
    </linearGradient>
  </defs>
  <g id="Layer_2-2" data-name="Layer 2">
    <g>
      <path class="cls-2" d="M205.43,15h-50.43C79.45,15,18.21,76.24,18.21,151.79v.44c0,34.67,28.1,62.77,62.77,62.77h198.45c34.67,0,62.77-28.1,62.77-62.77v-.44c0-75.54-61.24-136.78-136.78-136.78Z"/>
      <g>
        <path d="M347.17,89.75c8.54-8.55,13.25-19.91,13.25-32s-4.71-23.46-13.25-32.01l-10.7-10.69c-8.54-8.55-19.91-13.26-32-13.26s-23.45,4.71-32,13.26l-.36.36C251.44,5.3,228.61,0,205.43,0h-50.43c-23.18,0-46.01,5.3-66.68,15.41l-.36-.36C79.41,6.5,68.05,1.79,55.96,1.79s-23.46,4.71-32.01,13.26l-10.69,10.69C4.71,34.29,0,45.66,0,57.75s4.71,23.45,13.26,32l2.22,2.22c-8.05,18.79-12.27,39.26-12.27,59.82v.44c0,42.88,34.89,77.77,77.78,77.77h198.45c42.88,0,77.77-34.89,77.77-77.77v-.44c0-20.56-4.21-41.03-12.26-59.82l2.22-2.22ZM342.21,152.23c0,34.67-28.1,62.77-62.77,62.77H80.99c-34.67,0-62.78-28.1-62.78-62.77v-.44c0-22.71,5.54-44.12,15.33-62.97,11.86-22.83,29.97-41.89,52.06-54.92,10.17-6,21.19-10.73,32.83-13.95,11.64-3.22,23.9-4.95,36.57-4.95h50.43c25.33,0,49.05,6.9,69.4,18.9,22.09,13.03,40.19,32.09,52.05,54.92,4.89,9.43,8.73,19.49,11.34,30.04,2.61,10.55,3.99,21.57,3.99,32.93v.44Z"/>
        <path class="cls-1" d="M205.43,15h-50.43C79.45,15,18.21,76.24,18.21,151.79v.44c0,34.67,28.1,62.77,62.77,62.77h198.45c34.67,0,62.77-28.1,62.77-62.77v-.44c0-75.54-61.24-136.78-136.78-136.78Z"/>
        <path class="cls-4" d="M46.47,163.72c3.52-1.99,8.45-1.46,11.2,2.51,1.44,2.57,3.22,4.92,5.29,6.99,5.73,5.73,13.64,9.28,22.39,9.28,2.75,0,5.43-.36,7.98-1.02,5.06-1.32,9.26,1.9,10.4,5.98.74,2.64.2,5.65-2.23,8.03-.13.12-.26.25-.39.37-10.15,9.62-25.17,11.52-37.24,5.64h-.01c-12.25-4.6-21.1-16.35-21.47-30-.01-.18-.01-.36-.01-.54-.04-3.39,1.7-5.9,4.09-7.24Z"/>
        <path d="M148.93,102c-1.41,0-2.82-.54-3.89-1.61-1.32-1.32-2.78-2.5-4.33-3.5-2.55-1.65-3.28-5.05-1.64-7.6,1.65-2.55,5.05-3.29,7.6-1.64,2.21,1.42,4.27,3.09,6.14,4.96,2.15,2.15,2.15,5.63,0,7.78-1.07,1.07-2.48,1.61-3.89,1.61Z"/>
        <path class="cls-4" d="M313.95,163.72c-3.52-1.99-8.45-1.46-11.2,2.51-1.44,2.57-3.22,4.92-5.29,6.99-5.73,5.73-13.64,9.28-22.39,9.28-2.75,0-5.43-.36-7.98-1.02-5.06-1.32-9.26,1.9-10.4,5.98-.74,2.64-.2,5.65,2.23,8.03.13.12.26.25.39.37,10.15,9.62,25.17,11.52,37.24,5.64h.01c12.25-4.6,21.1-16.35,21.47-30,.01-.18.01-.36.01-.54.04-3.39-1.7-5.9-4.09-7.24Z"/>
        <path d="M211.5,102c-1.41,0-2.82-.54-3.89-1.61-2.15-2.15-2.15-5.63,0-7.78,1.87-1.87,3.94-3.54,6.14-4.96,2.55-1.65,5.96-.92,7.6,1.64,1.65,2.55.91,5.96-1.64,7.6-1.55,1-3.01,2.18-4.33,3.5-1.07,1.07-2.48,1.61-3.89,1.61Z"/>
        <path d="M222.34,142.88l30.32,30.32c6.18,6.18,14.29,9.28,22.4,9.28,8.1,0,16.2-3.1,22.39-9.28,12.36-12.37,12.36-32.42,0-44.78l-30.33-30.33c-12.36-12.37-32.41-12.37-44.78,0-12.37,12.37-12.37,32.42,0,44.79ZM230.01,123.16c0-9.29,7.53-16.82,16.82-16.82,9.29,0,16.82,7.53,16.82,16.82,0,9.29-7.53,16.82-16.82,16.82-9.29,0-16.82-7.53-16.82-16.82Z"/>
        <path d="M246.84,110.57c-1.08,0-2.12.15-3.11.4,2.78.97,4.78,3.61,4.78,6.73,0,3.94-3.19,7.13-7.13,7.13-3.11,0-5.75-2-6.73-4.78-.25,1-.4,2.04-.4,3.11,0,6.95,5.64,12.59,12.59,12.59s12.59-5.64,12.59-12.59-5.64-12.59-12.59-12.59Z"/>
        <path d="M138.09,98.09c-12.37-12.37-32.42-12.37-44.78,0l-30.33,30.33c-12.36,12.36-12.36,32.41,0,44.78,6.19,6.18,14.29,9.28,22.39,9.28s16.22-3.1,22.4-9.28l30.32-30.32c12.37-12.37,12.37-32.42,0-44.79ZM113.59,139.98c-9.29,0-16.82-7.53-16.82-16.82s7.53-16.82,16.82-16.82,16.82,7.53,16.82,16.82-7.53,16.82-16.82,16.82Z"/>
        <path d="M126.18,123.16c0-1.08-.15-2.12-.4-3.11-.97,2.78-3.61,4.78-6.73,4.78-3.94,0-7.13-3.19-7.13-7.13,0-3.11,2-5.75,4.78-6.73-1-.25-2.04-.4-3.11-.4-6.95,0-12.59,5.64-12.59,12.59,0,6.95,5.64,12.59,12.59,12.59s12.59-5.64,12.59-12.59Z"/>
        <g>
          <rect x="103.07" y="102.22" width="40.39" height="19.36" transform="translate(115.23 -54.39) rotate(45)"/>
          <rect x="217.19" y="102.32" width="39.71" height="19.36" transform="translate(-9.77 200.42) rotate(-45)"/>
        </g>
        <g>
          <path class="cls-3" d="M330.82,48.41c-11.56,0-20.94-9.37-20.94-20.94"/>
          <path class="cls-3" d="M309.88,88.41c0-11.56,9.37-20.94,20.94-20.94"/>
          <path class="cls-3" d="M272.88,67.47c11.56,0,20.94,9.37,20.94,20.94"/>
          <path class="cls-3" d="M293.82,27.47c0,11.56-9.37,20.94-20.94,20.94"/>
        </g>
        <path d="M208.09,168.89c-.14-.13-.28-.26-.42-.39-3.15-2.91-7.3-5.5-15.41-5.5-1.83,0-3.15-1.24-4.81-3.33,2.12-.76,3.64-2.78,3.64-5.17,0-4.47-3.68-6.73-10.94-6.73s-10.94,2.26-10.94,6.73c0,2.42,1.57,4.47,3.74,5.21-1.65,2.07-2.96,3.29-4.78,3.29-8.12,0-12.26,2.59-15.42,5.5l-.42.39c-2.2,2.1-2.28,5.58-.19,7.78,2.09,2.2,5.58,2.28,7.78.19,1.54-1.47,3-2.86,8.25-2.86s9.14-2.73,11.72-5.49c.11-.12.22-.23.32-.35.1.12.21.23.32.35,2.58,2.76,6.27,5.49,11.73,5.49s6.7,1.39,8.25,2.86c2.2,2.09,5.68,2.01,7.77-.19,2.1-2.2,2.01-5.68-.19-7.78Z"/>
      </g>
    </g>
  </g>
</svg>