<?xml version="1.0" encoding="UTF-8"?>
<svg id="Layer_2" data-name="Layer 2" xmlns="http://www.w3.org/2000/svg" viewBox="0 0 360.42 230">
  <defs>
    <style>
      .cls-1 {
        stroke: #000;
        stroke-miterlimit: 10;
        stroke-width: 11px;
      }

      .cls-1, .cls-2 {
        fill: #ffb2b1;
      }

      .cls-3 {
        fill: #fff;
      }

      .cls-4 {
        fill: #82acf9;
      }
    </style>
  </defs>
  <g id="Layer_2-2" data-name="Layer 2">
    <g>
      <path class="cls-3" d="M205.43,15h-50.43C79.45,15,18.21,76.24,18.21,151.79v.44c0,34.67,28.1,62.77,62.77,62.77h198.45c34.67,0,62.77-28.1,62.77-62.77v-.44c0-75.54-61.24-136.78-136.78-136.78Z"/>
      <g>
        <path d="M347.17,89.75c8.54-8.55,13.25-19.91,13.25-32s-4.71-23.46-13.25-32.01l-10.7-10.69c-8.54-8.55-19.91-13.26-32-13.26s-23.45,4.71-32,13.26l-.36.36C251.44,5.3,228.61,0,205.43,0h-50.43c-23.18,0-46.01,5.3-66.68,15.41l-.36-.36C79.41,6.5,68.05,1.79,55.96,1.79s-23.46,4.71-32.01,13.26l-10.69,10.69C4.71,34.29,0,45.66,0,57.75s4.71,23.45,13.26,32l2.22,2.22c-8.05,18.79-12.27,39.26-12.27,59.82v.44c0,42.88,34.89,77.77,77.78,77.77h198.45c42.88,0,77.77-34.89,77.77-77.77v-.44c0-20.56-4.21-41.03-12.26-59.82l2.22-2.22ZM342.21,152.23c0,34.67-28.1,62.77-62.77,62.77H80.99c-34.67,0-62.78-28.1-62.78-62.77v-.44c0-22.71,5.54-44.12,15.33-62.97,11.86-22.83,29.97-41.89,52.06-54.92,10.17-6,21.19-10.73,32.83-13.95,11.64-3.22,23.9-4.95,36.57-4.95h50.43c25.33,0,49.05,6.9,69.4,18.9,22.09,13.03,40.19,32.09,52.05,54.92,4.89,9.43,8.73,19.49,11.34,30.04,2.61,10.55,3.99,21.57,3.99,32.93v.44Z"/>
        <path class="cls-2" d="M46.47,163.72c3.52-1.99,8.45-1.46,11.2,2.51,1.44,2.57,3.22,4.92,5.29,6.99,5.73,5.73,13.64,9.28,22.39,9.28,2.75,0,5.43-.36,7.98-1.02,5.06-1.32,9.26,1.9,10.4,5.98.74,2.64.2,5.65-2.23,8.03-.13.12-.26.25-.39.37-10.15,9.62-25.17,11.52-37.24,5.64h-.01c-12.25-4.6-21.1-16.35-21.47-30-.01-.18-.01-.36-.01-.54-.04-3.39,1.7-5.9,4.09-7.24Z"/>
        <path d="M222.33,142.88l30.32,30.32c12.37,12.37,32.42,12.37,44.78,0h0c12.37-12.37,12.37-32.42,0-44.78l-30.32-30.32c-12.37-12.37-32.42-12.37-44.78,0h0c-12.37,12.37-12.37,32.42,0,44.78ZM228.22,125.89c3.61-4.36,8.3-8.39,18.12-8.39,9.81,0,14.51,4.03,18.12,8.39,1.94,2.34,1.61,5.81-.73,7.74-1.03.85-2.27,1.26-3.51,1.26-1.58,0-3.15-.68-4.24-1.99-2.21-2.66-4.07-4.41-9.65-4.41s-7.44,1.75-9.65,4.41c-1.94,2.34-5.41,2.67-7.74.73-2.34-1.94-2.66-5.4-.73-7.74Z"/>
        <path class="cls-2" d="M313.95,163.72c-3.52-1.99-8.45-1.46-11.2,2.51-1.44,2.57-3.22,4.92-5.29,6.99-5.73,5.73-13.64,9.28-22.39,9.28-2.75,0-5.43-.36-7.98-1.02-5.06-1.32-9.26,1.9-10.4,5.98-.74,2.64-.2,5.65,2.23,8.03.13.12.26.25.39.37,10.15,9.62,25.17,11.52,37.24,5.64h.01c12.25-4.6,21.1-16.35,21.47-30,.01-.18.01-.36.01-.54.04-3.39-1.7-5.9-4.09-7.24Z"/>
        <path d="M62.99,173.2h0c12.37,12.37,32.42,12.37,44.78,0l30.32-30.32c12.37-12.37,12.37-32.42,0-44.78h0c-12.37-12.37-32.42-12.37-44.78,0l-30.32,30.32c-12.37,12.37-12.37,32.42,0,44.78ZM95.98,125.89c3.61-4.36,8.3-8.39,18.12-8.39,9.81,0,14.51,4.03,18.12,8.39,1.94,2.34,1.61,5.81-.73,7.74-2.34,1.94-5.81,1.61-7.74-.73-2.21-2.66-4.07-4.41-9.65-4.41-5.58,0-7.44,1.75-9.65,4.41-1.09,1.31-2.66,1.99-4.24,1.99-1.24,0-2.48-.41-3.51-1.26-2.34-1.94-2.67-5.4-.73-7.74Z"/>
        <path d="M137.74,71.77c-1.41,0-2.82.54-3.89,1.61-1.32,1.32-2.78,2.5-4.33,3.5-2.55,1.65-3.28,5.05-1.64,7.6,1.65,2.55,5.05,3.29,7.6,1.64,2.21-1.42,4.27-3.09,6.14-4.96,2.15-2.15,2.15-5.63,0-7.78-1.07-1.07-2.48-1.61-3.89-1.61Z"/>
        <path class="cls-1" d="M190.29,168.25c6.22,6.22,6.22,16.32,0,22.54h0c-.89.89-21.65.89-22.54,0h0c-6.22-6.22-6.22-16.32,0-22.54"/>
        <path class="cls-2" d="M312.76,163.72c-3.52-1.99-8.45-1.46-11.2,2.51-1.44,2.57-3.22,4.92-5.29,6.99-5.73,5.73-13.64,9.28-22.39,9.28-2.75,0-5.43-.36-7.98-1.02-5.06-1.32-9.26,1.9-10.4,5.98-.74,2.64-.2,5.65,2.23,8.03.13.12.26.25.39.37,10.15,9.62,25.17,11.52,37.24,5.64h.01c12.25-4.6,21.1-16.35,21.47-30,.01-.18.01-.36.01-.54.04-3.39-1.7-5.9-4.09-7.24Z"/>
        <path d="M220.31,71.77c-1.41,0-2.82.54-3.89,1.61-2.15,2.15-2.15,5.63,0,7.78,1.87,1.87,3.94,3.54,6.14,4.96,2.55,1.65,5.96.92,7.6-1.64,1.65-2.55.91-5.96-1.64-7.6-1.55-1-3.01-2.18-4.33-3.5-1.07-1.07-2.48-1.61-3.89-1.61Z"/>
        <path d="M206.9,168.89c-.14-.13-.28-.26-.42-.39-3.15-2.91-7.3-5.5-15.41-5.5-1.83,0-3.15-1.24-4.81-3.33,2.12-.76,3.64-2.78,3.64-5.17,0-4.47-3.68-6.73-10.94-6.73s-10.94,2.26-10.94,6.73c0,2.42,1.57,4.47,3.74,5.21-1.65,2.07-2.96,3.29-4.78,3.29-8.12,0-12.26,2.59-15.42,5.5l-.42.39c-2.2,2.1-2.28,5.58-.19,7.78,2.09,2.2,5.58,2.28,7.78.19,1.54-1.47,3-2.86,8.25-2.86s9.14-2.73,11.72-5.49c.11-.12.22-.23.32-.35.1.12.21.23.32.35,2.58,2.76,6.27,5.49,11.73,5.49s6.7,1.39,8.25,2.86c2.2,2.09,5.68,2.01,7.77-.19,2.1-2.2,2.01-5.68-.19-7.78Z"/>
        <path class="cls-4" d="M94.79,128.5c-.01.05-.02.09-.02.13v-.13h.02Z"/>
        <path class="cls-4" d="M133.4,128.5v.05s0-.03,0-.05h0Z"/>
        <g>
          <path class="cls-4" d="M99.77,224.99v-85.1c.15,0,.29,0,.44,0,3.13,0,6.08-1.38,8.08-3.79,1.57-1.9,2.16-2.61,5.8-2.61s4.23.71,5.8,2.61c2,2.41,4.94,3.79,8.08,3.79,0,0,.29,0,.43,0v85.1h-28.63Z"/>
          <path d="M112.98,138.36h0,0M114.09,138.5c.66,0,1.09.04,1.33.07.13.14.33.36.62.72,1.95,2.35,4.51,4.04,7.36,4.92v75.78h-18.63v-75.77c2.85-.88,5.42-2.57,7.39-4.93.29-.35.48-.57.61-.71.24-.03.67-.07,1.32-.07M114.09,128.5c-5.58,0-7.44,1.75-9.64,4.41-1.09,1.31-2.66,1.99-4.24,1.99-1.24,0-2.48-.41-3.51-1.27-1.1-.9-1.75-2.15-1.93-3.46v99.82h38.63v-99.77c-.19,1.3-.84,2.52-1.92,3.41-1.03.85-2.27,1.27-3.51,1.27-1.58,0-3.14-.68-4.23-1.99-2.21-2.66-4.07-4.41-9.65-4.41h0Z"/>
        </g>
        <g>
          <path class="cls-4" d="M232.03,224.99v-85.1c.14,0,.29,0,.43,0,3.13,0,6.08-1.38,8.08-3.8,1.57-1.89,2.16-2.6,5.8-2.6s4.22.71,5.79,2.6c2.02,2.42,4.96,3.8,8.09,3.8.15,0,.29,0,.44,0v85.1h-28.63Z"/>
          <path d="M245.22,138.36h0,0M246.34,138.5c.66,0,1.08.04,1.32.07.13.14.33.37.63.73,1.96,2.35,4.52,4.04,7.37,4.91v75.77h-18.63v-75.78c2.85-.88,5.4-2.56,7.35-4.91.3-.36.49-.58.63-.73.24-.03.67-.07,1.33-.07M246.34,128.5c-5.58,0-7.44,1.75-9.65,4.41-1.09,1.31-2.65,1.99-4.23,1.99-1.24,0-2.48-.42-3.51-1.27-1.08-.89-1.73-2.11-1.92-3.41v99.77h38.63v-99.82c-.18,1.31-.83,2.56-1.93,3.46-1.03.86-2.27,1.27-3.51,1.27-1.58,0-3.15-.68-4.24-1.99-2.2-2.66-4.06-4.41-9.64-4.41h0Z"/>
        </g>
      </g>
    </g>
  </g>
</svg>