<?xml version="1.0" encoding="UTF-8"?>
<svg id="Layer_2" data-name="Layer 2" xmlns="http://www.w3.org/2000/svg" viewBox="0 0 360.42 230">
  <defs>
    <style>
      .cls-1 {
        stroke: #000;
        stroke-miterlimit: 10;
        stroke-width: 11px;
      }

      .cls-1, .cls-2 {
        fill: #ffb2b1;
      }

      .cls-3 {
        fill: #fff;
      }
    </style>
  </defs>
  <g id="Layer_2-2" data-name="Layer 2">
    <g>
      <path class="cls-3" d="M205.43,15h-50.43C79.45,15,18.21,76.24,18.21,151.79v.44c0,34.67,28.1,62.77,62.77,62.77h198.45c34.67,0,62.77-28.1,62.77-62.77v-.44c0-75.54-61.24-136.78-136.78-136.78Z"/>
      <path d="M347.17,89.75c8.54-8.55,13.25-19.91,13.25-32s-4.71-23.46-13.25-32.01l-10.7-10.69c-8.54-8.55-19.91-13.26-32-13.26s-23.45,4.71-32,13.26l-.36.36C251.44,5.3,228.61,0,205.43,0h-50.43c-23.18,0-46.01,5.3-66.68,15.41l-.36-.36C79.41,6.5,68.05,1.79,55.96,1.79s-23.46,4.71-32.01,13.26l-10.69,10.69C4.71,34.29,0,45.66,0,57.75s4.71,23.45,13.26,32l2.22,2.22c-8.05,18.79-12.27,39.26-12.27,59.82v.44c0,42.88,34.89,77.77,77.78,77.77h198.45c42.88,0,77.77-34.89,77.77-77.77v-.44c0-20.56-4.21-41.03-12.26-59.82l2.22-2.22ZM342.21,152.23c0,34.67-28.1,62.77-62.77,62.77H80.99c-34.67,0-62.78-28.1-62.78-62.77v-.44c0-22.71,5.54-44.12,15.33-62.97,11.86-22.83,29.97-41.89,52.06-54.92,10.17-6,21.19-10.73,32.83-13.95,11.64-3.22,23.9-4.95,36.57-4.95h50.43c25.33,0,49.05,6.9,69.4,18.9,22.09,13.03,40.19,32.09,52.05,54.92,4.89,9.43,8.73,19.49,11.34,30.04,2.61,10.55,3.99,21.57,3.99,32.93v.44Z"/>
      <path class="cls-2" d="M46.47,163.72c3.52-1.99,8.45-1.46,11.2,2.51,1.44,2.57,3.22,4.92,5.29,6.99,5.73,5.73,13.64,9.28,22.39,9.28,2.75,0,5.43-.36,7.98-1.02,5.06-1.32,9.26,1.9,10.4,5.98.74,2.64.2,5.65-2.23,8.03-.13.12-.26.25-.39.37-10.15,9.62-25.17,11.52-37.24,5.64h-.01c-12.25-4.6-21.1-16.35-21.47-30-.01-.18-.01-.36-.01-.54-.04-3.39,1.7-5.9,4.09-7.24Z"/>
      <path d="M133.55,77.92c-1,1-2.37,1.61-3.89,1.61-1.87,0-3.73.2-5.54.59-2.97.64-5.89-1.25-6.53-4.22-.64-2.97,1.25-5.9,4.22-6.53,2.57-.55,5.21-.83,7.85-.83,3.04,0,5.5,2.46,5.5,5.5,0,1.52-.62,2.89-1.61,3.89Z"/>
      <path class="cls-1" d="M191.48,168.25c6.22,6.22,6.22,16.32,0,22.54h0c-6.22,6.22-16.32,6.22-22.54,0h0c-6.22-6.22-6.22-16.32,0-22.54"/>
      <path d="M208.28,160.34c-2.09-2.2-5.58-2.29-7.78-.19-1.55,1.47-3.01,2.86-8.25,2.86-1.83,0-3.15-1.24-4.81-3.33,2.12-.76,3.65-2.79,3.65-5.17,0-4.47-3.68-6.73-10.94-6.73s-10.94,2.27-10.94,6.73c0,2.42,1.57,4.47,3.74,5.21-1.65,2.07-2.96,3.29-4.78,3.29-5.25,0-6.71-1.39-8.25-2.86-2.2-2.09-5.68-2.01-7.78.19-2.09,2.2-2.01,5.68.19,7.78,3.22,3.06,7.36,5.89,15.83,5.89,5.69,0,9.45-2.97,12.04-5.84,2.59,2.88,6.36,5.84,12.04,5.84,8.48,0,12.62-2.83,15.83-5.89,2.2-2.09,2.29-5.58.19-7.78Z"/>
      <path d="M138.09,98.1h0c-12.37-12.37-32.42-12.37-44.78,0l-30.32,30.32c-12.37,12.37-12.37,32.42,0,44.78h0c12.37,12.37,32.42,12.37,44.78,0l30.32-30.32c12.37-12.37,12.37-32.42,0-44.78ZM131.48,133.64c-2.34,1.94-5.81,1.61-7.74-.73-2.21-2.66-4.07-4.41-9.65-4.41s-7.44,1.75-9.65,4.41c-1.09,1.31-2.66,1.99-4.24,1.99-1.24,0-2.48-.41-3.51-1.26-2.34-1.94-2.67-5.4-.73-7.74,3.61-4.36,8.3-8.39,18.12-8.39s14.51,4.03,18.12,8.39c1.94,2.34,1.61,5.81-.73,7.74Z"/>
      <path class="cls-2" d="M313.95,163.72c-3.52-1.99-8.45-1.46-11.2,2.51-1.44,2.57-3.22,4.92-5.29,6.99-5.73,5.73-13.64,9.28-22.39,9.28-2.75,0-5.43-.36-7.98-1.02-5.06-1.32-9.26,1.9-10.4,5.98-.74,2.64-.2,5.65,2.23,8.03.13.12.26.25.39.37,10.15,9.62,25.17,11.52,37.24,5.64h.01c12.25-4.6,21.1-16.35,21.47-30,.01-.18.01-.36.01-.54.04-3.39-1.7-5.9-4.09-7.24Z"/>
      <path d="M226.88,77.92c-1-1-1.61-2.37-1.61-3.89,0-3.04,2.46-5.5,5.5-5.5,2.64,0,5.29.28,7.85.83,2.97.64,4.86,3.56,4.22,6.53s-3.56,4.86-6.53,4.22c-1.81-.39-3.67-.59-5.54-.59-1.52,0-2.89-.62-3.89-1.61Z"/>
      <path d="M297.44,128.42l-30.32-30.32c-12.37-12.37-32.42-12.37-44.78,0h0c-12.37,12.37-12.37,32.42,0,44.78l30.32,30.32c12.37,12.37,32.42,12.37,44.78,0h0c12.37-12.37,12.37-32.42,0-44.78ZM263.72,133.64c-1.03.85-2.27,1.26-3.51,1.26-1.58,0-3.15-.68-4.24-1.99-2.21-2.66-4.07-4.41-9.65-4.41s-7.44,1.75-9.65,4.41c-1.94,2.34-5.41,2.66-7.74.73-2.34-1.94-2.66-5.4-.73-7.74,3.61-4.36,8.3-8.39,18.12-8.39s14.51,4.03,18.12,8.39c1.94,2.34,1.61,5.81-.73,7.74Z"/>
      <path class="cls-2" d="M131.49,117.29h0c-4.94-4.94-12.96-4.94-17.91,0l-.44.44-.44-.44c-4.94-4.94-12.96-4.94-17.91,0h0c-4.94,4.94-4.94,12.96,0,17.91l18.35,18.35h0l18.35-18.35c4.94-4.94,4.94-12.96,0-17.91Z"/>
      <path class="cls-2" d="M265.39,117.29h0c-4.94-4.94-12.96-4.94-17.91,0l-.44.44-.44-.44c-4.94-4.94-12.96-4.94-17.91,0h0c-4.94,4.94-4.94,12.96,0,17.91l18.35,18.35h0l18.35-18.35c4.94-4.94,4.94-12.96,0-17.91Z"/>
    </g>
  </g>
</svg>