<?xml version="1.0" encoding="UTF-8"?>
<svg id="Layer_2" data-name="Layer 2" xmlns="http://www.w3.org/2000/svg" viewBox="0 0 360.42 230">
  <defs>
    <style>
      .cls-1 {
        fill: #fff;
      }

      .cls-2 {
        fill: #ffb2b1;
      }
    </style>
  </defs>
  <g id="Layer_2-2" data-name="Layer 2">
    <g>
      <path class="cls-1" d="M205.45,15h-50.43C79.47,15,18.23,76.24,18.23,151.79v.44c0,34.67,28.1,62.77,62.77,62.77h198.45c34.67,0,62.77-28.1,62.77-62.77v-.44c0-75.54-61.24-136.78-136.78-136.78Z"/>
      <path d="M15.47,91.97c-8.05,18.79-12.26,39.26-12.26,59.82v.44c0,42.88,34.89,77.77,77.77,77.77h198.45c42.89,0,77.78-34.89,77.78-77.77v-.44c0-20.56-4.22-41.03-12.27-59.82l2.22-2.22c8.55-8.55,13.26-19.91,13.26-32,0-12.09-4.71-23.46-13.26-32.01l-10.69-10.69c-8.55-8.55-19.92-13.26-32.01-13.26-12.09,0-23.45,4.71-32,13.26l-.36.36C251.43,5.3,228.6,0,205.42,0h-50.43c-23.18,0-46.01,5.3-66.68,15.41l-.36-.36C79.4,6.5,68.04,1.79,55.95,1.79c-12.09,0-23.46,4.71-32,13.26l-10.7,10.69C4.71,34.29,0,45.66,0,57.75c0,12.09,4.71,23.45,13.25,32l2.22,2.22ZM18.21,151.79c0-11.36,1.38-22.38,3.99-32.93,2.61-10.55,6.45-20.61,11.34-30.04,11.86-22.83,29.96-41.89,52.05-54.92,20.35-12,44.07-18.9,69.4-18.9h50.43c12.67,0,24.93,1.73,36.57,4.95,11.64,3.22,22.66,7.95,32.83,13.95,22.09,13.03,40.2,32.09,52.06,54.92,9.79,18.85,15.33,40.26,15.33,62.97v.44c0,34.67-28.11,62.77-62.78,62.77H80.98c-34.67,0-62.77-28.1-62.77-62.77v-.44Z"/>
      <path class="cls-2" d="M46.49,163.72c3.52-1.99,8.45-1.46,11.2,2.51,1.44,2.57,3.22,4.92,5.29,6.99,5.73,5.73,13.64,9.28,22.39,9.28,2.75,0,5.43-.36,7.98-1.02,5.06-1.32,9.26,1.9,10.4,5.98.74,2.64.2,5.65-2.23,8.03-.13.12-.26.25-.39.37-10.15,9.62-25.17,11.52-37.24,5.64h-.01c-12.25-4.6-21.1-16.35-21.47-30-.01-.18-.01-.36-.01-.54-.04-3.39,1.7-5.9,4.09-7.24Z"/>
      <path d="M138.11,98.1h0c-12.37-12.37-32.42-12.37-44.78,0l-30.32,30.32c-12.37,12.37-12.37,32.42,0,44.78h0c12.37,12.37,32.42,12.37,44.78,0l30.32-30.32c12.37-12.37,12.37-32.42,0-44.78ZM131.5,133.64c-2.34,1.94-5.81,1.61-7.74-.73-2.21-2.66-4.07-4.41-9.65-4.41s-7.44,1.75-9.65,4.41c-1.09,1.31-2.66,1.99-4.24,1.99-1.24,0-2.48-.41-3.51-1.26-2.34-1.94-2.67-5.4-.73-7.74,3.61-4.36,8.3-8.39,18.12-8.39s14.51,4.03,18.12,8.39c1.94,2.34,1.61,5.81-.73,7.74Z"/>
      <path class="cls-2" d="M313.97,163.72c-3.52-1.99-8.45-1.46-11.2,2.51-1.44,2.57-3.22,4.92-5.29,6.99-5.73,5.73-13.64,9.28-22.39,9.28-2.75,0-5.43-.36-7.98-1.02-5.06-1.32-9.26,1.9-10.4,5.98-.74,2.64-.2,5.65,2.23,8.03.13.12.26.25.39.37,10.15,9.62,25.17,11.52,37.24,5.64h.01c12.25-4.6,21.1-16.35,21.47-30,.01-.18.01-.36.01-.54.04-3.39-1.7-5.9-4.09-7.24Z"/>
      <path d="M238.98,125.36c-1.09-.89-1.84-2.2-1.99-3.71-.3-3.02,1.9-5.72,4.92-6.02,2.63-.26,5.29-.25,7.9.04,3.02.34,5.19,3.06,4.85,6.08s-3.06,5.19-6.08,4.85c-1.84-.21-3.71-.22-5.57-.03-1.51.15-2.94-.32-4.03-1.21Z"/>
      <path d="M297.46,128.42l-30.32-30.32c-12.37-12.37-32.42-12.37-44.78,0h0c-12.37,12.37-12.37,32.42,0,44.78l30.32,30.32c12.37,12.37,32.42,12.37,44.78,0h0c12.37-12.37,12.37-32.42,0-44.78ZM263.74,133.64c-1.03.85-2.27,1.26-3.51,1.26-1.58,0-3.15-.68-4.24-1.99-2.21-2.66-4.07-4.41-9.65-4.41s-7.44,1.75-9.65,4.41c-1.94,2.34-5.41,2.66-7.74.73-2.34-1.94-2.66-5.4-.73-7.74,3.61-4.36,8.3-8.39,18.12-8.39s14.51,4.03,18.12,8.39c1.94,2.34,1.61,5.81-.73,7.74Z"/>
      <path d="M239.98,83.36c-1.09-.89-1.84-2.2-1.99-3.71-.3-3.02,1.9-5.72,4.92-6.02,2.63-.26,5.29-.25,7.9.04,3.02.34,5.19,3.06,4.85,6.08s-3.06,5.19-6.08,4.85c-1.84-.21-3.71-.22-5.57-.03-1.51.15-2.94-.32-4.03-1.21Z"/>
      <path d="M121.47,125.36c1.09-.89,1.84-2.2,1.99-3.71.3-3.02-1.9-5.72-4.92-6.02-2.63-.26-5.29-.25-7.9.04-3.02.34-5.19,3.06-4.85,6.08.34,3.02,3.06,5.19,6.08,4.85,1.84-.21,3.71-.22,5.57-.03,1.51.15,2.94-.32,4.03-1.21Z"/>
      <path d="M120.47,83.36c1.09-.89,1.84-2.2,1.99-3.71.3-3.02-1.9-5.72-4.92-6.02-2.63-.26-5.29-.25-7.9.04-3.02.34-5.19,3.06-4.85,6.08s3.06,5.19,6.08,4.85c1.84-.21,3.71-.22,5.57-.03,1.51.15,2.94-.32,4.03-1.21Z"/>
      <path d="M228.28,160.34c-2.09-2.2-5.58-2.29-7.78-.19-1.55,1.47-23.01,2.86-28.25,2.86-1.83,0-3.15-1.24-4.81-3.33,2.12-.76,3.65-2.79,3.65-5.17,0-4.47-3.68-6.73-10.94-6.73s-10.94,2.27-10.94,6.73c0,2.42,1.57,4.47,3.74,5.21-1.65,2.07-2.96,3.29-4.78,3.29-5.25,0-26.71-1.39-28.25-2.86-2.2-2.09-5.68-2.01-7.78.19-2.09,2.2-2.01,5.68.19,7.78,3.22,3.06,27.36,5.89,35.83,5.89,5.69,0,9.45-2.97,12.04-5.84,2.59,2.88,6.36,5.84,12.04,5.84,8.48,0,32.62-2.83,35.83-5.89,2.2-2.09,2.29-5.58.19-7.78Z"/>
    </g>
  </g>
</svg>