<?xml version="1.0" encoding="UTF-8"?>
<svg id="Layer_2" data-name="Layer 2" xmlns="http://www.w3.org/2000/svg" viewBox="0 0 352.38 222">
  <defs>
    <style>
      .cls-1 {
        fill: #fff;
      }

      .cls-2 {
        fill: #e898a1;
      }
    </style>
  </defs>
  <g id="Layer_2-2" data-name="Layer 2">
    <g>
      <g>
        <path d="M322.86,84.82l9.68-9.68c11.82-11.82,11.82-30.98,0-42.79l-10.69-10.69c-11.82-11.82-30.98-11.82-42.79,0l-8.25,8.25c22.09,13.03,40.19,32.09,52.05,54.92Z"/>
        <path d="M29.52,84.82c11.86-22.83,29.96-41.89,52.05-54.92l-8.25-8.25c-11.82-11.82-30.98-11.82-42.79,0l-10.69,10.69c-11.82,11.82-11.82,30.98,0,42.79l9.68,9.68Z"/>
        <path class="cls-1" d="M201.4,11h-50.43C75.43,11,14.19,72.24,14.19,147.78v.44c0,34.67,28.1,62.77,62.77,62.77h198.45c34.67,0,62.77-28.1,62.77-62.77v-.44c0-75.54-61.24-136.78-136.78-136.78Z"/>
      </g>
      <g>
        <path d="M201.4,11c25.33,0,49.05,6.9,69.4,18.9l8.25-8.25c5.91-5.91,13.65-8.86,21.4-8.86s15.49,2.95,21.4,8.86l10.69,10.69c11.82,11.82,11.82,30.98,0,42.79l-9.68,9.68c9.79,18.85,15.33,40.26,15.33,62.97v.44c0,34.67-28.1,62.77-62.77,62.77H76.96c-34.67,0-62.77-28.1-62.77-62.77v-.44c0-22.71,5.54-44.12,15.33-62.97l-9.68-9.68c-11.82-11.82-11.82-30.98,0-42.79l10.69-10.69c5.91-5.91,13.65-8.86,21.4-8.86s15.49,2.95,21.4,8.86l8.25,8.25c20.35-12,44.07-18.9,69.4-18.9h50.43M201.4,0h-50.43c-23.53,0-46.68,5.61-67.46,16.28l-2.4-2.4c-7.79-7.79-18.15-12.08-29.17-12.08s-21.38,4.29-29.17,12.08l-10.69,10.69c-16.09,16.09-16.09,42.26,0,58.35l4.15,4.15c-8.54,18.97-13.02,39.8-13.02,60.72v.44c0,40.68,33.09,73.77,73.77,73.77h198.45c40.68,0,73.77-33.09,73.77-73.77v-.44c0-20.92-4.48-41.74-13.02-60.72l4.15-4.15c16.09-16.09,16.09-42.26,0-58.35l-10.69-10.69c-7.79-7.79-18.15-12.08-29.17-12.08s-21.38,4.29-29.17,12.08l-2.4,2.4C248.08,5.61,224.93,0,201.4,0h0Z"/>
        <path class="cls-2" d="M42.45,159.72c3.52-1.99,8.45-1.46,11.2,2.51,1.44,2.57,3.22,4.92,5.29,6.99,5.73,5.73,13.64,9.28,22.39,9.28,2.75,0,5.43-.36,7.98-1.02,5.06-1.32,9.26,1.9,10.4,5.98.74,2.64.2,5.65-2.23,8.03-.13.12-.26.25-.39.37-10.15,9.62-25.17,11.52-37.24,5.64h-.01c-12.25-4.6-21.1-16.35-21.47-30-.01-.18-.01-.36-.01-.54-.04-3.39,1.7-5.9,4.09-7.24Z"/>
        <rect x="43.41" y="99.98" width="106.22" height="63.33" rx="31.67" ry="31.67" transform="translate(-64.82 106.81) rotate(-45)"/>
        <path d="M144.91,88c-1.41,0-2.82-.54-3.89-1.61-1.32-1.32-2.78-2.5-4.33-3.5-2.55-1.65-3.28-5.05-1.64-7.6,1.65-2.55,5.05-3.29,7.6-1.64,2.21,1.42,4.27,3.09,6.14,4.96,2.15,2.15,2.15,5.63,0,7.78-1.07,1.07-2.48,1.61-3.89,1.61Z"/>
        <path d="M204.26,156.33c-2.09-2.2-5.58-2.29-7.78-.19-1.55,1.47-3.01,2.86-8.25,2.86-1.83,0-3.15-1.24-4.81-3.33,2.12-.76,3.65-2.79,3.65-5.17,0-4.47-3.68-6.73-10.94-6.73s-10.94,2.27-10.94,6.73c0,2.42,1.57,4.47,3.74,5.21-1.65,2.07-2.96,3.29-4.78,3.29-5.25,0-6.71-1.39-8.25-2.86-2.2-2.09-5.68-2.01-7.78.19-2.09,2.2-2.01,5.68.19,7.78,3.22,3.06,7.36,5.89,15.83,5.89,5.69,0,9.45-2.97,12.04-5.84,2.59,2.88,6.36,5.84,12.04,5.84,8.48,0,12.62-2.83,15.83-5.89,2.2-2.09,2.29-5.58.19-7.78Z"/>
        <path class="cls-1" d="M96.19,130.9c-1.24,0-2.48-.41-3.51-1.26-2.34-1.94-2.67-5.4-.73-7.74,3.61-4.36,8.3-8.39,18.12-8.39s14.51,4.03,18.12,8.39c1.94,2.34,1.61,5.81-.73,7.74-2.34,1.94-5.81,1.61-7.74-.73-2.21-2.66-4.07-4.41-9.65-4.41s-7.44,1.75-9.65,4.41c-1.09,1.31-2.66,1.99-4.24,1.99Z"/>
        <path class="cls-2" d="M309.93,159.72c-3.52-1.99-8.45-1.46-11.2,2.51-1.44,2.57-3.22,4.92-5.29,6.99-5.73,5.73-13.64,9.28-22.39,9.28-2.75,0-5.43-.36-7.98-1.02-5.06-1.32-9.26,1.9-10.4,5.98-.74,2.64-.2,5.65,2.23,8.03.13.12.26.25.39.37,10.15,9.62,25.17,11.52,37.24,5.64h.01c12.25-4.6,21.1-16.35,21.47-30,.01-.18.01-.36.01-.54.04-3.39-1.7-5.9-4.09-7.24Z"/>
        <rect x="202.75" y="99.98" width="106.22" height="63.33" rx="31.67" ry="31.67" transform="translate(343.7 405.66) rotate(-135)"/>
        <path d="M207.47,88c-1.41,0-2.82-.54-3.89-1.61-2.15-2.15-2.15-5.63,0-7.78,1.87-1.87,3.94-3.54,6.14-4.96,2.55-1.65,5.96-.92,7.6,1.64,1.65,2.55.91,5.96-1.64,7.6-1.55,1-3.01,2.18-4.33,3.5-1.07,1.07-2.48,1.61-3.89,1.61Z"/>
        <path class="cls-1" d="M256.19,130.9c-1.58,0-3.15-.68-4.24-1.99-2.21-2.66-4.07-4.41-9.65-4.41s-7.44,1.75-9.65,4.41c-1.94,2.34-5.41,2.66-7.74.73-2.34-1.94-2.66-5.4-.73-7.74,3.61-4.36,8.3-8.39,18.12-8.39s14.51,4.03,18.12,8.39c1.94,2.34,1.61,5.81-.73,7.74-1.03.85-2.27,1.26-3.51,1.26Z"/>
      </g>
    </g>
  </g>
</svg>