<?xml version="1.0" encoding="UTF-8"?>
<svg id="Layer_2" xmlns="http://www.w3.org/2000/svg" version="1.1" viewBox="0 0 512 512">
  <!-- Generator: Adobe Illustrator 29.8.1, SVG Export Plug-In . SVG Version: 2.1.1 Build 2)  -->
  <defs>
    <style>
      .st0 {
        fill: none;
      }

      .st1 {
        fill: #eaeaea;
      }

      .st2 {
        fill: #707070;
      }

      .st3 {
        fill: #777;
      }

      .st4 {
        fill: #8e8e8e;
      }

      .st5 {
        fill: #f4f4f4;
      }

      .st6 {
        opacity: 0;
      }

      .st6, .st7, .st8 {
        fill: #494949;
      }

      .st7 {
        opacity: .2;
      }

      .st9, .st10 {
        fill: #c4c4c4;
      }

      .st11 {
        fill: #c4c4c4;
      }

      .st12 {
        fill: #969696;
      }

      .st13 {
        fill: #fff;
      }

      .st14 {
        fill: #e2e2e2;
      }

      .st15 {
        fill: #2d2d2d;
      }

      .st10 {
        opacity: .7;
      }
    </style>
  </defs>
  <path class="st0" d="M84.8,512H0V0h512v512h-10c-3-16.3-6.9-32.5-9.7-48.8-2.6-15-1.6-30.2-8.9-44.1-12.6-24-42.6-38.6-62.7-55.2-1.6-1.3-7.1-6.5-7.1-8,1.1-5,3.8-9,1-13.9-2.8-4.7-21.9-23.1-22.2-24.7,3.4-8.8,8.8-18.1,11.6-27.1s3.2-15.1,2.7-18.3c-.3-2-2.6-5.3-3.2-7.7-5-21.1-7.7-38.4-15.8-59.2-4-10.2-7.7-20.9-12-31-1.5-3.7-6.7-11.1-7.3-13.7-1.1-4.9.1-10.7-1.3-16.7-5.5-23.3-27.1-49.3-49.1-58.8-9.9-4.3-21.2-5.2-31.1-8.8-11.3,0-22.1,5.5-33,6.9-14.8,1.9-28.9.2-43.6,6.3-14.1,5.9-37.5,26.5-47.7,38.2-9.3,10.7-8.5,29.5-5.3,42.7,1,4.1,5.2,12.9,5.4,15.4s-1.7,4.3-1.5,6.6c.5,5.1,4.2,3.9,5.6,5.6s6.9,13.6,6.9,14.8c-4.3,3.1-8-4.7-11-1,1.9,6,5.8,5.6,11,7-1.6,4.5-3.5,8.8-6.2,12.8-2.1,3.2-6.7,6.7-8,10-4.6,12.2,10.1,17.8,18.7,21.7l.7,16.3,7.7,7.3c-1.6,3,.2,6.4,0,8.7-.3,2.5-19,26.2-22.1,29.4-8.7,8.9-14.7,10.3-24.5,15.9-15,8.7-37.6,26.1-44.9,42.1-8.8,19.1-8.9,45.3-12,66l1.9,63.3Z"/>
  <path class="st9" d="M112.8,512c2.7-14.9,9.1-28.8,14-43,2.9,1.3.8,5.8,1.1,8.3.3,2.6,1.3,7.4,3.9,8.7.7-9.6.5-20.2,3.1-29.4,3.8-13.3,15.7-28.8,25.3-38.6,4.8-4.9,10.4-9,16-13,1.6,0,6.7,11.7,8,13,1.7,1.7,5.5.3,8.5,2.5,4.2,3.1,12.5,15.3,15.8,20.2,3.9,5.8,6.4,13.3,12.1,17.3.6-2.1-.7-2.7-1.5-4-4.8-8.6-19.1-32.6-27.1-36.8-2.4-1.3-5.4-.8-6.2-1.3s-4.6-10.8-8.1-11.3c.6-1.2,12.2-8.5,14.3-9.7,5.6-3.3,10.6-5.6,15.4-8.8,2.1-1.4,4.9-2.4,6.9-4.4,8.2-7.8,12.3-20.7,18.8-29.7.8,3.3,2.3,8.2,4.8,10.7s10.8,7.8,10.6,3.8-4.5-4.3-5.4-5.6c-4.7-6.3-8.8-18.6-10.7-26.4-.4-1.7-1.3-4.5.6-5.5,4,5,9.6,7.8,14.4,11.6,9.8,7.7,19.1,16,29.8,22.3,1.8,1,13,5.7,13.1,6.6-3.1,5.3-3.7,19.4-6.4,23.5-1.2,1.8-3.9,1.4-5.2,2.3s-3.1,5.1-3.3,6.3c-.6,5.6,5,7.4,5.1,9.9,0,2.5-3.6,2.7-4.6,4.5-3.1,6,3.2,8.1,7.5,10.5-2.2,7.3-17.3,8.7-23,12.9-3.1,4.2-2.2,10.4-4.7,14.3s-3.3,2.6-4.7,4.3c-2.1,2.6-3.1,8.9-5.5,10.4-1.3.8-7.2,1.4-9,1.1-6.5-.9-11.2-3.6-18.5-3.5-3.4,0-10.4.1-12.5,2.9,6.2,2,13.4.3,19.7,1.7,5.8,1.3,9.3,5.2,15.7,3.9,1.7-.4,2.7-1.9,4.5-1.6-.6,7-8.6,7.2-13,10.5-1.4,1-8.5,8-6.9,9.5,4,.9,5.7-3.7,7.6-4.9,3.7-2.3,7.6-2.2,10.3-3.7,10.1-5.4,6.2-16.4,12-24.7.8-1.2,4.5-3.5,4.9-4.5,1.5-3.4.6-9.1,3-11.8,3-3.4,14-4.5,17.9-7,1.9-1.3,6-6.8,6.1-9,.3-5.4-7.5-4.9-8-9.4,3.2,1,5.3-2,7.5-2.5,11-2.9,35.2,1.5,44.8,7.7,4.2,2.7,9.2,8.3,13.3,10.7,2.9,1.6,6.6,1.5,8.8,4.1,4.7-4.3-2-12.9-5.8-15.6-5.3-3.8-12.2-5.4-18.3-7.2-2.6-.8-2.5-1.3.1-1.1,5.9.5,12.5,1.4,17.8,4.2s16.8,14.3,16.5,22.4-3.5,8-3.6,12.2c-.1,3.2,1.3,6.9,1.2,10.4-.2,5.4-2.5,8.9-4,13.8s-1.1,2.4,1.1,2.1c10.2-11,5.7-24,9.5-37l3.9,16.6,3.1,3.4c-1.6-7.9-.9-19.3-3.8-26.7-1.1-2.8-8.3-12.3-10.7-14.3-10.9-9.4-19.3-9.9-32.8-12.1-5.4-.9-12.4-4.1-17.2-1.9s-2.4,2.8-2.6,2.9c-4.4,2.1-18-12.2-23.3-.8-1.5-2-5.8-6.5-3.3-8.8,2.3-2,13.5-4.4,11.8-10.2,7.3,0,15.4-.3,22.4,1.9,3.3,1.1,5.5,2.9,8.2,3.8,15,5.2,33.4,3.6,47.1,11.8,3,1.8,5.4,4,6.7,7.4v1.1c-4.3,2.1-6.6,7.5-5.6,12.3.1.7,5.1,4.3,5.7,5,2.6,3,4.9,10,5.8,14.2,5,25-10.4,43.4-20.5,64.5H112.8ZM270.1,383.3c-1.3-1.4-7-5.7-8.8-6.7-1.3-.8-15-7.3-14.9-3.1,0,1,14.2,7.3,17.2,9.5,3.5,2.7,6.4,6.7,9.3,10,2.3.5,1.7-2.1,1.3-3.3-.4-1-3.3-5.5-4.1-6.4ZM251.5,440l-32.4-56c-2,1.4-1.5,2.1-1.1,4,.7,3.4,4.7,12.2,6.4,15.6,3.2,6.3,18.4,31.4,23.1,34.9,1.4,1,2,1.9,4,1.5ZM213.6,391c-2.8-.6-2.2,1.4-2,3.5,1.4,15.8,11.5,19.9,20,31,7.3,9.7,13,21.1,13.5,33.5,1.9-1.4,1.6-3.3,1.4-5.4-.7-9.9-6.6-20.8-12.5-28.5-8.1-10.7-21.1-19-20.4-34.1ZM230.5,460c-1.1-7.7-5.3-15.7-9.2-22.3-8-13.8-18-22.6-27.2-34.7-.7-1-1.6-4.1-2-4-2.5.9-.5,2.8,0,3.9,4.7,8.6,15.7,18.4,21.8,27.2,5.1,7.3,12.3,20.1,15,28.4.3.8-1.4,2.3,1.5,1.5Z"/>
  <path class="st9" d="M188.6,285.2s-6.5-2.9-2.7-5.7c3-2.2,18.3-2.8,21.8,2.4,2.5,3.9-12.9,2.5-19.1,3.3Z"/>
  <path class="st2" d="M84.8,512l-1.9-63.3c3.1-20.7,3.1-46.8,12-66,7.4-15.9,29.9-33.4,44.9-42.1,9.8-5.7,15.8-7.1,24.5-15.9,3.1-3.2,21.8-26.8,22.1-29.4.3-2.2-1.5-5.6,0-8.7l-7.7-7.3-.7-16.3c-8.5-3.9-23.3-9.5-18.7-21.7s5.9-6.8,8-10c2.6-4,4.5-8.3,6.2-12.8-5.2-1.5-9-1-11-7,2.9-3.7,6.7,4.1,11,1,0-1.2-6.1-13.8-6.9-14.8-1.3-1.6-5-.5-5.6-5.6-.2-2.2,1.6-4.2,1.5-6.6s-4.4-11.3-5.4-15.4c-3.1-13.2-4-32,5.3-42.7,10.2-11.7,33.6-32.3,47.7-38.2,14.7-6.1,28.7-4.4,43.6-6.3,10.9-1.4,21.6-7,33-6.9,10,3.7,21.2,4.6,31.1,8.8,22,9.4,43.6,35.5,49.1,58.8,1.4,6,.2,11.8,1.3,16.7.6,2.6,5.7,10,7.3,13.7,4.2,10.1,8,20.8,12,31,8.1,20.8,10.8,38.1,15.8,59.2.6,2.4,2.9,5.6,3.2,7.7.5,3.2-1.6,14.9-2.7,18.3-2.8,9-8.2,18.3-11.6,27.1.3,1.6,19.5,20,22.2,24.7,2.8,4.8,0,8.9-1,13.9,0,1.6,5.5,6.7,7.1,8,20.1,16.5,50.2,31.2,62.7,55.2,7.3,13.9,6.3,29.1,8.9,44.1,2.8,16.3,6.8,32.5,9.7,48.8h-3c-4.1-18.2-8.2-36.4-11.7-54.7-1.4-7.6-1.7-16-3.4-23.7-3.6-16.8-16.3-28.4-28.8-39.1-12.3-10.6-26.2-19.4-38.9-29.5l24.3,43,.5,2.7c18.3,30.5,24.4,66.1,25.1,101.3h-4c.1-10.7-.6-21.7-2.1-32.4-5-35.1-24.1-73.5-42-103.9-1.3-2.3-6.1-10.7-8.3-10.7-3.8,7.9-6.7,16.1-9.6,24.2-.3.8-1.5.8-1.8,1.6-.6,1.4-1.2,5-.9,6.5,20.6,35.1,35.9,73.8,39.8,114.7h-3c-4.6-26.2-11.2-52.2-21.8-76.7-4.2-9.8-10-21.4-15.7-30.3-.6-1,.2-2.5-2-2-4.3,10.5-4.2,21-11.1,30.5,10.4,18,6.8,38.4-2.2,56.2l-14.2,22.3h-4c10.1-21.1,25.5-39.5,20.5-64.5-.8-4.2-3.2-11.1-5.8-14.2s-5.6-4.3-5.7-5c-1.1-4.8,1.2-10.1,5.5-12.3v-1.1c-1.2-3.3-3.7-5.6-6.7-7.4-13.7-8.2-32.1-6.6-47.1-11.8-2.7-.9-4.9-2.8-8.2-3.8-7-2.2-15.1-2-22.4-1.9,1.8,5.9-9.5,8.2-11.8,10.2-2.5,2.3,1.7,6.7,3.3,8.8,5.2-11.4,18.9,2.9,23.3.8.2,0,.6-2,2.6-2.9,4.8-2.1,11.8,1,17.2,1.9,13.5,2.3,21.9,2.7,32.8,12.1,2.4,2,9.6,11.5,10.7,14.3,2.9,7.4,2.2,18.7,3.8,26.7l-3.1-3.4-3.9-16.6c-3.8,13,.7,26-9.5,37-2.2.3-1.6-.6-1.1-2.1,1.5-4.9,3.8-8.3,4-13.8s-1.3-7.2-1.2-10.4c.2-4.2,3.5-9.5,3.6-12.2.3-8-9.8-18.8-16.5-22.4s-11.9-3.7-17.8-4.2-2.7.4-.1,1.1c6.1,1.8,13,3.5,18.3,7.2,3.9,2.7,10.5,11.3,5.8,15.6-2.3-2.6-6-2.5-8.8-4.1-4.1-2.4-9.1-8-13.3-10.7-9.6-6.2-33.8-10.6-44.8-7.7-2.1.6-4.2,3.5-7.5,2.5.5,4.5,8.3,4,8,9.4-.1,2.2-4.1,7.7-6.1,9-4,2.6-15,3.7-17.9,7-2.4,2.7-1.5,8.4-3,11.8-.5,1-4.1,3.3-4.9,4.5-5.9,8.3-1.9,19.3-12,24.7-2.7,1.4-6.7,1.3-10.3,3.7-1.9,1.2-3.5,5.8-7.6,4.9-1.6-1.6,5.6-8.5,6.9-9.5,4.5-3.3,12.4-3.5,13-10.5-1.8-.3-2.8,1.2-4.5,1.6-6.4,1.3-10-2.5-15.7-3.9-6.3-1.5-13.5.3-19.7-1.7,2.1-2.8,9.1-2.8,12.5-2.9,7.3-.2,12,2.6,18.5,3.5,1.8.2,7.7-.3,9-1.1,2.3-1.5,3.4-7.8,5.5-10.4s3.3-2.1,4.7-4.3c2.5-3.9,1.6-10.1,4.7-14.3,5.7-4.3,20.8-5.6,23-12.9-4.3-2.4-10.6-4.5-7.5-10.5.9-1.8,4.6-2,4.6-4.5,0-2.5-5.7-4.4-5.1-9.9.1-1.2,2.5-5.7,3.3-6.3,1.3-1,4-.5,5.2-2.3,2.7-4.1,3.3-18.2,6.4-23.5,0-.8-11.3-5.5-13.1-6.6-10.7-6.3-20-14.7-29.8-22.3-4.8-3.8-10.4-6.6-14.4-11.6-1.9,1.1-1.1,3.8-.6,5.5,1.9,7.8,6,20.1,10.7,26.4.9,1.2,5.4,5.2,5.4,5.6.2,4-9.8-3-10.6-3.8-2.5-2.5-4-7.3-4.8-10.7-6.5,8.9-10.6,21.8-18.8,29.7-2,1.9-4.8,2.9-6.9,4.4-4.7,3.2-9.8,5.5-15.4,8.8s-13.7,8.5-14.3,9.7c3.6.5,7.6,10.9,8.1,11.3s3.8,0,6.2,1.3c8,4.3,22.3,28.3,27.1,36.8.7,1.3,2,2,1.5,4-5.7-4-8.2-11.6-12.1-17.3-3.3-4.8-11.6-17.1-15.8-20.2s-6.7-.8-8.5-2.5c-1.3-1.3-6.4-13.1-8-13-5.6,4-11.2,8-16,13-9.6,9.8-21.5,25.3-25.3,38.6-2.6,9.2-2.4,19.9-3.1,29.4-2.6-1.3-3.6-6-3.9-8.7-.3-2.6,1.9-7-1.1-8.3-4.8,14.2-11.3,28.1-14,43h-4l8.9-30.5c8.9-20.2,15.8-40.5,29-58,.3-.4,6.3-6.4,3.5-5.5-3.1,1-15.9,13.4-18.4,16.5-3.4,4.1-12.3,22.8-13.5,23.5-2.3,1.3-1.4-2.9-1-4,8.3-25.7,53.1-73.4,78.3-83.5,1.6-.6,2.4-1,2.1,1.1l-20.9,14.1c-9.3,7.1-16.8,15.8-25,23.9.8,4.4,2.1,0,2.7-.5,8-6.7,26.1-26.9,34.8-29,.9-.2,3.7-.7,3.4.9-10.8,4.4-18.6,14.7-26.9,22.5l1.5.5c4.3-3.7,9.3-6.9,14.2-9.8,13.1-7.9,22.3-10.3,32.9-22.1,4.1-4.6,7.6-11.7,11.5-18.4,1.1-1.9,4.2-4.6,4.6-6.4.9-3.7-2.1-6.8-2.7-9.8s-.2-7.2-.5-10.3c0-1.1,0-1.3-1.1-2.1-6.8,4.9-23.7,5.5-29.5-.8-.3-.3-4-5.4-4.1-5.8-1.8-5.4-.3-12-.4-17.5-4.3,6.8-8.4,15.2-14.1,20.9-24,24.3-57.3,25.9-70.8,62.1-7.8,20.9-5.9,45.7-7.1,67.6l1.6,6.4c4.5-17.4,13.6-33.2,23.5-47.9,10.6-15.6,47.2-60.8,64.2-65.6,1-.3,3.5-1.1,4.1,0-17.3,8.5-29.9,24.2-42.9,38l2,1.5c0-1,.5-1.7,1.1-2.3,5.7-5.4,11.5-11.6,19.3-13.6,1.7,2.9-3.3,3.1-4.9,4.1-4.1,2.7-9.5,7.6-12.6,11.4s-2.4,1.6-2,3.5l16.9-11.5c3.3-1.2,6.6-3.1,9.9-4.1s2.4-1,2.1,1.1c-7.5,3.5-14.4,6.8-20.9,12.1-23.5,19.4-61.3,76.2-60,106.9.3,6.6,2.5,13.8,2,20.5h-5l-3.9-27.6-.7-13.1c.5-25.7-1.5-55.3,4.2-80.4.6-2.7,4.3-5.4.4-6.9-7.3,22-10.5,45.2-11.7,68.4-.7,14,.3,28.4.7,42.2s-.8,11.7,0,17.5h-3ZM327,95.4c-19.8-14-40.6-16.6-63.7-11.1-9,2.1-28.8,7.4-35.1,13.8-6.6,6.7-3.1,12.4,1.2,19.6,17.1,28.9,47.3,51.8,79.1,61.8,21.6,6.8,47.1,6,64.9,21.5.4-2-.4-2.7-1.4-4-8.9-12.2-34.2-17.1-48.1-22.8s-20.3-8.5-28.2-13.8c-1.5-1-10.7-8.3-11-8.9-.4-1-.3-3.2,1.5-2.5,2.6,1.1,9.1,7.8,13,10,15.4,9,33,13.1,49.4,19.5,9.3,3.6,20.5,8,25,17.5,2.9-.6-1.5-5.8-2.3-6.7-13.7-14.4-32.4-18.3-49.6-26.8-15.5-7.6-57.7-30.8-63.4-46.5-.4-1-.6-1.9-.5-3,.7-.8,7.1,9.4,8,10.5,10.5,12.6,46.7,31.2,62.5,38.4,10,4.6,20.8,7.4,30.3,13.1l-10.2-15.3c-9.5-14.1-24-23.5-36.3-34.7-1.3-1.2-8.1-7.7-8.4-8.5-.5-1.2.3-2,1.5-1.5s6.1,6.3,8,8c18,15.5,36.4,28,47.4,50.3l16.9,18.7c-4.1-19.7-16.7-36.8-30.9-50.5-5.5-5.3-11.7-9.5-17.5-14.5-10.2-8.8-20.4-17.6-30.5-26.5-.5-2.6,1.4-1,2.9,0,11.3,8.2,24.6,19.3,35.5,28.4,9.7,8.1,19,16.6,27.5,26-2.3-12-6.7-22.1-13.1-32.3-5.8-9.2-15.3-21-24.2-27.3ZM232.5,91c-17.8,1-34.2,9.9-46.9,22,4.4-1.6,11.1-.8,15.3,1.2,1.7.8,1.1,2.8,3.1,2.9,5.5.2,10.6-5,16.5-4.6,2.1-1.2-.7-4.2-.5-6.7.2-3.8,3-8.5,6-10.9l6.5-4ZM233.5,172c-2-.6-2.2-3.2-2.5-5-.6-3-1.5-8.6-1.5-11.5,0-5.8,4.4-19.5,3.9-22.8-.3-1.8-7.7-14-9.2-16.8-.5-.8-.6-2-.6-2.9h-1c-.3,4.5-4.8,2.8-7,3.6-3,1.1-7.7,6.3-11,6.1s-10.1-6.7-15.7-7.6c-.6,0-7,.2-7.3.4-.7.4-1.1,2.1-2.1,2.9-3.4,3-12.2,9.1-14.5,11.9-3.2,4-4.7,22.6-4.3,28.2,0,1.1.4,4.5,2,4.5.1-10.3,6.4-19.2,12-27.5-3.1-1.6-5.4,3.4-9,2.5.3-2.8,7.6-6.5,8-7,1.7-2.4-3.4-1.2-1.5-4,1.5-2.3,4.9-3.2,7.5-3-3.1-5.1,2.4-5.5,6.6-5.8s12.5.7,11.3,6.3c-1.8.8-3.7-1.3-5.9-1.9-2.7-.7-6.3-.5-9.1-.6,1.2,2.4,7.6,2.1,8.8,4.2.6,1.1.1,2.6.2,3.8-3.2-1.2-8.5-.5-10,3,2.1.1,7.6-3.3,7,1-11.3.6-14.6,7.9-18,17.5-3.3,9.2-7,27.4-3.5,36.6,1.3,3.4,7.2,5.3,8.5,9.5l-4.5-2.5c-.8,2.9,4,6.9,5.3,9.7s1.3,4.1,1.2,6.3c1.8.2,1.1-3.4.9-4.4-.3-2-1.1-3.8-1.9-5.6.6-.5,3.4.9,4,1.5,1.5,1.6.3,12.1-.2,14.8-1.7,8.3-11.8,19.3-16.2,26.8-3,7.5,10.6,11.3,14.8,14.1s3.8,3.8,3.9,4.1c1.3,3.2.2,12.9-.3,16.8,6.8-2.9,15.2-3.1,21.9.5-5.7,2.2-11.8-2.4-17.2.7s-2,1.1-1.7,2.8c5.6,2.5,8.4-1.3,13.6-1.9,5.1-.6,10.3.7,15.4-1.1.1,1.6.2,2.3-1,3.5-4.8,4.6-20.2-2.1-23.6,5-2.1,4.3,5.9,6.8,7.2,10.5,1.6,4.7-.8,5.4-1.4,8.6-.1.6,1.1,8.3,1.4,9.1,6,18.1,25.2,3.7,36.2.7,10.5-2.8,10.7,3.5,17,8.7,14.5,12.2,30,19.4,49.5,16.9l14.6-39.4c.7-2.5-1.9-.7-3.1-2.1s-1.3-3.1-1.6-4.2c-3-9.7-4.7-20.9-7-31-.4-1.7-.2-3.5-.2-5.3l-2.4,6c-7.6,15.6-37.8,38.8-54,44.9-1.8.7-2,1.6-3.5-.5l32.9-23c5.5-6.5,13.8-11.3,18.9-18,1.1-1.4,6.7-10.8,6.8-11.8,0-2.8-5.7-19.9-7-23.9-7-20.5-18.8-45.6-29.5-64.5-4.1-7.3-9-10.9-14.2-16.8-5.2-5.9-10.4-11.9-15.9-17.5-3,12.1-4,23.8-1,36ZM291.1,186.3c-2.4-2.6-8.4-5.6-11.6-7.9-1.9-1.4-7.3-6.9-8.6-7.4s-1.8.2-1.5,1.5c15.3,25.9,28.3,54.3,35.3,83.7,2.6,11.1,3.8,22.7,6.3,33.7.7,3.3,1.8,9,4.3,11.2l2-2.6-1-2.4c3.1-1.9,8.4.5,10.3,0,1.2-.4,5-7.3,4.6-7.9l-2,.5-1-1c3.1-12.9,3.7-27.8,2.9-41.1-.9-16.3-9.4-44.2-23.6-53.5-3-1.9-9.9-2.7-13.3-5l8.7,18.7c7.9,19.5,12.9,39.8,15.2,60.8.8,6.7.9,13.3,2,20,.4,2.1-.5,1.8-1.5.5-3-29.2-7.5-56.9-19-84-1.9-4.4-5.9-14.6-8.8-17.7ZM334.3,189c-9.1-1.5-18.9-3-27.7-5.7-9.7-3-18.7-7.8-28.2-11.3,10.7,9.6,23.8,17.6,38.4,19.1l17.5-2.1ZM373,205.3c-3-3.5-10.4-7.9-14.7-9.8-5.1-2.2-12.6-5.2-17.9-4.5-.2,2,2.4.4,3.8,1.2s.7,2.2,1.7,2.8c1-5.4,7.3,4,8.9,6.1,6.2,8.4,12.4,21.6,15.3,31.7.7,2.6,3.6,9.1.3,10.2-4.2-15.3-9.6-32.6-21-44l3.2,13.8c1.2.7,2.3,1,3.2,2.2,5.6,7.4,12.4,20.6,14.4,29.6.4,1.9-.3,1.3-1.8,1.3-3.1-11.2-8.1-22.1-15.5-31-2,2.9-1.3,6.5-2.2,9.8-.5,1.9-3,5.2-3,5.7,0,1.6,8.4,11.9,10,14.6,3.3,5.8,5.5,12.3,6.6,18.9,2,1.6,6.1-15.5,6.5-17,1-3.2,4-7.7,4.4-10.6.6-3.7,1.3-16.1,1.1-19.9,0-2-2.2-9.9-3.3-11.3ZM344,197.3c-.6-.7-4.2-2.7-5.3-3.2-8-3.7-15.8.2-24.3-.1l7.5,9c14.4-15.8,31-2.3,21.4,16-4.2.6-1-6.3-1-8.5,0-6-4.5-11-10.8-9.8-3.5.7-5,3.5-8.2,4.3,6.4,10.6,10.8,22.6,12,35,9.9-7.8,17.1-32.5,8.7-42.7ZM384.2,207.9l-5.9-1.9c-1.3,1.5,2.8,9.6,2.7,11.3,0,3.1-2,8.7-2.3,12.8-.9,10.9-1,8.5-4.7,18.2-1.9,5-1.9,10.2-3.5,14.5-1.5,4-5.6,7-6.9,10s-.9,7.1-1.7,10.3c-1.4,5.8-4.8,7.7-3.6,15.4,8,1.4,16.4,5.2,23.3,9.6.7.4.8,1.5,1.4,2l7.3,5c2.6-10.5,8.1-20.1,11-30.5,1-3.5,3.7-11.5,0-13.5l-3,5v-16.5s-2-13.4-2-13.4c.2,6.6-2.9,12.7-4.5,19s-.2,9.6-3.4,12c-2.7-12.4,4-25.3,5.9-37.4-2.6-11.3-4.9-22.6-9-33.6l-1.1,1.9ZM360.3,258c-1.7-9.6-8.4-17.1-13.5-25l-10.5,12.6-1,28.4,6.1-13.3c5.5-8.9,11.7-12.3,18.8-2.7ZM331.4,296c7.2-.3,14.4.3,21.5,1.8,1.8-.2.8-6.9,1.5-9.2,2.1-6.3,5.8-8.3,5.7-17.1,0-8.8-6.4-22.5-14.8-11v1s2.1,1,2.1,1l-1.1,3.5c2.7-.6,5.7-.1,8.5,0,1.6,0,2.6.6,1.5,2-2.6.9-6.7,2.4-9.5,1.6-2.3-.7-3.2-2.6-5.5-2.6-1.6,11-.9,21-10,29ZM375.3,335c0,0,.7,0,1-.6,3.1-6.3,6-13.1,5.8-20.2l-14.9-7.1c-1.5,6-2.4,13.3-4.5,19-.6,1.7,0,2.4-2.4,2-.7-3.8,4-20.8,2.8-22.8-.3-.4-2.8-1-3.3-2.2-2.6,2-1.1,5.5-1.6,8.4-1.1,6.8-2.1,14.7-3.8,21.3-.4,1.8.7,2.8-2.1,2.3l2.9-31.9-31.6-3.4c-2.4,1.1-3.5,3.3-4.5,5.6-6.5,14.4-10.4,33.1-16.6,48.4-.7,1.7-2,2.9-2.6,4.4-2.9,6.9-5.8,13.9-8.6,20.9,4-1.3,8.2-2.7,12.5-3,13.3-.9,19.8,5.1,31.2,8.8,4.5,1.4,10.5,1.7,15.2,3.2l2-9.5,6-15.5c2,8.2-3.1,16.9-5.9,24.5,0,1.2,10.8,2.5,13,3.1,4.9,1.4,14.3,6.2,18.2,9.4s1.9,4.5,4.7,4c2.7-7.7,5.3-15.5,8.5-23,3.8-8.9,10.1-19.1,13.2-27.8.9-2.6,1.6-7.4.6-9.9-.6-1.4-.2-1.5-2.2-1.2l-9,25c-1.7,0-2.2.5-2-1.5.4-3.2,2.5-10.1,3.5-13.5.5-1.6,1.6-3.1,2.5-4.5.2-2.9-1.2-.9-1.8.2-4,6.8-3.8,12.9-5.9,20.1-.9,3-5.5,16.6-6.7,18.2s-1.2,1.3-1.5,1l4-13.4-4-4.6-4,20c-3.4-1.7-.1-6.9-1-10-4.1-.7-.6,7-5,6l1-11-3,11.5-3,2.5,12-60.5c.2-2.8-.1-2.5-1.1-.1-3.7,8.9-8.2,17.6-8.9,27.6-2.8.6-2.2-1.4-2-3.5.4-4.8,2.2-11.3,3-16.5-7.1,13.1-5.7,28.9-10.7,42.8-.3.8-3.7,9.1-5.3,7.2l16-69,3,.5c-.9,6.2-2,12.3-3,18.5ZM384.3,353l7.7-28.5-3.2-3.5c-1.9,3.1-1,7-1.7,10.3-2.6,12.6-8.8,24.5-8.7,37.7l5-9c-.4,5.6-2.8,11.5-1.5,17,1.6-1.1,1.3-2.8,1.7-4.3,1.6-6.1,3-13.9,3.8-20.2.1-1.1,0-2.5-1-.9l-2,1.4ZM240.2,323.4c-2.2-1.4-4.8-2.4-6.6.1,10.1,11.3,23.1,19,35.7,27.2,6.3,4.1,13.8,10,20.9,13.2s1.7,1.8,3.3-.4l-11.2-6.5c-2-2.1-5.3-4.7-7.8-6.4-2.7-1.9-6-3-8.8-5.1-8.2-6.1-17.5-17-25.4-22.1ZM394.1,342.8l4.8-11.4-4.2-4.5c-.3,4.5-3.9,10.8-4.5,14.5-.3,2.3,3,1.9,3.9,1.3ZM403.2,334c-2.2-.4-2.3,1-3,2.5-2.6,4.9-4.1,10.3-5.9,15.5,2.9.6,1.6-.9,2.3-2.2,2.9-5,6.6-9.7,6.7-15.8ZM299.4,346c-8.7,0-17.3.3-25.9-1l20.5,14c1.4,0,6-12.5,5.5-13ZM382,405.4c-12.4-11.4-28.2-11.1-43.1-14.9-15.7-4-23.9-13.4-41.8-9.4-2.4.5-4.8,1.7-6.6,3.4,10.2,2.4,20.6.8,30.8,4.2s3.5,2.3,5.2,2.8c13,4.1,27.1,2.8,39.5,7.4,8.2,3.1,17.6,8.5,18.4,18.1,1.5.2,1.8-3.6,1.7-4.4-.3-3.3-3.6-4.3-4-7.3ZM111,444.8l-.2-4.8c-3.3,7.1-5.1,15-8.1,22.2-.3.7-1.7.7-1.9,1.4-.7,2.9.4,7.2,0,10.3,2.9.5,1.7-.6,2.1-2.3,2.4-9,4.9-18.2,9.9-26.2l-1.8-.7Z"/>
  <path class="st12" d="M103.8,512c.5-6.7-1.7-13.9-2-20.5-1.3-30.7,36.4-87.5,60-106.9,6.4-5.3,13.4-8.6,20.9-12.1.3-2.2-.6-1.6-2.1-1.1-3.2,1-6.6,2.9-9.9,4.1l-16.9,11.5c-.4-1.9,1-2.4,2-3.5,3.1-3.8,8.6-8.7,12.6-11.4s6.6-1.3,4.9-4.1c-7.9,2-13.6,8.2-19.3,13.6-.7.7-1.1,1.4-1.1,2.3l-2-1.5c13-13.8,25.7-29.5,42.9-38-.6-1.1-3-.3-4.1,0-17,4.8-53.7,50.1-64.2,65.6-10,14.7-19,30.5-23.5,47.9l-1.6-6.4c1.2-21.9-.7-46.7,7.1-67.6,13.5-36.2,46.8-37.8,70.8-62.1,5.7-5.7,9.8-14.1,14.1-20.9,0,5.5-1.4,12.1.4,17.5.1.3,3.8,5.4,4.1,5.8,5.8,6.2,22.7,5.7,29.5.8,1.2.8,1,1,1.1,2.1.2,3.1-.3,7.1.5,10.3s3.6,6.2,2.7,9.8c-.4,1.9-3.5,4.5-4.6,6.4-3.9,6.7-7.5,13.8-11.5,18.4-10.5,11.9-19.8,14.3-32.9,22.1-4.8,2.9-9.9,6.1-14.2,9.8l-1.5-.5c8.4-7.8,16.1-18.1,26.9-22.5.3-1.7-2.5-1.2-3.4-.9-8.6,2.1-26.7,22.2-34.8,29-.6.5-2,4.9-2.7.5,8.2-8.2,15.8-16.9,25-23.9l20.9-14.1c.3-2.1-.5-1.7-2.1-1.1-25.2,10.2-70,57.9-78.3,83.5-.4,1.1-1.3,5.3,1,4,1.2-.7,10.1-19.3,13.5-23.5,2.6-3.2,15.3-15.5,18.4-16.5,2.8-.9-3.2,5.1-3.5,5.5-13.2,17.5-20.2,37.8-29,58l-8.9,30.5h-5ZM174.7,348c-1.8,0-3.5-.1-5.2.2-13,2.7-41.4,39.2-50,50.9-1.9,2.6-17,23.4-15.6,24.9.8.8,2.3.2,3.2-1.3,15.5-25.1,34.9-49.4,56.3-69.6l11.3-5.2ZM148.7,352c-1.1-1.1-8.5,6.8-9.5,8-3.8,4.4-26.4,36.5-23.4,40,1.6,1.9,2.1-1.3,2.4-2,3.5-7.2,6.1-14.2,11.3-20.7l19.2-25.3Z"/>
  <path class="st12" d="M462.1,512h-25c-3.9-40.9-19.1-79.6-39.8-114.7-.3-1.5.4-5.1.9-6.5.3-.8,1.5-.7,1.8-1.6,2.9-8.2,5.8-16.3,9.6-24.2,2.2,0,7,8.5,8.3,10.7,17.9,30.5,36.9,68.8,42,103.9,1.5,10.6,2.2,21.7,2.1,32.4Z"/>
  <path class="st9" d="M466.1,512c-.7-35.2-6.8-70.8-25.1-101.3l-.5-2.7-24.3-43c12.7,10.1,26.6,18.9,38.9,29.5,12.5,10.7,25.2,22.4,28.8,39.1,1.6,7.6,1.9,16.1,3.4,23.7,3.5,18.3,7.6,36.6,11.7,54.7h-32.9ZM467.1,416c-2.7-.4-3.4,2.8-3.8,4.7-1.2,6.1-2.7,16.6-3.2,22.8-.2,2.8.1,5.7,0,8.5,1.1,1.3,1.9.2,2-1.5.4-11.2,2.5-23.7,5-34.5Z"/>
  <path class="st9" d="M367.3,512l14.2-22.3c9-17.8,12.5-38.2,2.2-56.2,7-9.5,6.8-20,11.1-30.5,2.1-.5,1.3,1,2,2,5.7,9,11.5,20.6,15.7,30.3,10.5,24.5,17.2,50.4,21.8,76.7h-66.9Z"/>
  <path class="st9" d="M98.8,512h-11c-.8-5.8.2-11.8,0-17.5-.4-13.8-1.4-28.2-.7-42.2,1.1-23.2,4.4-46.3,11.7-68.4,3.8,1.4.2,4.1-.4,6.9-5.7,25.2-3.6,54.7-4.2,80.4l.7,13.1,3.9,27.6Z"/>
  <path class="st3" d="M251.5,440c-2.1.4-2.7-.4-4-1.5-4.7-3.4-19.9-28.5-23.1-34.9-1.7-3.4-5.7-12.2-6.4-15.6-.4-2-.9-2.7,1.1-4l32.4,56Z"/>
  <path class="st3" d="M213.6,391c-.7,15.1,12.3,23.4,20.4,34.1,5.8,7.8,11.7,18.6,12.5,28.5.2,2,.5,3.9-1.4,5.4-.5-12.4-6.1-23.8-13.5-33.5-8.5-11.1-18.5-15.2-20-31-.2-2.1-.8-4.1,2-3.5Z"/>
  <path class="st3" d="M230.5,460c-2.9.8-1.3-.7-1.5-1.5-2.7-8.4-9.9-21.1-15-28.4-6-8.7-17-18.6-21.8-27.2-.6-1.1-2.6-3,0-3.9s1.3,3,2,4c9.2,12.1,19.3,20.9,27.2,34.7,3.8,6.6,8.1,14.7,9.2,22.3Z"/>
  <path class="st3" d="M270.1,383.3c.8.9,3.7,5.4,4.1,6.4.4,1.2,1.1,3.8-1.3,3.3-2.9-3.3-5.8-7.3-9.3-10-3-2.3-17.2-8.6-17.2-9.5-.2-4.2,13.6,2.3,14.9,3.1,1.8,1,7.5,5.3,8.8,6.7Z"/>
  <path class="st1" d="M233.5,172c-3-12.2-2-23.9,1-36,5.5,5.6,10.7,11.6,15.9,17.5,5.2,5.8,10.1,9.5,14.2,16.8,10.7,18.9,22.4,44,29.5,64.5,1.4,4,7,21.1,7,23.9s-5.7,10.4-6.8,11.8c-5.2,6.7-13.5,11.5-18.9,18l-32.9,23c1.5,2.1,1.7,1.2,3.5.5,16.2-6.1,46.3-29.3,54-44.9l2.4-6c0,1.7-.2,3.5.2,5.3,2.3,10,4,21.3,7,31s1.1,3.5,1.6,4.2c1.2,1.5,3.7-.4,3.1,2.1l-14.6,39.4c-19.4,2.5-35-4.7-49.5-16.9-6.2-5.2-6.5-11.5-17-8.7-11,3-30.2,17.4-36.2-.7-.3-.8-1.5-8.5-1.4-9.1.6-3.2,3.1-3.9,1.4-8.6-1.3-3.6-9.2-6.1-7.2-10.5,3.4-7.1,17.3,0,22.1-4.6,1.2-1.2,2.6-2.2,2.5-3.8-7.7,3.5-6.8,1.4-10-.5-6.8-3.6-15.1-3.4-21.9-.5.5-3.8,1.6-13.5.3-16.8s-3.7-3.9-3.9-4.1c-4.3-2.8-17.8-6.6-14.8-14.1,4.4-7.5,14.6-18.4,16.2-26.8.5-2.7,1.8-13.2.2-14.8s-3.4-2-4-1.5c.8,1.8,1.6,3.6,1.9,5.6.2,1,.9,4.6-.9,4.4,0-2.2-.3-4.3-1.2-6.3-1.3-2.8-6.1-6.8-5.3-9.7l4.5,2.5c-1.3-4.2-7.2-6.1-8.5-9.5-3.5-9.2.2-27.3,3.5-36.6,3.4-9.5,6.7-16.8,18-17.5.6-4.3-4.9-.9-7-1,1.4-3.4,6.8-4.1,10-3-.1-1.2.4-2.8-.2-3.8-1.1-2.1-7.6-1.8-8.8-4.2,2.8,0,6.4-.2,9.1.6,2.2.6,4,2.7,5.9,1.9,1.1-5.7-7.4-6.7-11.3-6.3s-9.7.8-6.6,5.8c-2.6-.2-6,.7-7.5,3-1.9,2.8,3.3,1.6,1.5,4-.3.5-7.7,4.3-8,7,3.6.9,5.8-4.1,9-2.5-5.6,8.3-11.9,17.2-12,27.5-1.7,0-1.9-3.4-2-4.5-.4-5.6,1.1-24.2,4.3-28.2,2.3-2.9,11.2-8.9,14.5-11.9.9-.8,1.4-2.5,2.1-2.9s6.7-.4,7.3-.4c5.6.9,12.1,7.3,15.7,7.6s8.1-5,11-6.1c2.2-.8,6.7.9,7-3.6h1c0,.9.1,2.1.6,2.9,1.6,2.7,8.9,15,9.2,16.8.5,3.3-3.9,17-3.9,22.8,0,3,.9,8.5,1.5,11.5.4,1.7.5,4.4,2.5,5ZM197.7,128.9c5,1.6,12,1.3,16.4-1.9.8-.6,6.4-6.1,6.5-6.5s-1.4-1.8-3-1c-1.6.8-3.7,4.5-5.4,5.5-3.6,2.2-10.5,2.2-14.5,1v2.9ZM235.5,177c-3.5.3-5.1-2.6-8.4-3.1-7.4-1-28.8,3.5-34.4,8.6-2.2,2-5,7.9-.5,8.5,4.4.6,15.7-7.8,21.4-9.5,7.1-2.2,13.3-2.2,20.5-2.5,1.9,0,1.6.1,1.5-2ZM251.5,207c-.8-9-7.7-18.5-16-22l10.4,11.1c1.8,2.8,2.8,5.3,3.6,8.5s-1.1,3,2,2.5ZM230.5,196c-10-4.8-15.2-6.3-25-.5-1.3.8-2.5-.2-2,2.5,9.6-1.3,16.9-5.5,26.4,0l.5-2ZM235.5,205c-6.1-.5-15.3-6.4-20.7-6.8s-13,3.8-19.2,2.8c.8,4.1,4.5,3.3,8,4,.9.7-5.1,10-1.4,12.1,2.2.6,4.2-1.5,5.8-1.6s3.9.9,6.8.3c1.4-.3,8.1-3.2,8.7-4.3,1-1.9-1.2-1.4-2.2-1.3-2.2.4-4.6,1-6.7,1.8l-2.9-6.7,1.4-2.3c5.2.7,14.1,4.4,18.9,4,1.5-.1,3.1-.3,3.5-2.1ZM250.5,228c3.2-12.4-.2-23.1-13.4-13-8.7,6.6-24.3,25.7-17,36.9,4.9,7.5,13.3,2,18.4-2.5,1.9-1.6,7.1-8,8-10s.3-1.6-.5-1.5c-3.7,6.6-21.3,25.2-25.8,10.8-3.4-10.9,10.6-26.7,18.8-32.8,6-4.5,9.7-4.8,11.4,3.6v8.4ZM198.6,225c-.4-1.9-3.2-1.9-3.8-3.6-1.1-3.3,1.8-6.1-.7-8.3-3.8,4.5-2.6,13,4.5,12ZM205.6,237c-1.5-5.9,7.1-17.6-1-19-.6,1.8,1.5,2.3,1.6,3.5.3,2.9-5.3,13.2-.6,15.5ZM252.6,245.9c2,2.3,8.3,0,6.4-3.9-2.5-5-9.5.3-6.4,3.9ZM203.3,245.3c-.5-.4-4.4-1.6-4.7-1.3,5.4,6.2,2.8,9.3-4,12-.1,4.3,4.3,2.6,6.7,1.2,3.7-2.1,5.4-9,2-11.9ZM176.7,256c3.7-1,6.3-2.8,10.5-2s2.8,4.5,5,4c3.8-.8,1.4-10-6.9-9s-11,4.5-8.6,7ZM301.4,291c-3-.5-1.6.8-2.1,2.3-3.8,11.4-10.2,20.2-17,30l-8.8,6.6c9.4-1.1,16.7-14.5,21.1-22.3s6.3-11.2,6.8-16.7Z"/>
  <path class="st7" d="M244.1,313.1c12.8-4.4,35.7-21.1,44.9-31.7,3.2-5.2,9.3-11.3,9.3-11.3,0,0,6.5,29.7-24.8,59.9-14,9.1-37.6-13.2-37.6-13.2l8.2-3.7Z"/>
  <path class="st2" d="M174.7,135.5c-3.1-1.6-5.4,3.4-9,2.5.3-2.8,7.6-6.5,8-7,1.7-2.4-3.4-1.2-1.5-4,1.5-2.3,4.9-3.2,7.5-3-3.1-5.1,2.4-5.5,6.6-5.8,3.9-.3,12.5.7,11.3,6.3-1.8.8-3.7-1.3-5.9-1.9-2.7-.7-6.3-.5-9.1-.6,1.2,2.4,7.6,2.1,8.8,4.2.6,1.1.1,2.6.2,3.8-3.2-1.2-8.5-.5-10,3,1.3,0,4.1-1.3,5.7-1.1,5.4-1.7,10.4-1.9,14.3-2.2-1.4-.1-2.7-.4-3.9-.8v-2.9c3.9,1.2,10.8,1.3,14.4-1,1.7-1.1,3.8-4.7,5.4-5.5,1.2-1.1,2-1.7,1.5-3.2-1.2,0-2.5,0-3.5.4-3,1.1-7.7,6.3-11,6.1-3.6-.2-10.1-6.7-15.7-7.6-.6,0-7,.2-7.3.4-.7.4-1.1,2.1-2.1,2.9-3.4,3-12.2,9.1-14.5,11.9-3.2,4-4.7,22.6-4.3,28.2,0,1,.3,4,1.7,4.4.1-.6.3-1.3.5-2,.9-9.4,6.6-17.7,11.8-25.4Z"/>
  <path class="st4" d="M327,95.4c8.8,6.2,18.4,18.1,24.2,27.3,6.5,10.3,10.8,20.3,13.1,32.3-8.4-9.4-17.8-17.8-27.5-26-10.9-9.1-24.1-20.2-35.5-28.4-1.5-1.1-3.5-2.6-2.9,0,10.1,8.9,20.3,17.7,30.5,26.5,5.8,5,12,9.3,17.5,14.5,14.3,13.7,26.8,30.8,30.9,50.5l-16.9-18.7c-11-22.3-29.4-34.8-47.4-50.3-1.9-1.6-6.6-7.4-8-8s-2,.3-1.5,1.5c.4.8,7.1,7.3,8.4,8.5,12.2,11.2,26.8,20.5,36.3,34.7l10.2,15.3c-9.5-5.8-20.3-8.6-30.3-13.1-15.8-7.2-52-25.8-62.5-38.4-.9-1.1-7.3-11.3-8-10.5-.2,1.1,0,2,.5,3,5.7,15.7,47.9,38.9,63.4,46.5,17.2,8.5,35.9,12.4,49.6,26.8.8.9,5.2,6.1,2.3,6.7-4.5-9.4-15.7-13.8-25-17.5-16.4-6.4-34-10.5-49.4-19.5-3.9-2.3-10.4-8.9-13-10-1.8-.8-1.9,1.5-1.5,2.5s9.6,8,11,8.9c7.8,5.3,19.3,10.2,28.2,13.8,13.9,5.6,39.2,10.6,48.1,22.8,1,1.4,1.9,2.1,1.4,4-17.8-15.5-43.3-14.7-64.9-21.5-31.8-10-62-32.9-79.1-61.8-4.3-7.2-7.8-12.9-1.2-19.6,6.3-6.4,26.1-11.7,35.1-13.8,23.1-5.5,44-2.8,63.7,11.1Z"/>
  <path class="st9" d="M375.3,335c-.8,5.2-2.6,11.7-3,16.5-.2,2.1-.8,4.1,2,3.5.7-10,5.2-18.7,8.9-27.6,1-2.4,1.3-2.7,1.1.1l-12,60.5,3-2.5,3-11.5-1,11c4.4,1,.9-6.7,5-6,.8,3-2.5,8.3,1,10l4-20,4,4.6-4,13.4c.3.3,1.2-.6,1.5-1,1.3-1.7,5.9-15.3,6.7-18.2,2.1-7.2,1.9-13.3,5.9-20.1.6-1,2.1-3.1,1.8-.2-.9,1.4-2,2.9-2.5,4.5-1,3.4-3.1,10.3-3.5,13.5s.3,1.5,2,1.5l9-25c2-.3,1.6-.2,2.2,1.2,1.1,2.5.4,7.3-.6,9.9-3.1,8.7-9.4,18.9-13.2,27.8-3.2,7.5-5.8,15.3-8.5,23-2.8.5-3.1-2.7-4.7-4-3.9-3.2-13.3-8.1-18.2-9.4s-12.9-1.8-13-3.1c2.9-7.6,8-16.3,5.9-24.5l-6,15.5-2,9.5c-4.6-1.5-10.7-1.8-15.2-3.2-11.4-3.7-17.9-9.7-31.2-8.8-4.3.3-8.5,1.7-12.5,3,2.8-7,5.7-14,8.6-20.9.6-1.4,1.9-2.7,2.6-4.4,6.1-15.3,10-34,16.6-48.4,1-2.3,2.1-4.4,4.5-5.6l31.6,3.4-2.9,31.9c2.8.5,1.7-.6,2.1-2.3,1.6-6.5,2.6-14.5,3.8-21.3.5-2.9-1-6.3,1.6-8.4.5,1.2,3,1.7,3.3,2.2,1.3,2.1-3.5,19-2.8,22.8,2.5.4,1.8-.3,2.4-2,2.1-5.7,3-13,4.5-19l14.9,7.1c.2,7.1-2.7,14-5.8,20.2-.3.7-1,.6-1,.6,1-6.2,2.1-12.3,3-18.5l-3-.5-16,69c1.6,1.9,5-6.4,5.3-7.2,4.9-13.9,3.6-29.7,10.7-42.8ZM335.3,345.5c1.1-11.3-.8-24.1,0-35.5-2.2,1.1-3,8.3-3,10.5-.2,10.6.9,17.3-1.1,28.8-1.3,7.4-4.6,15.4-4.4,22.6,2.7-4,4.8-10.2,6-15,.8-3,2.2-8.7,2.5-11.5ZM321.4,368c2.4-2.3,4.5-7.8,5.4-11,4.2-14,1.9-23,2.5-36.5.1-3.2,1.6-6.2,1-9.5-7.8,8.5-3.1,23.8-4,34.5-.6,7.7-4.1,14.9-5,22.5ZM361.3,361l9-43c-3,2.7-2.5,8.7-3.7,12.8-2.8,9.8-8.5,19.2-8.3,30.2h3ZM309.4,375c1.8.4,2.5-.8,3.4-2.1,1.8-2.6,6.2-12.6,7.1-15.9,3.5-12.6,1.2-25.4,3.5-38-7.6,8.1-3.5,22.4-5.7,32.8-1.7,7.7-5.5,15.9-8.2,23.2ZM342.3,319c-1.9-2.2-2.8,4-2.9,4.6-1.1,7.3-.2,15.3-1.2,22.8-1.5,10.7-4.7,21.1-6.9,31.6,2.7.6,1.7-.7,2.5-2,4.8-8.2,8.6-28.1,9.1-37.7l-.6-19.3ZM311.4,347c.2-1.5.2-3.2.4-5,.6-3.8,3.1-8.4,3.5-11.5s-.4-1.6-2-1.5l-16,46c2,.4,2.3-1,3.2-2.3,5.8-7.9,6.7-17.9,10.7-25.7-1.6,9.5-3.3,13.8-5.8,22.7-.3,1.1-2.1,2.2.3,3.3,1.9.8,2.4-5.1,4-5.9,3.9-6.2,3.4-12.8,4.7-19.3.4-2,2.7-5.9,2.7-6.2,0-5.8-4.6,4.3-4.9,4.9s-1,.6-1,.6ZM351.3,368l5-20c-4.5,2.3-5.7,9.3-6.5,14s-1.4,8.5,1.5,6ZM348.3,349c-2.5-.5-1.8.4-2.5,1.9-1.9,3.9-1.6,7.4-2.8,11.3-.8,2.6-6.8,17.7-5.7,18.8,3.6,1,3.9-2.7,5-5.5,3.3-8.5,3.4-17.8,6-26.5ZM372.3,365c-2.5-.5-1.8.5-2.5,1.9-2,3.9-4.3,13.8-4.9,18.3-.2,1.5-1.2,2.8.9,3.8,2,1,2.5-5.6,3.4-6.6l3-17.4ZM350.3,372c-2.1-2.3-6.9,10.1-6,12,2.4,2.8,5.8-10.7,6-12Z"/>
  <path class="st14" d="M250.5,228s-3.8,11-4,11.5c-.8,2-6.1,8.4-8,10-5.1,4.5-13.5,9.9-18.4,2.5-7.4-11.2,8.3-30.3,17-36.9,13.2-10.1,16.6.6,13.4,13Z"/>
  <path class="st4" d="M291.1,186.3c2.9,3.1,6.9,13.3,8.8,17.7,11.4,27.1,16,54.8,19,84,1.1,1.3,1.9,1.6,1.5-.5-1.1-6.7-1.2-13.3-2-20-2.3-20.9-7.3-41.3-15.2-60.8l-8.7-18.7c3.4,2.2,10.3,3,13.3,5,14.2,9.3,22.7,37.2,23.6,53.5.7,13.3.2,28.2-2.9,41.1l1,1,2-.5c.4.6-3.5,7.6-4.6,7.9-1.9.6-7.2-1.8-10.3,0l1,2.4-2,2.6c-2.5-2.1-3.6-7.8-4.3-11.2-2.5-11-3.7-22.6-6.3-33.7-7-29.4-20-57.8-35.3-83.7-.4-1.3.3-2,1.5-1.5s6.6,6,8.6,7.4c3.2,2.4,9.1,5.3,11.6,7.9ZM327.4,266c.2-9.9-2.5-20.6-5.3-30.2-1.7-6-3.8-14.3-7.7-18.8l6.7,20.8,6.3,28.2Z"/>
  <path class="st1" d="M384.2,207.9l1.1-1.9c4,11,6.4,22.2,9,33.6-2,12.2-8.7,25-5.9,37.4,3.2-2.4,2.5-8.3,3.4-12,1.6-6.3,4.7-12.3,4.5-19l1.9,13.4v16.5s3-5,3-5c3.8,1.9,1,10,0,13.5-2.9,10.5-8.4,20-11,30.5l-7.3-5c-.7-.5-.8-1.5-1.4-2-6.9-4.3-15.3-8.2-23.3-9.6-1.3-7.6,2.1-9.6,3.6-15.4.8-3.2.3-7.2,1.7-10.3s5.4-6,6.9-10c1.6-4.3,1.6-9.5,3.5-14.5,3.7-9.7,3.8-7.3,4.7-18.2.3-4,2.2-9.7,2.3-12.8s-4-9.8-2.7-11.3l5.9,1.9Z"/>
  <path class="st13" d="M331.4,296c9-8,8.3-18,10-29,2.3,0,3.2,1.9,5.5,2.6,2.8.8,6.9-.7,9.5-1.6,1.1-1.3.1-1.9-1.5-2-2.8-.1-5.8-.6-8.5,0l1.1-3.5-2.1-1v-1c8.4-11.5,14.8,2.2,14.8,11,0,8.8-3.7,10.8-5.7,17.1-.7,2.3.2,9-1.5,9.2-7.1-1.6-14.3-2.1-21.5-1.8Z"/>
  <path class="st4" d="M232.5,91l-6.5,4c-3,2.3-5.7,7.1-6,10.9s2.6,5.4.5,6.7c-5.9-.5-11,4.8-16.5,4.6-2.1,0-1.4-2.1-3.1-2.9-4.2-2-10.9-2.8-15.3-1.2,12.7-12,29.1-21,46.9-22Z"/>
  <path class="st12" d="M373,205.3c1.2,1.4,3.2,9.2,3.3,11.3.2,3.9-.5,16.2-1.1,19.9-.4,2.9-3.4,7.3-4.4,10.6-.4,1.4-4.5,18.5-6.5,17-1.1-6.6-3.3-13-6.6-18.9-1.6-2.8-10.1-13-10-14.6s2.5-3.7,3-5.7c.9-3.3.2-7,2.2-9.8,7.4,8.9,12.4,19.8,15.5,31,1.6,0,2.3.6,1.8-1.3-2-9-8.8-22.3-14.4-29.6s-2-1.6-3.2-2.2l-3.2-13.8c11.3,11.4,16.7,28.7,21,44,3.3-1.1.4-7.6-.3-10.2-2.8-10.1-9-23.3-15.3-31.7s-7.9-11.5-8.9-6.1c-1-.6-1.1-2.5-1.7-2.8-1.4-.8-4,.8-3.8-1.2,5.3-.7,12.9,2.3,17.9,4.5,4.3,1.9,11.7,6.2,14.7,9.8Z"/>
  <path class="st1" d="M344,197.3c8.4,10.2,1.3,34.8-8.7,42.7-1.2-12.4-5.5-24.4-12-35,3.2-.8,4.7-3.7,8.2-4.3,6.3-1.2,10.8,3.8,10.8,9.8,0,2.2-3.3,9.1,1,8.5,9.6-18.3-7.1-31.8-21.4-16l-7.5-9c8.5.3,16.3-3.5,24.3.1,1.1.5,4.7,2.5,5.3,3.2Z"/>
  <path class="st12" d="M360.3,258c-7.1-9.7-13.3-6.2-18.8,2.7l-6.1,13.3,1-28.4,10.5-12.6c5.1,7.9,11.8,15.4,13.5,25Z"/>
  <path class="st13" d="M382,405.4c.4,3,3.7,4,4,7.3,0,.7-.2,4.6-1.7,4.4-.8-9.6-10.2-15-18.4-18.1-12.4-4.6-26.5-3.3-39.5-7.4-1.7-.5-3.1-2.1-5.2-2.8-10.1-3.3-20.5-1.8-30.8-4.2,1.8-1.8,4.1-2.9,6.6-3.4,18-4,26.1,5.4,41.8,9.4,15,3.8,30.7,3.5,43.1,14.9Z"/>
  <path class="st13" d="M240.2,323.4c7.8,5,17.2,16,25.4,22.1,2.9,2.1,6.1,3.3,8.8,5.1,2.5,1.7,5.8,4.4,7.8,6.4l11.2,6.5c-1.6,2.2-1.6,1.1-3.3.4-7.1-3.1-14.6-9.1-20.9-13.2-12.5-8.2-25.6-15.9-35.7-27.2,1.9-2.6,4.4-1.5,6.6-.1Z"/>
  <path class="st9" d="M334.3,189l-17.5,2.1c-14.6-1.5-27.7-9.5-38.4-19.1,9.4,3.5,18.5,8.3,28.2,11.3,8.8,2.7,18.7,4.2,27.7,5.7Z"/>
  <path class="st9" d="M384.3,353l2-1.4c.9-1.6,1.1-.2,1,.9-.8,6.3-2.2,14.1-3.8,20.2s0,3.3-1.7,4.3c-1.3-5.5,1.1-11.4,1.5-17l-5,9c0-13.2,6.1-25.1,8.7-37.7s-.2-7.2,1.7-10.3l3.2,3.5-7.7,28.5Z"/>
  <path class="st15" d="M299.4,346c.5.5-4.1,13-5.5,13l-20.5-14c8.6,1.3,17.3,1,25.9,1Z"/>
  <path class="st9" d="M111,444.8l1.8.7c-4.9,8-7.5,17.2-9.9,26.2-.5,1.7.8,2.8-2.1,2.3.4-3.1-.6-7.4,0-10.3.2-.7,1.6-.7,1.9-1.4,2.9-7.3,4.7-15.1,8.1-22.2l.2,4.8Z"/>
  <path class="st9" d="M394.1,342.8c-.8.6-4.2,1-3.9-1.3.6-3.7,4.2-10,4.5-14.5l4.2,4.5-4.8,11.4Z"/>
  <path class="st9" d="M403.2,334c-.1,6.1-3.8,10.8-6.7,15.8s.6,2.8-2.3,2.2c1.9-5.2,3.4-10.6,5.9-15.5.7-1.4.9-2.9,3-2.5Z"/>
  <path class="st3" d="M174.7,348l-11.3,5.2c-21.4,20.2-40.8,44.5-56.3,69.6-.9,1.5-2.4,2.1-3.2,1.3-1.5-1.5,13.6-22.3,15.6-24.9,8.6-11.7,37.1-48.2,50-50.9,1.7-.4,3.5-.3,5.2-.2Z"/>
  <path class="st3" d="M148.7,352l-19.2,25.3c-5.2,6.5-7.8,13.5-11.3,20.7-.3.7-.8,3.9-2.4,2-3-3.5,19.6-35.6,23.4-40,1-1.2,8.4-9,9.5-8Z"/>
  <path d="M467.1,416c-2.5,10.8-4.6,23.3-5,34.5,0,1.7-.9,2.8-2,1.5.1-2.8-.2-5.7,0-8.5.5-6.2,2-16.7,3.2-22.8.4-1.9,1.1-5.1,3.8-4.7Z"/>
  <path class="st3" d="M235.5,205c-.4,1.8-2,1.9-3.5,2.1-4.8.4-13.7-3.4-18.9-4l-1.4,2.3,2.9,6.7c2.1-.8,4.5-1.4,6.7-1.8s3.2-.6,2.2,1.3-7.3,4-8.7,4.3c-2.9.6-4.8-.5-6.8-.3s-3.7,2.2-5.8,1.6c-3.7-2,2.3-11.4,1.4-12.1-3.5-.7-7.2,0-8-4,6.2,1,13.3-3.2,19.2-2.8s14.6,6.3,20.7,6.8Z"/>
  <path class="st3" d="M235.5,177c0,2.1.4,1.9-1.5,2-7.2.4-13.4.3-20.5,2.5-5.8,1.8-17,10.1-21.4,9.5-4.5-.6-1.7-6.5.5-8.5,5.7-5.1,27-9.6,34.4-8.6,3.3.4,4.9,3.3,8.4,3.1Z"/>
  <path class="st9" d="M250.5,228v-8.4c-1.7-8.4-5.4-8.1-11.4-3.6-8.2,6.1-22.2,21.9-18.8,32.8,4.5,14.4,22.1-4.2,25.8-10.8.7-.2.7,1,.5,1.5-.8,2-6.1,8.4-8,10-5.1,4.5-13.5,9.9-18.4,2.5-7.4-11.2,8.3-30.3,17-36.9,13.2-10.1,16.6.6,13.4,13Z"/>
  <path class="st3" d="M176.7,256c-2.4-2.4,6.8-6.8,8.6-7,8.3-1,10.7,8.2,6.9,9-2.2.5-2-3.4-5-4s-6.8,1-10.5,2Z"/>
  <path class="st3" d="M230.5,196l-.5,2c-9.5-5.5-16.9-1.3-26.4,0-.6-2.7.7-1.7,2-2.5,9.7-5.8,15-4.3,25,.5Z"/>
  <path class="st3" d="M301.4,291c-.5,5.5-4.1,11.8-6.8,16.7-4.4,7.8-11.7,21.2-21.1,22.3l8.8-6.6c6.8-9.8,13.2-18.6,17-30,.5-1.6-.9-2.9,2.1-2.3Z"/>
  <path class="st8" d="M197.7,128.9v-2.9c3.9,1.2,10.8,1.3,14.4-1s3.8-4.7,5.4-5.5c1.6-.8,3,.4,3,1s-5.6,5.9-6.5,6.5c-4.4,3.2-11.4,3.5-16.4,1.9Z"/>
  <path class="st3" d="M203.3,245.3c3.4,2.9,1.7,9.8-2,11.9s-6.8,3.1-6.7-1.2c6.8-2.7,9.4-5.8,4-12,.4-.3,4.2.8,4.7,1.3Z"/>
  <path class="st9" d="M251.5,207c-3.1.5-1.6-.8-2-2.5-.8-3.2-1.8-5.7-3.6-8.5l-10.4-11.1c8.3,3.5,15.2,13,16,22Z"/>
  <path class="st3" d="M205.6,237c-4.7-2.4.9-12.6.6-15.5s-2.2-1.7-1.6-3.5c8.1,1.4-.5,13.1,1,19Z"/>
  <path class="st3" d="M252.6,245.9c-3.1-3.6,4-8.8,6.4-3.9,1.9,3.8-4.4,6.2-6.4,3.9Z"/>
  <path class="st3" d="M203.4,265.7c-.9-1.7,1.6-3.9,2.8-2.3,2.5,3.5-1.3,4.9-2.8,2.3Z"/>
  <path class="st3" d="M183.3,242.1c-1-1.7,2.3-3.2,3-1.2s-1.8,3.4-3,1.2Z"/>
  <path d="M219,279.9c-.4-1.8,2.1-2.6,2.6-.9.7,2.4-2.2,2.3-2.6.9Z"/>
  <path class="st9" d="M198.6,225c-7.1,1-8.3-7.5-4.5-12,2.4,2.2-.5,5.1.7,8.3s3.4,1.8,3.8,3.6Z"/>
  <path class="st3" d="M342.3,319l.6,19.3c-.5,9.6-4.3,29.5-9.1,37.7-.8,1.3.2,2.5-2.5,2,2.2-10.5,5.4-20.9,6.9-31.6s.2-15.5,1.2-22.8,1-6.8,2.9-4.6Z"/>
  <path class="st3" d="M309.4,375c2.7-7.4,6.6-15.6,8.2-23.2,2.2-10.3-1.9-24.6,5.7-32.8-2.2,12.7,0,25.4-3.5,38-.9,3.2-5.3,13.3-7.1,15.9-.9,1.3-1.6,2.5-3.4,2.1Z"/>
  <path class="st3" d="M321.4,368c.8-7.6,4.3-14.8,5-22.5.9-10.7-3.8-26,4-34.5.5,3.3-.9,6.3-1,9.5-.6,13.5,1.7,22.5-2.5,36.5-1,3.3-3,8.7-5.4,11Z"/>
  <path class="st3" d="M335.3,345.5c-.3,2.8-1.7,8.5-2.5,11.5-1.2,4.8-3.3,11-6,15-.2-7.2,3.1-15.2,4.4-22.6,2-11.5.9-18.2,1.1-28.8,0-2.3.9-9.4,3-10.5-.8,11.4,1.1,24.2,0,35.5Z"/>
  <path class="st3" d="M311.4,347c-4.1,7.9-5,17.8-10.7,25.7-.9,1.3-1.2,2.7-3.2,2.3l16-46c1.6-.1,2.3-.5,2,1.5-.4,3-2.9,7.6-3.5,11.5-.3,1.8-.2,3.5-.4,5,0,0,.7,0,1-.6s4.9-10.6,4.9-4.9c0,.3-2.4,4.3-2.7,6.2-1.2,6.5-.8,13.2-4.7,19.3-1.6.8-2.1,6.8-4,5.9-2.5-1.1-.6-2.2-.3-3.3,2.5-8.9,4.2-13.2,5.8-22.7Z"/>
  <path class="st3" d="M361.3,361h-3c-.2-11,5.5-20.4,8.3-30.2,1.2-4.1.7-10.1,3.7-12.8l-9,43Z"/>
  <path class="st3" d="M348.3,349c-2.6,8.7-2.7,18-6,26.5-1.1,2.8-1.5,6.5-5,5.5-1.1-1.1,4.9-16.2,5.7-18.8,1.2-3.8.9-7.4,2.8-11.3.7-1.5,0-2.4,2.5-1.9Z"/>
  <path class="st3" d="M372.3,365l-3,17.4c-.9.9-1.4,7.5-3.4,6.6-2.1-1-1-2.3-.9-3.8.5-4.5,2.9-14.3,4.9-18.3.7-1.5,0-2.4,2.5-1.9Z"/>
  <path class="st3" d="M351.3,368c-3,2.4-1.7-5-1.5-6,.8-4.7,2.1-11.7,6.5-14l-5,20Z"/>
  <path class="st3" d="M350.3,372c-.1,1.3-3.5,14.8-6,12-.9-1.9,3.9-14.3,6-12Z"/>
  <path class="st3" d="M327.4,266l-6.3-28.2-6.7-20.8c3.9,4.5,6,12.8,7.7,18.8,2.7,9.6,5.5,20.3,5.3,30.2Z"/>
  <path class="st7" d="M183,262.2s-19.3-9.7-20.5-13.3c-.5-1.6,5.7,3.8,13.3,1.7s21.8-5.1,21.8,5.8c0,8.2-14.7,5.8-14.7,5.8Z"/>
  <path class="st6" d="M235.9,129.8c-3.4,4.9-9.4,30-2.4,42.2,3,5.3,22.5,3.7,49.3,48.8,11.3,19,18.6,30.5-13.5,73.2,12.9-10.7,34.6-18.8,32-42.6s-35.7-91.5-65.5-121.5Z"/>
  <path class="st7" d="M333,241.5s-4.4-28.7-11.6-32.6c-7.2-3.9,20.2-18.8,22-1.6s-8,21-8,21c0,0,8.4-16.1,3.2-17.2s-5.6,30.5-5.6,30.5Z"/>
  <path class="st0" d="M512,0v512H0V0h512ZM160.7,163.2c-.9-3.6,0-15.3,0-20,0-10.9,8.6-17.5,16-24,29.5-26.2,36.9-24.7,74.1-31.7,15.5-3,23.8-8.7,41.1-6.6,31.3,3.8,53.5,27,67,53.8l6,22c-7.3-9.3-15.7-17.6-25.5-24.4s-1.9-2.7-3-1c13.2,12.3,27.2,25.2,35.1,41.7,1.1,2.2,7.5,17.9,6.8,18.6s-2.3-.5-3.1.6c-4.3,6.3,1.4,17.6,1.8,24,.7,12.5-1.7,18.4-5.1,29.3-2.5,7.9-3.8,15.9-8.5,22.9l-6-13.5c-6-7.2-11.8.3-15.2,5.8-6.3,10.2-7.6,24-13.9,34.5-5.8.2-9.4-.8-12.7,4.8l-20.1,58.2-24.9-15.5c4.8.3,9.6,2.4,14.5,2.6,1.6,0,6,0,6.5-2.1-15.1.2-28.5-7.3-39.8-16.6-3.7-3-6.9-8.8-11-9.9-9.6-2.6-19.1,7.2-28.6,8.4-10.6,1.3-15.3-4.4-16.3-14.5-.6-6.5,3.5-9.5-1.1-14.9s-6.2-2.5-5-8.8c.1-.7,3.2-.9,2-3.7h-6c1.4,2.6,0,4.9.2,7.2s2,1.6,1.4,3.7-15.1,21.5-18.1,25c-12.8,14.7-19.3,14.9-34.8,24.1-8.7,5.2-23.9,17.7-30.6,25.3-20.3,23.1-20.9,82-20,111.8l2,30.4c1.7.2.9-2.3,1-3.5,1.1-27.8-1.5-54.8,2.1-82.7,2.2-16.7,5.6-35.9,14.8-50.1,2.2-1,.5,1.5.2,2.2-1.9,4.3-3.8,8.5-4.9,13.1-2.6,10.9-3.9,26.3-4.3,37.6-1.2,27.6.5,56,4.1,83.3h4.9c-3.9-32.7-5.8-67.1-2.5-100,3-30.4,11.4-47.8,37.6-64,7.1-4.4,14.8-7.6,21.8-12.1,13.4-8.8,24.4-20.9,31.5-35.3,1.6,2.9-.6,6.4-.6,9.5,0,20.8,21,21.2,36,15.5-2.4,6.6,3.9,17.2,2.8,22.2-.3,1.7-11.7,19.6-13.6,22.4-10.4,15.2-34.7,22.9-50,34.8-27.3,21.1-50,69.7-56.5,103.2-.4,2-1.6,4.7,1.5,4,3.9-14.4,8.7-28.9,14.8-42.6.5-1.1.7-3.5,2.1-3.3v14.5l2,1c1.5-1.1,1.1-12.3,1.6-15.6,4-27.4,26.6-50.2,48.7-64.8,13.5-8.9,28.2-13.5,38.3-26.6,5.3-6.9,7.8-15.2,12.7-22.3l7.4,11.5,7,3.4c.4-4-3.8-5.6-5.8-8.6-2.5-3.9-8.1-18.5-8.9-23-.4-2.5-.7-5.9.3-8.2,17.5,15.4,36.4,32.3,58.3,41l-5.8,25.2c-11,4.4-10.3,10-3.2,18.3v1.3c-9.2,3.5-4.1,9.8,2,13.5-2.4,9.4-17.7,7.6-22.8,14s-1.5,8.2-3.2,11.8c-1.5,3.1-5.8,5.3-7.6,8.4-1.2,2-1.7,6.6-2.8,7.4-8.2,6.3-27.7-6-37.3.4,12.8-.9,23.7,7.8,35.9,4.5-.6,10.1-16.8,8.3-19,19,.6.5,10.2-5.8,11.7-6.7,3.7-2,6.5-1,9.6-5.3,4-5.4,1.5-12.2,6.1-18.8s4.4-3.7,5.6-6.3c1.6-3.3,1.2-9.3,3.3-11.7,4.9-5.6,24.6-3.7,23.9-17l-8.4-6.5c6.4-5,12.9-6.2,20.9-5.5-2.7-3.5-9.1-1.5-13-2,5.5-6.8,10.1-.6,15.2,1.3,8.9,3.3,19.7,3.7,28,7.9,8.3,4.2,14.2,15,24.7,14.7,1.1-9.4-7.6-14-15-17.4l-13.9-4.5c13.7-1.5,30.3,4.7,36.8,17.6,4.9,9.7-.3,11.2-.9,18.8s.9,6.1.9,8.9c-.1,4.7-1.3,8.4-2.1,12.8s-1.1,2,1.3,2.7c7.6-10.5,1.6-21.8,7-32.9l5,13c2.2-22-13.3-39.5-34.1-44.3-4-.9-26.9-4.6-28.9-3.2l-1,3.5c-7.1-.4-14.8-9.2-21.9-4.4s-.6,4.6-2.5,3.4c-.5-.3-4.2-6.1-4.4-6.7-.8-3.2,7.8-6.6,10.4-9.2,4-4-.4-5.5,8.9-5,13.1.7,19.4,5.4,30.6,8.3,15.4,4,39.4,1.6,47.6,18-12.7,11.6-.4,14.3,3.6,23.6,6.3,14.7,3.1,31.6-3.3,45.6-1.5,3.3-15.6,25.9-14.1,27.3s2.3.1,3.2-1.3c12.7-19.4,26.5-39.3,20.6-64-.6-2.6-4.8-13.1-4.7-13.9.2-2.2,4.2-6.8,5.2-9.7,2.4-6.3,2.6-14.2,5.4-20.5.5-1.2-.5-1.8,2.1-1.4,17.8,34.9,33.6,71.3,37.9,110.8h3c-5.4-40.7-18.8-79.9-40.8-114.5-.4-1.7,9.2-24.2,10.8-27.7s2-6.1,3.5-5.5c2.6,1,24.7,43.3,27.6,49.2,11.3,23.2,19.1,44.4,22.7,70.2,1.2,8.8,1.1,18.2,2.1,26.8s.8,3.1,2,1.5c0-22.8-2.5-46.1-9.5-67.8-4.8-14.8-12.9-30.8-20.2-44.6-6.8-12.9-14.4-27-24.1-37.8l1.9-2.4c.8,3.1,4.1,5.9,6.5,8,23.6,20.5,57.5,35.5,65,68.7,5,22.1,7.1,45.8,12.8,68.1.6,2.5,1,6.7,3.5,7.9-1.7-11.6-4.7-23.1-6.7-34.7-2.6-15.5-3.5-34.6-7.8-49.1-5.5-19-26.3-34.7-41.5-46.3-5.4-4.1-31.4-20.3-31.9-25.1s3.8-7,1.3-13.2c-.6-1.5-7.1-9.3-8.7-11.2-4.3-5.3-9.8-9.5-13.9-14.9,5.8-13,13.8-26.2,13.4-40.9-1.4,0-2.1,2.9-2.4,4-1.5,4.3-2.1,8.8-3.8,13.2-2.8,7.4-8.1,14.7-7.8,22.7-10.5-7.4-21.5-16.3-34.9-17,1.2-5.3,3.3-10.6,4.7-15.8.9-3.2.8-7.4,1.7-10.2,1-2.9,4.8-5,6.4-8.6,2.2-4.8,2.6-11.3,4.4-16.5,1-2.8,3.9-6.2,4.5-8.5s2.3-19.8,2.2-21.8c0-3.8-4.1-9.8-3-14.4l4,2.5c-1.2-2-1.3-4.6-2.1-6.7s-4.6-3.1-.4-4.7c1.6-.6,2.6,2.7,3.2,3.8,5.3,10.6,13.4,33.9,12,45.4-1.1,9.1-6.9,19-5.7,28.7,2.1-1.4,2.9-5.4,3.7-7.8,2.2-6.8,4.6-14.1,3.8-21.2,1.6,1.6,2.1,4.5,2.4,6.6.4,3.5,1.1,9.5,1.2,12.9s-2.2,7.4,0,11.5l2-5,3,5.5c4.8-1-1-8.2-1.8-11.2-6.1-24.5-9.1-41.1-18.5-65.4-3.2-8.3-6.1-17-9.5-25.4-4.3-10.6-4.3-8.7-6.3-20.7-6.1-36-33.8-65-69.7-72-22.2-4.4-28.9,2.4-48.6,4.4-14.2,1.5-25.8.2-39.8,6.1-13.5,5.6-39.9,28.2-48.9,39.9-7.8,10.2-5.8,29.2-3.2,41.2s5.4,12.6,5.6,14.4-2.9,3.4-1.6,7.6,4.5,1.6,4.7,1.8c.8.5,6.3,15.1,8.1,17.4h-11c1.9,4.8,5.1,4,9,4.8,1.1.2,1.2-.9.9,1.1-.5,3.2-3.1,8.4-4.8,11.2-5.3,9.1-16.2,14.9-4.7,25.3,3.3,3,13.5,6.1,14.5,7.7,2.2,3.4.6,11.6,0,15.6l4.8,4.7c.4-2-1.8-2.5-1.9-4.4-.2-3.4,1.5-8.5.9-13.1-1-9-7.9-7.8-13.9-12-6.4-4.6-6.7-6.4-2.9-12.7,6.1-10.3,13.4-16.3,14.7-29.2.1-1.2,1.1-5.3-.9-5.4l-1,8c-1.1,1.6-3.1-7.9-3.5-9-3.1-7.4-8.8-14.3-9.5-22.4-.8-8.8.8-18.3,3.3-26.7s6.9-14.9,9.7-22.7c-9.7,6.8-14.4,20.4-16,31.9-.2.3-1.9-1.1-2-1.5ZM235.5,91.8c-8-.6-17,9.2-14.5,17,1.7,5.3,9.8,15.5,13.1,20.9,1.2,2,1.2,4.4,2.4,6.5,5.7,10,19.2,18.6,25.4,27.5s14,26.4,18.3,35.6c13.7,29.5,23.1,60.7,29.1,92.7l2.1,3.4c-4.4-33.5-12.7-66.3-27.6-96.7-5-10.3-11.5-19.7-16.3-30.1l22.6,15.8c11.1,6.5,18.3,5.7,26.7,17.2,18,24.8,15.3,54.7,13.6,83.8,1.4.2,1.3-1.7,1.7-2.7,4.4-12,2.9-26.9,3.2-39.5,13.6-8.9,21.1-28.7,13.5-43.7-2.9-5.9-6.9-8.4-13.5-8.9l9.8,7.6c4.3,9.4,3.5,19.7-.9,28.8l-9,14.5c-1.8-18-9.4-36.2-23-48.4l10-1.5c-19.6,0-35.9-11.3-49.9-24,7.4,3.3,14.4,7.5,22,10.5,26,10.2,53.4,7.7,76.3,23.5.7.2.7-.9.5-1.5-4.3-9.7-45.4-15.9-56.1-18.8-36.1-9.7-69.6-33.7-88-66.7-3.4-6.1-5.4-8.3-1-14.8l9.4-8ZM221.6,113.8c-4.7-2.7-13.7,4-16.3,3.8-2-.2-5.4-4-8.4-4.6-3-.6-6.2,0-9.3-.2l16.5,9c4.1.4,6.8-4,9.7-5.2,2.4-1,6.5-.3,7.7-2.7ZM196.6,122.8c.2-5.5-15.6-4.4-17-3-.8,3.8,5.7,1.4,8.1,1.6,3,.2,5.9.7,8.8,1.4ZM169.7,134.7c5.5-.1,11.7-5.6,16.8-6.8,2.3-.6,3.6,1.8,5.2-.7-4.7-5.6-13.1-3.9-18.9-1.5-.7,3.5,3.6,1.9,4,4l-7,5ZM373.3,190.6c-7-17.2-28.3-20.9-43.6-27.8-9.9-4.4-19.2-10.1-29.3-14.1,22,18.3,53.5,20.4,72.8,41.9ZM369.3,192.6c2.5-2.5-12.2-10.2-13.6-10.8-9.5-4.4-19.9-6.6-29.6-10.4-10.1-3.9-19.8-8.4-29.7-12.7,3.9,4.4,11.1,7.3,16.6,9.8,18.8,8.8,39.2,12.3,56.2,24.1ZM230.5,177.6c-3.7-4.3-13.4-1.2-18.2.3-7.9,2.4-13.1,7.2-20.2,10.7,1.6-7,12.5-8.6,18.4-11,.2-1.7-2.3-1-3.4-.9-6.5.8-16.9,5.1-16.6,12.9,1.9,2.7,20-8.1,24.2-9.3,5-1.5,10.6-1.9,15.8-2.7ZM222.6,192.6c-5.4-1.5-12.7-1.2-16,4,2.4,0,4.1-1.6,6.6-1.9,1.1-.1,12.4.7,9.4-2.1ZM342.3,215.6c9.6-11.1-2.7-25.4-15.5-17s-4.6,4-3,5c11.5-8.8,20.7-1.8,18.5,12ZM209.6,202.6c6.6-.5,12.9,2.2,19.4,3.1s3.7,1.4,3.6-.6-15.2-6.1-17.6-6.4c-7-.7-11,2.8-17.4,1.9l1.7,2.8c11.1-2,5.4,5.1,12.3,8.2v1c-2.4-.2-2.1.9-2,3,.6.6,11.4-2.2,12-5l-7,1.6-5-9.5ZM205.6,205.6c-3.2-.7-1.8,4-4,5.5l3,1.5-2,3,4-.5-1-9.5ZM258.4,240.6c-2.5-3.5-8.2,2.4-4.8,4.8s6.7-2.2,4.8-4.8ZM195.6,257.5c7.3,1.5,13.9-11.2,5-12l1.1,6.3-6.1,5.7ZM190.7,256.5c5.7-.8,2.1-5.8-1.5-7.1-2.4-.9-8.4.4-9.5,2.6-1.1,2.2,1.3,1.1,2.1,1,3.9-.4,7.8-1.6,9,3.4ZM244.5,310.4c13.2-4.6,27-13.6,37.4-23,6.2-5.6,14.6-13.8,16.5-21.9l-6,7.5c-5.2,4.5-10.3,10.1-15.5,14.4-10.2,8.5-21.7,15.2-32.4,23ZM213.6,280.5c-5.5,1.6-13.6-1.3-18,3,5.5-.8,15.5,4.3,18-3ZM113.8,431.2c3.6-2.4,5.2-7.3,7.6-10.9,9-13.4,19.5-27.7,29.8-40,4.4-5.2,10.2-10.3,14.5-15.5.9-1.1,2.4-1.6,2-3.5-17.9,16.3-34.5,36.4-47.3,57-2.4,3.9-5.7,8.5-6.6,12.9ZM273.5,390.2c-2.5-9.9-15.5-16.6-24.9-18,3.8,3.8,9.5,5.5,13.9,8.5s7.3,6.6,11,9.4ZM183.6,378.3c-4.4,1.8-9.1,4.7-12.9,7.6-12.4,9.3-29,29.7-38.4,42.4-2.7,3.7-6.8,8.5-7.6,12.9,4.9-4.4,8.6-11.1,13.3-15.6,5.5-5.3,13.7-10.4,19.6-15.8s13.7-14.2,20.9-21c-1-1.4-3.3.9-4.2,1.6-9.5,7.3-17.5,17.6-26.7,25.4-.8.7-2,2.6-3,1,11.4-14.4,24.6-27.1,38.9-38.4ZM116.8,440.1c10.2-14.9,19.5-30.3,31.4-43.9,3.4-3.8,8.8-7.2,10.5-12-2.5-2.8-28.9,31.8-30.7,34.6-4.1,6.3-8.6,14.2-11.2,21.3ZM220.6,385.3c-3.6-1-1.3,4.5-.7,6.2,3,9.1,20.2,38.8,27.2,44.7,1.1.9,1.6,2.4,3.5,2-10.9-16.9-22-34.3-30-52.9Z"/>
  <path class="st15" d="M160.7,163.2c0,.4,1.7,1.8,2,1.5,1.6-11.5,6.3-25.2,16-31.9-2.8,7.8-7.3,14.7-9.7,22.7s-4.1,17.9-3.3,26.7c.7,8.2,6.4,15,9.5,22.4.4,1.1,2.4,10.5,3.5,9l1-8c1.9,0,1,4.2.9,5.4-1.2,12.9-8.5,19-14.7,29.2-3.8,6.3-3.5,8.2,2.9,12.7,6,4.3,12.9,3.1,13.9,12s-1.1,9.6-.9,13.1,2.3,2.4,1.9,4.4l-4.8-4.7c.5-4,2.1-12.2,0-15.6-1-1.6-11.3-4.7-14.5-7.7-11.5-10.4-.7-16.1,4.7-25.3,1.7-2.9,4.2-8,4.8-11.2.3-2,.2-.9-.9-1.1-3.9-.8-7.1,0-9-4.8h11c-1.8-2.2-7.3-16.8-8.1-17.4s-3.5,2.1-4.7-1.8,1.7-6,1.6-7.6-4.7-10.6-5.6-14.4c-2.6-12-4.5-31,3.2-41.2,9-11.8,35.3-34.3,48.9-39.9,14.1-5.8,25.6-4.6,39.8-6.1,19.7-2.1,26.3-8.8,48.6-4.4,35.9,7,63.6,36.1,69.7,72,2,11.9,2,10,6.3,20.7,3.4,8.4,6.3,17.1,9.5,25.4,9.3,24.3,12.3,40.9,18.5,65.4.8,3,6.6,10.2,1.8,11.2l-3-5.5-2,5c-2.1-4.1.2-7.5,0-11.5s-.7-9.4-1.2-12.9-.8-5-2.4-6.6c.8,7.1-1.6,14.4-3.8,21.2-.8,2.4-1.6,6.4-3.7,7.8-1.2-9.7,4.6-19.6,5.7-28.7,1.4-11.5-6.8-34.7-12-45.4-.5-1.1-1.6-4.4-3.2-3.8-4.2,1.7.3,4.5.4,4.7.8,2.1.9,4.7,2.1,6.7l-4-2.5c-1.1,4.7,2.9,10.6,3,14.4,0,2-1.8,20-2.2,21.8s-3.5,5.7-4.5,8.5c-1.9,5.3-2.2,11.8-4.4,16.5-1.6,3.5-5.4,5.6-6.4,8.6-1,2.8-.8,7-1.7,10.2-1.4,5.2-3.5,10.4-4.7,15.8,13.4.7,24.5,9.6,34.9,17-.3-8,5-15.3,7.8-22.7s2.3-8.9,3.8-13.2,1.1-4,2.4-4c.4,14.7-7.6,27.9-13.4,40.9,4.2,5.4,9.6,9.7,13.9,14.9s8.1,9.8,8.7,11.2c2.6,6.2-1.7,9.3-1.3,13.2s26.4,21,31.9,25.1c15.3,11.6,36,27.4,41.5,46.3,4.2,14.6,5.1,33.7,7.8,49.1,2,11.6,5,23.1,6.7,34.7-2.5-1.2-2.9-5.4-3.5-7.9-5.6-22.3-7.8-46-12.8-68.1-7.5-33.2-41.4-48.2-65-68.7-2.4-2.1-5.8-4.9-6.5-8l-1.9,2.4c9.7,10.8,17.2,24.9,24.1,37.8,7.3,13.8,15.4,29.8,20.2,44.6,7.1,21.7,9.5,45,9.5,67.8-1.2,1.6-1.8,0-2-1.5-1-8.6-.9-18.1-2.1-26.8-3.6-25.8-11.4-47-22.7-70.2-2.9-5.9-25-48.2-27.6-49.2s-2.9,4.2-3.5,5.5c-1.6,3.5-11.2,26-10.8,27.7,21.9,34.6,35.3,73.9,40.8,114.5h-3c-4.4-39.4-20.2-75.9-37.9-110.8-2.5-.4-1.5.2-2.1,1.4-2.8,6.3-3,14.3-5.4,20.5-1.1,2.9-5.1,7.5-5.2,9.7s4.1,11.3,4.7,13.9c5.9,24.7-7.9,44.6-20.6,64-.9,1.4-2.3,2.1-3.2,1.3-1.5-1.4,12.6-23.9,14.1-27.3,6.4-14,9.6-30.9,3.3-45.6s-16.3-12-3.6-23.6c-8.2-16.4-32.2-13.9-47.6-18-11.2-2.9-17.5-7.6-30.6-8.3-9.3-.5-4.9,1-8.9,5-2.6,2.6-11.2,6-10.4,9.2.2.6,3.8,6.4,4.4,6.7,1.9,1.1.5-2.1,2.5-3.4,7.1-4.8,14.8,4,21.9,4.4l1-3.5c2-1.4,24.9,2.3,28.9,3.2,20.8,4.7,36.3,22.3,34.1,44.3l-5-13c-5.4,11.2.6,22.4-7,32.9-2.3-.7-1.5-1.2-1.3-2.7.8-4.4,2-8.1,2.1-12.8,0-2.8-1.1-5.5-.9-8.9.6-7.6,5.7-9.1.9-18.8-6.5-12.9-23-19.1-36.8-17.6l13.9,4.5c7.3,3.4,16,8.1,15,17.4-10.5.3-16.4-10.5-24.7-14.7-8.3-4.3-19.1-4.7-28-7.9-5.1-1.9-9.6-8.1-15.2-1.3,3.9.5,10.3-1.5,13,2-8.1-.7-14.5.5-20.9,5.5l8.4,6.5c.7,13.3-19,11.4-23.9,17-2.1,2.4-1.7,8.4-3.3,11.7-1.3,2.6-4.1,4.1-5.6,6.3-4.6,6.7-2.1,13.5-6.1,18.8-3.2,4.3-6,3.3-9.6,5.3s-11.2,7.3-11.7,6.7c2.2-10.7,18.4-8.8,19-19-12.3,3.3-23.1-5.4-35.9-4.5,9.6-6.4,29.1,5.9,37.3-.4,1.1-.8,1.6-5.4,2.8-7.4,1.8-3,6.1-5.3,7.6-8.4,1.7-3.6.7-8.7,3.2-11.8,5.2-6.3,20.5-4.6,22.8-14-6.1-3.7-11.1-10-1.9-13.5v-1.3c-7.2-8.3-8-13.8,3.1-18.3l5.8-25.2c-21.9-8.7-40.8-25.6-58.3-41-.9,2.3-.7,5.8-.3,8.2.8,4.6,6.4,19.1,8.9,23,2,3,6.2,4.6,5.8,8.6l-7-3.4-7.4-11.5c-4.8,7.1-7.4,15.4-12.7,22.3-10.1,13.1-24.8,17.7-38.3,26.6-22.1,14.6-44.8,37.4-48.7,64.8-.5,3.3-.1,14.5-1.6,15.6l-2-1v-14.5c-1.4-.1-1.6,2.2-2.1,3.3-6.1,13.6-10.9,28.2-14.8,42.6-3.2.7-1.9-2.1-1.5-4,6.6-33.5,29.3-82,56.5-103.2,15.4-11.9,39.6-19.6,50-34.8,1.9-2.8,13.2-20.7,13.6-22.4,1-5-5.2-15.7-2.8-22.2-15,5.7-36,5.3-36-15.5,0-3,2.1-6.6.6-9.5-7.2,14.4-18.1,26.5-31.5,35.3s-14.7,7.8-21.8,12.1c-26.2,16.2-34.5,33.6-37.6,64-3.3,32.9-1.4,67.3,2.5,100.1h-4.9c-3.6-27.4-5.3-55.8-4.1-83.4.5-11.3,1.7-26.6,4.3-37.6,1.1-4.6,3-8.8,4.9-13.1.3-.7,2-3.2-.2-2.2-9.2,14.2-12.6,33.4-14.8,50.1-3.6,27.9-1,54.9-2.1,82.7,0,1.2.8,3.7-1,3.5l-2-30.4c-.8-29.8-.2-88.7,20-111.8,6.7-7.6,21.9-20.1,30.6-25.3,15.4-9.2,22-9.4,34.8-24.1,3-3.4,17.3-22,18.1-25s-1.3-2.8-1.4-3.7c-.2-2.4,1.2-4.6-.2-7.2h6c1.2,2.7-1.8,2.9-2,3.7-1.3,6.3,2.1,5.5,5,8.8,4.6,5.4.5,8.4,1.1,14.9.9,10.1,5.7,15.8,16.3,14.5,9.5-1.2,19-11,28.6-8.4,4.2,1.1,7.4,6.9,11,9.9,11.3,9.3,24.8,16.8,39.8,16.6-.4,2.1-4.9,2.1-6.5,2.1-4.9-.2-9.7-2.3-14.5-2.6l24.9,15.5,20.1-58.2c3.3-5.6,6.9-4.6,12.7-4.8,6.3-10.5,7.6-24.2,13.9-34.5s9.2-13,15.2-5.8l6,13.5c4.7-7,6.1-15,8.5-22.9,3.4-10.9,5.8-16.8,5.1-29.3s-6.1-17.7-1.8-24c.8-1.1,2.9-.4,3.1-.6.7-.7-5.7-16.4-6.8-18.6-7.9-16.5-21.9-29.5-35.1-41.7,1-1.7,2.2.4,3,1,9.7,6.8,18.1,15.2,25.5,24.4l-6-22c-13.5-26.8-35.7-49.9-67-53.8-17.3-2.1-25.6,3.6-41.1,6.6-37.1,7.1-44.5,5.6-74.1,31.7s-16,13-16,24-.9,16.4,0,20ZM355.3,297.4c-4-7.4,2.2-11.7,3.9-17.5,2.4-8,1.7-23.6-8.4-25.5-16.4,8.8-6.1,30.8-20.5,41l25,2ZM177.7,313.4c5.3-4.4,9.3-11.6,12-18l-12,18ZM363,303.6l-37.2-5.3-4,1-31.4,80.9c6.8-5.1,17.7-4.9,25.8-3.3s15.8,6.9,24.1,8.9c17,4.1,36.4,3.5,47.9,19.4,2.1-6.2,4-12.8,6.5-18.9,3.7-9.2,14.1-26.8,16-34.9,1.5-6.8.3-11.6-6.5-14,.8,4.8-3,8.4-5.2,12.3l-3.8,11.7c-2.9-9.7,9.6-19.3,7.9-27.2-.3-1.3-16-16.3-18.9-17.7.8,7.6-3.6,14.2-6.7,20.8-.7,1.4.6,2.8-2.3,2.2l7.9-24.3-16.9-9.6-4,16c-1.6-3.8,3.3-15.7.7-17.7ZM293.3,361.4c-9.1-4.6-18.5-10.6-26.7-16.7-4.6-3.5-27.1-24.1-29.5-24.2-1.4,0-3,1.1-4.5.9,8.6,12.3,23.3,21.4,36,29.4,4.8,3,17.4,11.6,21.8,13.1,1,.4,1.9.6,3,.4v-2.9ZM381.9,404.6c-12.3-13.2-33.5-11.7-49.3-17-6.2-2.1-12.8-7.1-18.9-8-8.1-1.3-18.9-.4-25.2,5.3,8.5.6,17.8,0,26.2,1.7s12.3,4.9,18.5,6.5c10.1,2.6,20.3,1.8,30.7,5.2,9.9,3.3,19.3,8.5,20.4,20,2.1-.4,2.2-4.8,2-6.4s-2.9-5.7-4.3-7.2ZM353.3,431.2l-15-9c3.6,5,8.7,9,14.5,11l.5-2Z"/>
  <path class="st15" d="M235.5,91.8l-9.4,8c-4.4,6.5-2.4,8.8,1,14.8,18.4,32.9,51.9,57,88,66.7,10.7,2.9,51.8,9,56.1,18.8.3.6.2,1.7-.5,1.5-22.9-15.8-50.4-13.2-76.3-23.5s-14.6-7.1-22-10.5c14,12.6,30.2,23.9,49.9,24l-10,1.5c13.6,12.2,21.1,30.4,23,48.4l9-14.5c4.4-9.2,5.1-19.4.9-28.8l-9.8-7.6c6.6.5,10.6,3.1,13.5,8.9,7.5,14.9,0,34.8-13.5,43.7-.3,12.6,1.2,27.5-3.2,39.5-.4,1-.3,3-1.7,2.7,1.8-29.1,4.4-58.9-13.6-83.8-8.4-11.6-15.6-10.7-26.7-17.2l-22.6-15.8c4.8,10.4,11.3,19.8,16.3,30.1,14.9,30.3,23.2,63.2,27.6,96.7l-2.1-3.4c-6-32-15.4-63.2-29.1-92.7-4.3-9.2-12.9-27.9-18.3-35.6s-19.6-17.5-25.4-27.5c-1.2-2.1-1.2-4.5-2.4-6.5-3.3-5.4-11.4-15.5-13.1-20.9-2.5-7.8,6.6-17.6,14.5-17Z"/>
  <path d="M183.6,378.3c-14.4,11.3-27.5,24.1-38.9,38.4,1,1.6,2.2-.3,3-1,9.3-7.8,17.3-18.1,26.7-25.4.9-.7,3.2-3,4.2-1.6-7.2,6.7-13.7,14.3-20.9,21s-14.1,10.5-19.6,15.8c-4.7,4.5-8.4,11.2-13.3,15.6.8-4.4,4.8-9.2,7.6-12.9,9.4-12.7,26.1-33.1,38.4-42.4,3.8-2.8,8.5-5.8,12.9-7.6Z"/>
  <path d="M369.3,192.6c-17.1-11.8-37.5-15.3-56.2-24.1-5.5-2.6-12.7-5.5-16.6-9.8,9.9,4.3,19.6,8.9,29.7,12.7,9.7,3.7,20.1,5.9,29.6,10.4,1.4.7,16.1,8.3,13.6,10.8Z"/>
  <path d="M373.3,190.6c-19.4-21.5-50.9-23.6-72.8-41.9,10,4.1,19.4,9.7,29.3,14.1,15.3,6.9,36.6,10.6,43.6,27.8Z"/>
  <path class="st15" d="M244.5,310.4c10.7-7.8,22.2-14.5,32.4-23s10.3-9.9,15.5-14.4l6-7.5c-1.9,8.1-10.3,16.3-16.5,21.9-10.4,9.4-24.2,18.4-37.4,23Z"/>
  <ellipse class="st5" cx="216.2" cy="205.7" rx="8" ry="6.1"/>
  <path d="M209.6,202.6l5,9.5,7-1.6c-.5,2.8-11.4,5.6-12,5-.2-2.1-.5-3.2,2-3v-1c-6.9-3-1.2-10.2-12.3-8.2l-1.7-2.8c6.4.9,10.3-2.6,17.4-1.9,2.3.2,17.5,5.1,17.6,6.4.1,2-2.9.7-3.6.6-6.4-.9-12.7-3.7-19.4-3.1Z"/>
  <path d="M220.6,385.3c8,18.6,19,35.9,30,52.9-1.9.4-2.4-1-3.5-2-7-5.9-24.1-35.5-27.2-44.7-.6-1.7-2.9-7.2.7-6.2Z"/>
  <path d="M113.8,431.2c.8-4.4,4.2-9,6.6-12.9,12.8-20.6,29.4-40.7,47.3-57,.4,1.9-1,2.4-2,3.5-4.3,5.1-10.1,10.3-14.5,15.5-10.4,12.3-20.9,26.6-29.8,40-2.4,3.6-4,8.5-7.6,10.9Z"/>
  <path d="M230.5,177.6c-5.2.8-10.7,1.3-15.8,2.7-4.2,1.2-22.3,12-24.2,9.3-.4-7.8,10.1-12.1,16.6-12.9s3.6-.9,3.4.9c-6,2.4-16.9,4-18.4,11,7.2-3.6,12.4-8.3,20.2-10.7s14.5-4.6,18.2-.3Z"/>
  <path d="M116.8,440.1c2.6-7,7-14.9,11.2-21.3s28.2-37.4,30.7-34.6c-1.7,4.8-7.1,8.1-10.5,12-11.9,13.6-21.2,29-31.4,43.9Z"/>
  <path class="st15" d="M221.6,113.8c-1.2,2.4-5.4,1.7-7.7,2.7-2.8,1.2-5.6,5.6-9.7,5.2l-16.5-9c3,.1,6.2-.4,9.3.2,3,.6,6.4,4.4,8.4,4.6,2.6.3,11.6-6.5,16.3-3.8Z"/>
  <path class="st15" d="M342.3,215.6c2.2-13.8-7-20.8-18.5-12-1.6-1,1.9-4.2,3-5,12.8-8.4,25,5.9,15.5,17Z"/>
  <path class="st15" d="M169.7,134.7l7-5c-.4-2.1-4.7-.5-4-4,5.9-2.4,14.3-4.1,18.9,1.5-1.6,2.5-2.9.1-5.2.7-5.1,1.2-11.3,6.7-16.8,6.8Z"/>
  <path d="M273.5,390.2c-3.8-2.8-7.2-6.7-11-9.4s-10.1-4.7-13.9-8.5c9.5,1.4,22.4,8.1,24.9,18Z"/>
  <path d="M190.7,256.5c-1.2-5-5.1-3.8-9-3.4s-3.1,1.1-2.1-1c1.1-2.2,7-3.5,9.5-2.6,3.6,1.3,7.3,6.3,1.5,7.1Z"/>
  <path d="M213.6,280.5c-2.5,7.3-12.4,2.2-18,3,4.3-4.3,10.1.6,18-3Z"/>
  <path d="M196.6,122.8c-2.9-.7-5.9-1.2-8.8-1.4-2.4-.1-8.9,2.2-8.1-1.6,1.4-1.4,17.1-2.6,17,3Z"/>
  <path class="st15" d="M195.6,257.5l6.1-5.7-1.1-6.3c8.9.7,2.3,13.4-5,12Z"/>
  <path class="st11" d="M174.7,232.9c0,0-.2,0-.3,0-.2-.1-.3-.4-.1-.6,0,0,1.3-2,2.1-3.5.1-.2.4-.3.6-.2.2.1.3.4.2.6-.8,1.6-2.1,3.5-2.1,3.5,0,.1-.2.2-.4.2Z"/>
  <path class="st11" d="M176.3,233.2c0,0-.2,0-.3,0-.2-.1-.3-.4-.1-.6,0,0,1.3-2,2.1-3.5.1-.2.4-.3.6-.2.2.1.3.4.2.6-.8,1.6-2.1,3.5-2.1,3.5,0,.1-.2.2-.4.2Z"/>
  <path class="st11" d="M177.7,235c0,0-.2,0-.3,0-.2-.1-.3-.4-.1-.6,0,0,1.3-2,2.1-3.5.1-.2.4-.3.6-.2.2.1.3.4.2.6-.8,1.6-2.1,3.5-2.1,3.5,0,.1-.2.2-.4.2Z"/>
  <path d="M222.6,192.6c3,2.8-8.3,1.9-9.4,2.1-2.5.3-4.2,1.9-6.6,1.9,3.2-5.2,10.6-5.5,16-4Z"/>
  <path d="M258.4,240.6c1.8,2.6-2.2,6.7-4.8,4.8s2.3-8.3,4.8-4.8Z"/>
  <path d="M205.6,205.6l1,9.5-4,.5,2-3-3-1.5c2.2-1.5.7-6.2,4-5.5Z"/>
  <path class="st10" d="M363,303.6c2.5,2-2.3,14-.7,17.7l4-16,16.9,9.6-7.9,24.3c2.9.6,1.6-.8,2.3-2.2,3.2-6.5,7.5-13.1,6.7-20.8,2.9,1.4,18.7,16.4,18.9,17.7,1.6,7.9-10.9,17.5-7.9,27.2l3.8-11.7c2.2-3.9,6-7.4,5.2-12.3,6.8,2.4,8,7.2,6.5,14-1.8,8.1-12.2,25.7-16,34.9-2.5,6.1-4.4,12.7-6.5,18.9-11.5-15.9-30.9-15.3-47.9-19.4-8.3-2-16.4-7.4-24.1-8.9s-19-1.8-25.8,3.3l31.4-80.9,4-1,37.2,5.3ZM329.4,341.8c.7-6.8,0-15.9,0-23s-1.7-1.8-2-1.5c-2.6,9.6.4,19.2,0,28.9,1,.3,1.9-4.1,2-4.5ZM371.3,343.3c1.4-8.3,6.4-15.1,5-24l-5.5,14.9c-.4,2.7-.8,5.4-1.1,8s.3,1.1,1.7,1ZM334.4,370.3c4.3-5.1,5.9-15.8,6.9-22.6,1.2-8.9,1.6-17.4.1-26.3l-2,9.5c1,13.4-3.4,26.2-5,39.4ZM382.2,345.3c1.1-5.3,3.5-9.9,4.2-15.4s1.2-2.4-.7-3.6c-1.8,3.6-3.8,8.6-4.4,12.6s-.9,6.2.9,6.4ZM321.4,347.8c.6-5.2-.4-11.2,0-16.5-3.3,2.4-1.5,8.8-2,12.5-1.2,8.9-4.5,17.3-7,25.9,1,1.6,1.2-.7,1.5-1.5,2.7-5.4,6.8-14.7,7.5-20.5ZM331.3,359.3c1.5-7.5,3.4-15.2,3-22.9l-3.9,19.6.9,3.4ZM393.2,355.3c.6-6.3,3-12.1,5-18-2.8,2.2-4.7,8.4-5.5,11.9-.3,1.2-1.6,5.8.5,6ZM359.3,359.3c2.3-1.6,3-6.1,3.7-8.8,1.1-4,1.7-8.1,2.3-12.2-4.6,4.9-5.5,14.3-6,21ZM304.4,364.3c1.8-6.2,5.5-12.2,5-19l-5.7,15.7.8,3.2ZM307.4,367.3c4.5-4.8,6.8-12.4,6-19l-6,19ZM389.2,353.3c-2.8-.5-1.7.6-2.1,2.3-2,7.5-3.2,16.9-3.8,24.6l3.5-9.9,2.4-17ZM340.3,379.3c1.2-6,4.7-11.6,4-18l-5.9,15.5,1.9,2.4ZM362.3,381.2l5-19c-3.9,2.5-5.4,11-5.9,15.6-.1,1.1-.9,3.6.9,3.4ZM367.3,386.2c.6-4.5,2.8-8.3,2-13-1.5,0-1.9,3-2.3,4.2s-3.1,12.4.3,8.8ZM356.3,374.3c-2.1-2.3-6,8.2-5,10,2.6.5,1.7-.6,2.5-1.9.7-1.3,3.2-7.2,2.5-8Z"/>
  <path class="st5" d="M355.3,297.4l-25-2c14.4-10.2,4.2-32.1,20.5-41,10.1,1.9,10.8,17.4,8.4,25.5-1.7,5.8-7.9,10.2-3.9,17.5ZM346.2,263.7l-2.8,1.3,1,3,10-.5c1.4-1.4.7-1.3-.9-1.7-2.4-.5-7,1-7.2-2.1Z"/>
  <path class="st13" d="M381.9,404.6c1.4,1.6,4.1,5.1,4.3,7.2s0,6-2,6.4c-1.1-11.5-10.5-16.7-20.4-20-10.4-3.4-20.6-2.7-30.7-5.2-6.2-1.6-12.4-5.2-18.5-6.5s-17.7-1.2-26.2-1.7c6.3-5.7,17.1-6.5,25.2-5.3,6.2,1,12.7,5.9,18.9,8,15.9,5.3,37,3.8,49.3,17Z"/>
  <path class="st13" d="M293.3,361.4v2.9c-1,.2-1.9,0-2.9-.4-4.4-1.6-17-10.1-21.8-13.1-12.7-8-27.4-17-36-29.4,1.5.2,3.2-1,4.5-.9,2.4,0,24.9,20.8,29.5,24.2,8.2,6.1,17.6,12.1,26.7,16.7Z"/>
  <path class="st13" d="M353.3,431.2l-.5,2c-5.8-2-10.9-6-14.5-11l15,9Z"/>
  <path class="st13" d="M177.7,313.4l12-18c-2.6,6.4-6.7,13.6-12,18Z"/>
  <path d="M334.4,370.3c1.5-13.2,6-26,5-39.4l2-9.5c1.5,9,1.1,17.4-.1,26.3-.9,6.8-2.5,17.4-6.9,22.6Z"/>
  <path d="M321.4,347.8c-.7,5.8-4.8,15.1-7.5,20.5-.4.7-.5,3.1-1.5,1.5,2.5-8.6,5.7-17,7-25.9.5-3.7-1.3-10,2-12.5-.4,5.3.6,11.3,0,16.5Z"/>
  <path d="M329.4,341.8c0,.4-1,4.8-2,4.5.4-9.7-2.6-19.3,0-28.9.3-.3,2,1.3,2,1.5,0,7.1.7,16.2,0,23Z"/>
  <path d="M371.3,343.3c-1.3,0-1.9.8-1.7-1,.3-2.7.7-5.4,1.1-8l5.5-14.9c1.4,8.8-3.6,15.7-5,24Z"/>
  <path d="M389.2,353.3l-2.4,17-3.5,9.9c.6-7.7,1.8-17.2,3.8-24.6.5-1.7-.7-2.8,2.1-2.3Z"/>
  <path d="M359.3,359.3c.4-6.6,1.4-16.1,6-21-.6,4.1-1.2,8.2-2.3,12.2s-1.4,7.2-3.7,8.8Z"/>
  <path d="M382.2,345.3c-1.8-.2-1.1-5.2-.9-6.4.6-3.9,2.6-9,4.4-12.6,1.9,1.2.9,2,.7,3.6-.7,5.5-3,10.1-4.2,15.4Z"/>
  <path d="M362.3,381.2c-1.8.2-1-2.3-.9-3.4.5-4.5,1.9-13.1,5.9-15.6l-5,19Z"/>
  <path d="M340.3,379.3l-1.9-2.4,5.9-15.5c.7,6.4-2.8,11.9-4,18Z"/>
  <path d="M307.4,367.3l6-19c.8,6.6-1.5,14.1-6,19Z"/>
  <path d="M304.4,364.3l-.8-3.2,5.7-15.7c.5,6.7-3.2,12.7-5,19Z"/>
  <path d="M331.3,359.3l-.9-3.4,3.9-19.6c.4,7.8-1.5,15.4-3,22.9Z"/>
  <path d="M356.3,374.3c.8.8-1.8,6.7-2.5,8-.8,1.4,0,2.5-2.5,1.9-1-1.7,2.9-12.3,5-10Z"/>
  <path d="M367.3,386.2c-3.4,3.7-.6-7.8-.3-8.8s.8-4.2,2.3-4.2c.8,4.7-1.4,8.5-2,13Z"/>
  <path d="M393.2,355.3c-2.1-.2-.8-4.8-.5-6,.8-3.5,2.7-9.8,5.5-11.9-2,5.9-4.4,11.7-5,18Z"/>
  <path class="st15" d="M346.2,263.7c.2,3.1,4.8,1.6,7.2,2.1s2.3.2.9,1.7l-10,.5-1-3,2.8-1.3Z"/>
  <path class="st7" d="M204.1,209.9s-4.1-13.9,20.1-6c24.1,7.8-19.1-5.4-20.1,6Z"/>
  <ellipse class="st13" cx="212.2" cy="205.5" rx="3.7" ry="1.5" transform="translate(-41.5 54.1) rotate(-13.3)"/>
</svg>