<?xml version="1.0" encoding="UTF-8"?>
<svg id="Layer_2" xmlns="http://www.w3.org/2000/svg" version="1.1" viewBox="0 0 139.8 139.6">
  <!-- Generator: Adobe Illustrator 29.8.1, SVG Export Plug-In . SVG Version: 2.1.1 Build 2)  -->
  <defs>
    <style>
      .st0 {
        fill: none;
      }

      .st1 {
        fill: #fff;
        opacity: .6;
      }
    </style>
  </defs>
  <g id="Layer_1-2">
    <g id="light">
      <path class="st1" d="M69.4,22.6s9.3,1,16.5-3.8,13.9-15.1,24.2-16.1,23.4-3.3,26.1,1.2c2.7,4.5,3,28.3,1.7,33.2s-13.5,29.1-20.6,32-8.7,10.6-8.8,12.9,2.4-7.9,16.4-14.8c14-6.8,14.8-34.8,14.8-34.8V0h-37s-9.4,12.8-20.4,17c-11,4.2-12.9,5.6-12.9,5.6h0Z"/>
      <path class="st1" d="M115.9,139.6s12.3-24.8,16.3-21.3,2.3,19.7,0,21.3h-4.9s10.3-16.1,4.3-17.4-13,17.4-13,17.4c0,0-2.7,0-2.7,0Z"/>
      <path class="st1" d="M30.9,101.1c.1,1,1.2,1.6,2.2,1.5,1.3,0,3.2.5,5.1,4.6,3,6.8-2.2,16.3,1.6,23.1s14.6,9.2,14.6,9.2h20.7s7.7-25.7-1.4-22.4-6.2,7.3-5,7.8,9.5,2.6,3.4,7.3-25.3,5.4-25.5-6.7-4.4-27.5-10.3-26c-4.1,1-5.4.6-5.3,1.5h0Z"/>
      <path class="st1" d="M14.5,0S1.7,16.3,9.4,20.7c7.7,4.5,15.5-1.1,25.8,4.1,10.3,5.2,20.6,10.9,23.8,16.8s3.9,14.7,8.3,23.3c4.4,8.6,8.8,26.2,4.2,37.8-4.6,11.6,8.7,6.6,12.6,14.5,3.8,7.9-1.6,19.3,9,22.5-8.1,0-14.1-5.8-14.4-10.3s5.1-10.2,0-12.7-8.4-2.9-9.7-6.7,3.6-13.8-.4-21c-4.1-7.2-4.5-20.5-7.8-24.6s3.4-17.9-5.9-22.3-14.1,5.7-23.8-1.8S3.1,25.4,3.3,19s2.1-8.7,0-10.3-3.3,1.8-3.3-2.1V0h14.5Z"/>
      <path class="st1" d="M.2,108.6s22.4,0,30.4,11.3c9.3,13-3.5,19.6-3.5,19.6h4.1s14.6-7.9-1.6-24.3C21.5,106.9.2,106.5.2,106.5v2.1Z"/>
      <rect class="st0" y="0" width="139.8" height="139.6"/>
    </g>
  </g>
</svg>