<?xml version="1.0" encoding="UTF-8"?>
<svg id="Layer_2" data-name="Layer 2" xmlns="http://www.w3.org/2000/svg" xmlns:xlink="http://www.w3.org/1999/xlink" viewBox="0 0 225 225">
  <defs>
    <style>
      .cls-1 {
        fill: none;
      }

      .cls-2 {
        fill: #e72429;
      }

      .cls-3 {
        fill: #fff;
      }

      .cls-4 {
        fill: #0b1722;
      }

      .cls-5 {
        clip-path: url(#clippath);
      }
    </style>
    <clipPath id="clippath">
      <rect class="cls-1" x="33.07" y="98.14" width="164.85" height="22.71"/>
    </clipPath>
  </defs>
  <g id="Layer_1-2" data-name="Layer 1">
    <rect class="cls-3" width="225" height="225"/>
    <g class="cls-5">
      <g>
        <path class="cls-2" d="M195.13,120.85c1.55,0,2.8-1.24,2.8-2.78s-1.25-2.78-2.8-2.78-2.8,1.24-2.8,2.78,1.25,2.78,2.8,2.78Z"/>
        <path class="cls-4" d="M142.55,107.34v-4.1h-3.47v-5.1h-4.2v2.39c0,1.53-.84,2.71-2.66,2.71h-1.18v.06c1.35,1.17,2.25,2.63,2.74,4.04h.68v7.95c0,3.3,2.1,5.28,5.46,5.28,1.37,0,2.21-.24,2.63-.42v-3.82c-.25.07-.88.14-1.43.14-1.33,0-2.03-.49-2.03-1.98v-7.15h3.47Z"/>
        <path class="cls-4" d="M191.13,115.44c-.87,2.95-3.61,5.42-7.84,5.42-4.73,0-8.9-3.37-8.9-9.13,0-5.45,4.06-8.99,8.47-8.99,5.32,0,8.51,3.37,8.51,8.86,0,.66-.07,1.36-.07,1.42h-12.33c.11,2.26,2.03,3.89,4.34,3.89,2.17,0,3.36-1.08,3.92-2.6l3.89,1.15h0ZM186.79,109.85c-.07-1.7-1.19-3.37-3.85-3.37-2.41,0-3.75,1.81-3.85,3.37h7.7Z"/>
        <path class="cls-4" d="M119.47,111.72c0,3.09,2.03,4.83,4.41,4.83s3.57-1.56,3.96-2.88l4.1,1.36c-.77,2.85-3.47,5.77-8.06,5.77-5.08,0-9.07-3.82-9.07-9.06s3.92-9.06,8.93-9.06c4.69,0,7.35,2.88,8.09,5.77l-4.17,1.39c-.42-1.42-1.51-2.88-3.82-2.88s-4.37,1.7-4.37,4.79h0Z"/>
        <path class="cls-4" d="M156,118.49c-.95,1.6-2.94,2.29-4.76,2.29-4.17,0-6.55-3.02-6.55-6.74v-10.8h4.66v9.87c0,1.91.98,3.44,3.15,3.44s3.25-1.39,3.25-3.37v-9.93h4.66v14c0,1.32.11,2.5.18,3.09h-4.45c-.07-.35-.14-1.15-.14-1.84h0Z"/>
        <path class="cls-4" d="M174.11,107.83c-.52-.1-.98-.14-1.4-.14-2.38,0-4.45,1.15-4.45,4.83v7.82h-4.66v-17.09h4.52v2.53c1.05-2.26,3.43-2.67,4.9-2.67.39,0,.73.03,1.09.07v4.65h0Z"/>
        <path class="cls-4" d="M95.82,107.83c-.52-.1-.98-.14-1.4-.14-2.38,0-4.45,1.15-4.45,4.83v7.82h-4.66v-17.09h4.52v2.53c1.05-2.26,3.43-2.67,4.9-2.67.39,0,.73.03,1.09.07v4.65h0Z"/>
        <path class="cls-4" d="M108.94,118.49c-.95,1.6-2.94,2.29-4.76,2.29-4.17,0-6.55-3.02-6.55-6.74v-10.8h4.66v9.87c0,1.91.98,3.44,3.15,3.44s3.25-1.39,3.25-3.37v-9.93h4.66v14c0,1.32.11,2.5.18,3.09h-4.45c-.07-.35-.14-1.15-.14-1.84h0Z"/>
        <path class="cls-4" d="M83.14,107.34v-4.1h-3.47v-5.1h-4.2v2.39c0,1.53-.84,2.71-2.66,2.71h-.83c1.3,1.3,1.9,2.89,2.05,4.1h1.02v7.95c0,3.3,2.1,5.28,5.46,5.28,1.37,0,2.21-.24,2.63-.42v-3.82c-.25.07-.88.14-1.43.14-1.33,0-2.03-.49-2.03-1.98v-7.15h3.47Z"/>
        <path class="cls-4" d="M62.49,114.71c.11,1.36,1.12,2.6,3.15,2.6,1.54,0,2.28-.8,2.28-1.7,0-.76-.52-1.39-1.86-1.67l-2.28-.52c-3.32-.73-4.83-2.71-4.83-5.11,0-3.06,2.73-5.59,6.44-5.59,4.9,0,6.55,3.09,6.76,4.93l-3.89.87c-.14-1.01-.88-2.29-2.84-2.29-1.23,0-2.21.73-2.21,1.7,0,.83.63,1.36,1.57,1.53l2.45.52c3.39.69,5.11,2.74,5.11,5.24,0,2.78-2.17,5.63-6.69,5.63-5.18,0-6.97-3.33-7.18-5.28l3.99-.87h0Z"/>
        <path class="cls-4" d="M37.73,99h-4.66v21.33h4.66v-21.33Z"/>
        <path class="cls-4" d="M45.58,120.33h-4.66v-17.08h4.52v2.12c1.05-1.77,3.12-2.57,4.97-2.57,4.27,0,6.23,3.02,6.23,6.77v10.77h-4.66v-9.97c0-1.91-.95-3.4-3.19-3.4-2.03,0-3.22,1.56-3.22,3.54v9.83h0Z"/>
      </g>
    </g>
  </g>
</svg>