<?xml version="1.0" encoding="UTF-8"?>
<svg id="Layer_2" xmlns="http://www.w3.org/2000/svg" version="1.1" viewBox="0 0 360.4 230">
  <!-- Generator: Adobe Illustrator 29.8.1, SVG Export Plug-In . SVG Version: 2.1.1 Build 2)  -->
  <defs>
    <style>
      .st0 {
        fill: #f27fa7;
      }
    </style>
  </defs>
  <g id="Layer_2-2">
    <g>
      <path class="st0" d="M347.2,89.8c8.5-8.6,13.2-19.9,13.2-32s-4.7-23.5-13.2-32l-10.7-10.7c-8.5-8.6-19.9-13.3-32-13.3s-23.5,4.7-32,13.3l-.4.4C251.4,5.3,228.6,0,205.4,0h-50.4C131.8,0,109,5.3,88.3,15.4l-.4-.4C79.4,6.5,68.1,1.8,56,1.8s-23.5,4.7-32,13.3l-10.7,10.7C4.7,34.3,0,45.7,0,57.8s4.7,23.4,13.3,32l2.2,2.2c-8.1,18.8-12.3,39.3-12.3,59.8v.4c0,42.9,34.9,77.8,77.8,77.8h198.5c42.9,0,77.8-34.9,77.8-77.8v-.4c0-20.6-4.2-41-12.3-59.8l2.2-2.2h0ZM342.2,152.2c0,34.7-28.1,62.8-62.8,62.8H81c-34.7,0-62.8-28.1-62.8-62.8v-.4c0-22.7,5.5-44.1,15.3-63,11.9-22.8,30-41.9,52.1-54.9,10.2-6,21.2-10.7,32.8-14,11.6-3.2,23.9-4.9,36.6-4.9h50.4c25.3,0,49.1,6.9,69.4,18.9,22.1,13,40.2,32.1,52,54.9,4.9,9.4,8.7,19.5,11.3,30,2.6,10.5,4,21.6,4,32.9v.4h0Z"/>
      <path class="st0" d="M148.9,92c-1.4,0-2.8-.5-3.9-1.6-1.3-1.3-2.8-2.5-4.3-3.5-2.6-1.7-3.3-5.1-1.6-7.6,1.6-2.6,5.1-3.3,7.6-1.6,2.2,1.4,4.3,3.1,6.1,5,2.1,2.2,2.1,5.6,0,7.8-1.1,1.1-2.5,1.6-3.9,1.6h0Z"/>
      <path class="st0" d="M208.3,160.3c-2.1-2.2-5.6-2.3-7.8-.2-1.6,1.5-3,2.9-8.2,2.9s-3.1-1.2-4.8-3.3c2.1-.8,3.6-2.8,3.6-5.2,0-4.5-3.7-6.7-10.9-6.7s-10.9,2.3-10.9,6.7,1.6,4.5,3.7,5.2c-1.6,2.1-3,3.3-4.8,3.3-5.2,0-6.7-1.4-8.2-2.9-2.2-2.1-5.7-2-7.8.2-2.1,2.2-2,5.7.2,7.8,3.2,3.1,7.4,5.9,15.8,5.9s9.4-3,12-5.8c2.6,2.9,6.4,5.8,12,5.8,8.5,0,12.6-2.8,15.8-5.9,2.2-2.1,2.3-5.6.2-7.8h0Z"/>
      <path class="st0" d="M138.1,98.1h0c-12.4-12.4-32.4-12.4-44.8,0l-30.3,30.3c-12.4,12.4-12.4,32.4,0,44.8h0c12.4,12.4,32.4,12.4,44.8,0l30.3-30.3c12.4-12.4,12.4-32.4,0-44.8ZM131.5,133.6c-2.3,1.9-5.8,1.6-7.7-.7-2.2-2.7-4.1-4.4-9.7-4.4s-7.4,1.8-9.7,4.4c-1.1,1.3-2.7,2-4.2,2s-2.5-.4-3.5-1.3c-2.3-1.9-2.7-5.4-.7-7.7,3.6-4.4,8.3-8.4,18.1-8.4s14.5,4,18.1,8.4c1.9,2.3,1.6,5.8-.7,7.7h0Z"/>
      <path class="st0" d="M211.5,92c-1.4,0-2.8-.5-3.9-1.6-2.1-2.2-2.1-5.6,0-7.8,1.9-1.9,3.9-3.5,6.1-5,2.6-1.7,6-.9,7.6,1.6,1.6,2.6.9,6-1.6,7.6-1.6,1-3,2.2-4.3,3.5-1.1,1.1-2.5,1.6-3.9,1.6h0Z"/>
      <path class="st0" d="M297.4,128.4l-30.3-30.3c-12.4-12.4-32.4-12.4-44.8,0h0c-12.4,12.4-12.4,32.4,0,44.8l30.3,30.3c12.4,12.4,32.4,12.4,44.8,0h0c12.4-12.4,12.4-32.4,0-44.8h0ZM263.7,133.6c-1,.9-2.3,1.3-3.5,1.3s-3.1-.7-4.2-2c-2.2-2.7-4.1-4.4-9.6-4.4s-7.4,1.8-9.6,4.4c-1.9,2.3-5.4,2.7-7.7.7-2.3-1.9-2.7-5.4-.7-7.7,3.6-4.4,8.3-8.4,18.1-8.4s14.5,4,18.1,8.4c1.9,2.3,1.6,5.8-.7,7.7h0Z"/>
    </g>
  </g>
</svg>